<?xml version="1.0" encoding="UTF-8" standalone="no"?>
<!-- Created with Inkscape (http://www.inkscape.org/) -->

<svg
   xmlns:dc="http://purl.org/dc/elements/1.1/"
   xmlns:cc="http://creativecommons.org/ns#"
   xmlns:rdf="http://www.w3.org/1999/02/22-rdf-syntax-ns#"
   xmlns:svg="http://www.w3.org/2000/svg"
   xmlns="http://www.w3.org/2000/svg"
   xmlns:inkscape="http://www.inkscape.org/namespaces/inkscape"
   version="1.1"
   width="113.386"
   height="113.386"
   viewBox="0 0 113.386 113.386"
   id="Layer_1"
   xml:space="preserve"
   style="overflow:inherit"><metadata
   id="metadata35"><rdf:RDF><cc:Work
       rdf:about=""><dc:format>image/svg+xml</dc:format><dc:type
         rdf:resource="http://purl.org/dc/dcmitype/StillImage" /></cc:Work></rdf:RDF></metadata><defs
   id="defs33" />
<path
   d="m 39.034,60.936 c 0,0 -0.322,16.508 -7.47,17.044 -7.147,0.535 -6.085,-10.785 -6.233,-12.647"
   inkscape:connector-curvature="0"
   id="path3"
   style="fill:none;stroke:#000000;stroke-width:0.5" />
<path
   d="m 26.373,65.842 c 0.279,1.051 0.549,1.736 0.86,2.583 l -3.265,-0.13 c 0.159,-0.29 0.705,-1.48 1.071,-2.505 0.393,-1.095 0.673,-2.096 0.783,-2.744 0.059,0.655 0.252,1.673 0.551,2.796 z"
   inkscape:connector-curvature="0"
   id="path5" />
<path
   d="m 74.473,60.936 c 0,0 0.322,16.508 7.471,17.044 7.146,0.535 6.085,-10.785 6.233,-12.647"
   inkscape:connector-curvature="0"
   id="path7"
   style="fill:none;stroke:#000000;stroke-width:0.5" />
<path
   d="m 87.134,65.842 c -0.278,1.051 -0.548,1.736 -0.86,2.583 l 3.265,-0.13 c -0.159,-0.29 -0.705,-1.48 -1.07,-2.505 -0.394,-1.095 -0.673,-2.096 -0.784,-2.744 -0.06,0.655 -0.251,1.673 -0.551,2.796 z"
   inkscape:connector-curvature="0"
   id="path9" />
<path
   d="M 63.854,91.117"
   inkscape:connector-curvature="0"
   id="path11"
   style="fill:none;stroke:#000000" />
<polyline
   fill="#B9E5FB"
   stroke="#000000"
   stroke-linejoin="round"
   points="35.238,33.282 56.948,91.581 57.025,15.317 "
   id="polyline13"
   style="fill:#b9e5fb;stroke:#000000;stroke-linejoin:round" />
<polyline
   fill="#B9E5FB"
   stroke="#000000"
   stroke-linejoin="round"
   points="79.528,34.438 57.007,14.854 57.167,91.117   79.528,34.438 "
   id="polyline15"
   style="fill:#b9e5fb;stroke:#000000;stroke-linejoin:round" />
<path
   d="M 64.634,50.588"
   inkscape:connector-curvature="0"
   id="path17"
   style="stroke:#000000;stroke-dasharray:3" />
<polygon
   points="57.037,46.25 80.562,63.625 80.562,35.08 57.167,14.505 "
   id="polygon19"
   style="fill:#ffffff;stroke:#000000;stroke-linejoin:round" />
<polygon
   points="57.037,46.25 80.562,63.625 80.562,35.08 75.418,30.97 "
   id="polygon21"
   style="fill:#b9e5fb;stroke:#000000;stroke-linejoin:round" />
<polygon
   points="56.972,46.25 33.447,63.625 33.447,35.08 56.842,14.505 "
   id="polygon23"
   style="fill:#ffffff;stroke:#000000;stroke-linejoin:round" />
<polygon
   points="56.972,46.25 33.447,63.625 33.447,35.08 38.59,30.97 "
   id="polygon25"
   style="fill:#b9e5fb;stroke:#000000;stroke-linejoin:round" />
<line
   stroke="#000000"
   stroke-dasharray="3"
   x1="48.234001"
   y1="52.335999"
   x2="14.554"
   y2="63.247002"
   id="line27"
   style="stroke:#000000;stroke-dasharray:3" />
<line
   stroke="#000000"
   stroke-dasharray="3"
   x1="65.786003"
   y1="52.335999"
   x2="99.464996"
   y2="63.247002"
   id="line29"
   style="stroke:#000000;stroke-dasharray:3" />
</svg>