<?xml version="1.0" encoding="UTF-8" standalone="no"?>
<!-- Created with Inkscape (http://www.inkscape.org/) -->

<svg
   xmlns:dc="http://purl.org/dc/elements/1.1/"
   xmlns:cc="http://creativecommons.org/ns#"
   xmlns:rdf="http://www.w3.org/1999/02/22-rdf-syntax-ns#"
   xmlns:svg="http://www.w3.org/2000/svg"
   xmlns="http://www.w3.org/2000/svg"
   xmlns:inkscape="http://www.inkscape.org/namespaces/inkscape"
   version="1.1"
   width="113.386"
   height="113.386"
   viewBox="0 0 113.386 113.386"
   id="Layer_1"
   xml:space="preserve"
   style="overflow:inherit"><metadata
   id="metadata19"><rdf:RDF><cc:Work
       rdf:about=""><dc:format>image/svg+xml</dc:format><dc:type
         rdf:resource="http://purl.org/dc/dcmitype/StillImage" /></cc:Work></rdf:RDF></metadata><defs
   id="defs17" />
<polyline
   fill="#B9E5FB"
   stroke="#000000"
   stroke-linejoin="round"
   points="34.072,32.676 55.782,90.974 55.858,14.711 "
   id="polyline3"
   style="fill:#b9e5fb;stroke:#000000;stroke-linejoin:round" />
<polygon
   points="55.805,45.645 32.28,53.9 32.28,34.473 55.676,13.9 "
   id="polygon5"
   style="fill:#ffffff;stroke:#000000;stroke-linejoin:round" />
<polygon
   points="55.805,45.645 47.354,51.887 32.28,57.087 32.28,34.473 37.424,30.365 "
   id="polygon7"
   style="fill:#b9e5fb;stroke:#000000;stroke-linejoin:round" />
<polygon
   points="27.165,51.78 32.298,51.167 32.28,57.087 "
   id="polygon9"
   style="fill:#b9e5fb;stroke:#000000;stroke-linejoin:round" />
<path
   d="m 72.049,29.278 c 1.346,-0.638 2.301,-0.964 3.459,-1.391 l -2.92,-3.229 c -0.172,0.417 -0.962,2.025 -1.732,3.299 -0.824,1.365 -1.641,2.529 -2.232,3.213 0.744,-0.517 1.983,-1.211 3.425,-1.892 z"
   inkscape:connector-curvature="0"
   id="path11" />
<path
   d="m 77.293,44.735 c 0,0 10.77,-1.584 9.504,-11.088 C 85.354,22.822 73.492,26.995 73.492,26.995"
   inkscape:connector-curvature="0"
   id="path13"
   style="fill:none;stroke:#000000;stroke-width:2" />
</svg>