<?xml version="1.0" encoding="UTF-8" standalone="no"?>
<!-- Created with Inkscape (http://www.inkscape.org/) -->

<svg
   xmlns:dc="http://purl.org/dc/elements/1.1/"
   xmlns:cc="http://creativecommons.org/ns#"
   xmlns:rdf="http://www.w3.org/1999/02/22-rdf-syntax-ns#"
   xmlns:svg="http://www.w3.org/2000/svg"
   xmlns="http://www.w3.org/2000/svg"
   xmlns:inkscape="http://www.inkscape.org/namespaces/inkscape"
   version="1.1"
   width="113.386"
   height="113.386"
   viewBox="0 0 113.386 113.386"
   id="Layer_1"
   xml:space="preserve"
   style="overflow:inherit"><metadata
   id="metadata31"><rdf:RDF><cc:Work
       rdf:about=""><dc:format>image/svg+xml</dc:format><dc:type
         rdf:resource="http://purl.org/dc/dcmitype/StillImage" /></cc:Work></rdf:RDF></metadata><defs
   id="defs29" />
<polyline
   fill="#B9E5FB"
   stroke="#000000"
   stroke-linejoin="round"
   points="31.633,42.562 53.342,100.86 53.419,24.597 "
   id="polyline3"
   style="fill:#b9e5fb;stroke:#000000;stroke-linejoin:round" />
<polyline
   fill="#B9E5FB"
   stroke="#000000"
   stroke-linejoin="round"
   points="75.922,43.718 53.401,24.134 53.561,100.397   75.922,43.718 "
   id="polyline5"
   style="fill:#b9e5fb;stroke:#000000;stroke-linejoin:round" />
<path
   d="M 61.028,59.868"
   inkscape:connector-curvature="0"
   id="path7"
   style="stroke:#000000;stroke-dasharray:3" />
<polygon
   points="53.366,55.53 29.841,63.786 29.841,44.359 53.236,23.785 "
   id="polygon9"
   style="fill:#ffffff;stroke:#000000;stroke-linejoin:round" />
<polygon
   points="53.366,55.53 44.915,61.774 29.841,66.973 29.841,44.359 34.984,40.25 "
   id="polygon11"
   style="fill:#b9e5fb;stroke:#000000;stroke-linejoin:round" />
<polygon
   points="25.313,61.073 29.859,61.053 29.841,66.973 "
   id="polygon13"
   style="fill:#b9e5fb;stroke:#000000;stroke-linejoin:round" />
<polygon
   points="53.677,55.53 77.202,63.786 77.202,44.359 53.807,23.785 "
   id="polygon15"
   style="fill:#ffffff;stroke:#000000;stroke-linejoin:round" />
<polygon
   points="53.677,55.53 62.127,61.774 77.202,66.973 77.202,44.359 72.059,40.25 "
   id="polygon17"
   style="fill:#b9e5fb;stroke:#000000;stroke-linejoin:round" />
<polygon
   points="81.729,61.073 77.184,61.053 77.202,66.973 "
   id="polygon19"
   style="fill:#b9e5fb;stroke:#000000;stroke-linejoin:round" />
<line
   fill="#B9E5FB"
   stroke="#9D9FA2"
   stroke-linejoin="round"
   stroke-dasharray="3"
   x1="53.483002"
   y1="-1"
   x2="53.483002"
   y2="110"
   id="line21"
   style="fill:#b9e5fb;stroke:#9d9fa2;stroke-linejoin:round;stroke-dasharray:3" />
<path
   d="m 69.803,46.364 c 0,0 16.379,2.103 17.955,-4.891 1.578,-6.991 -9.773,-7.6 -11.596,-8.02"
   inkscape:connector-curvature="0"
   id="path23"
   style="fill:none;stroke:#000000;stroke-width:0.5" />
<path
   d="m 76.514,34.56 c 1,0.431 1.637,0.798 2.43,1.23 l 0.352,-3.249 c -0.312,0.114 -1.57,0.48 -2.637,0.692 -1.141,0.229 -2.172,0.358 -2.828,0.373 0.636,0.154 1.617,0.493 2.683,0.954 z"
   inkscape:connector-curvature="0"
   id="path25" />
</svg>