<?xml version="1.0" encoding="UTF-8" standalone="no"?>
<!-- Created with Inkscape (http://www.inkscape.org/) -->

<svg
   xmlns:dc="http://purl.org/dc/elements/1.1/"
   xmlns:cc="http://creativecommons.org/ns#"
   xmlns:rdf="http://www.w3.org/1999/02/22-rdf-syntax-ns#"
   xmlns:svg="http://www.w3.org/2000/svg"
   xmlns="http://www.w3.org/2000/svg"
   xmlns:inkscape="http://www.inkscape.org/namespaces/inkscape"
   version="1.1"
   width="117.333"
   height="124.667"
   viewBox="0 0 117.333 124.667"
   id="Layer_1"
   xml:space="preserve"
   style="overflow:inherit"><metadata
   id="metadata3272"><rdf:RDF><cc:Work
       rdf:about=""><dc:format>image/svg+xml</dc:format><dc:type
         rdf:resource="http://purl.org/dc/dcmitype/StillImage" /></cc:Work></rdf:RDF></metadata><defs
   id="defs3270" />
<polygon
   points="58.023,117.957 29.277,41.825 58.023,13.079 87.061,42.116 "
   id="polygon3256"
   style="fill:#ffffff;stroke:#000000" />
<polyline
   fill="#B9E5FB"
   stroke="#000000"
   points="29.277,42.773 56.578,42.773 57.779,118.905 29.208,42.181 "
   id="polyline3258"
   style="fill:#b9e5fb;stroke:#000000" />
<polyline
   fill="#B9E5FB"
   stroke="#000000"
   points="86.518,42.773 59.218,42.773 58.016,118.905 86.586,42.181 "
   id="polyline3260"
   style="fill:#b9e5fb;stroke:#000000" />
<line
   stroke="#808285"
   stroke-dasharray="4,4,4"
   x1="12.228"
   y1="41.734001"
   x2="105.684"
   y2="41.734001"
   id="line3262"
   style="stroke:#808285;stroke-dasharray:4, 4, 4" />
<path
   d="m 47.909,28.636 c 0,0 0.563,-27.869 -6.374,-28.403 -6.937,-0.535 -6.504,18.529 -6.747,21.682"
   inkscape:connector-curvature="0"
   id="path3264"
   style="fill:none;stroke:#000000;stroke-width:0.5" />
<path
   d="m 35.621,23.73 c 0.271,-1.051 0.532,-1.737 0.835,-2.582 l -3.168,0.128 c 0.154,0.292 0.684,1.481 1.04,2.506 0.381,1.096 0.652,2.095 0.759,2.744 0.057,-0.654 0.244,-1.672 0.534,-2.796 z"
   inkscape:connector-curvature="0"
   id="path3266" />
</svg>