<?xml version="1.0" encoding="UTF-8" standalone="no"?>
<!-- Created with Inkscape (http://www.inkscape.org/) -->

<svg
   xmlns:dc="http://purl.org/dc/elements/1.1/"
   xmlns:cc="http://creativecommons.org/ns#"
   xmlns:rdf="http://www.w3.org/1999/02/22-rdf-syntax-ns#"
   xmlns:svg="http://www.w3.org/2000/svg"
   xmlns="http://www.w3.org/2000/svg"
   xmlns:inkscape="http://www.inkscape.org/namespaces/inkscape"
   version="1.1"
   width="117.333"
   height="116.667"
   viewBox="0 0 117.333 116.667"
   id="Layer_1"
   xml:space="preserve"
   style="overflow:inherit"><metadata
   id="metadata17"><rdf:RDF><cc:Work
       rdf:about=""><dc:format>image/svg+xml</dc:format><dc:type
         rdf:resource="http://purl.org/dc/dcmitype/StillImage" /></cc:Work></rdf:RDF></metadata><defs
   id="defs15" />
<rect
   width="74.160004"
   height="74.160004"
   x="22.280001"
   y="22.437"
   transform="matrix(0.7071,-0.7071,0.7071,0.7071,-24.6988,59.4067)"
   id="rect3"
   style="fill:#ffffff;stroke:#000000" />
<path
   d="m 16.941,55.558 c 0,0 41.021,-20.018 87.771,1.092"
   inkscape:connector-curvature="0"
   id="path5"
   style="fill:none;stroke:#000000;stroke-width:0.5" />
<path
   d="m 15.427,57.329 c 1.542,-0.25 2.599,-0.302 3.891,-0.395 l -2.004,-4.106 c -0.297,0.371 -1.56,1.761 -2.707,2.823 -1.228,1.139 -2.39,2.072 -3.183,2.592 0.898,-0.306 2.349,-0.646 4.003,-0.914 z"
   inkscape:connector-curvature="0"
   id="path7" />
<path
   d="m 104.026,57.697 c -1.628,-0.33 -2.749,-0.438 -4.116,-0.598 l 2.345,-3.996 c 0.296,0.385 1.565,1.84 2.73,2.96 1.246,1.202 2.431,2.195 3.249,2.756 -0.94,-0.354 -2.465,-0.768 -4.208,-1.122 z"
   inkscape:connector-curvature="0"
   id="path9" />
<line
   fill="none"
   stroke="#000000"
   stroke-dasharray="4,4,4"
   x1="59.091"
   y1="112.098"
   x2="59.091"
   y2="7.8520002"
   id="line11"
   style="fill:none;stroke:#000000;stroke-dasharray:4, 4, 4" />
</svg>