<?xml version="1.0" encoding="UTF-8" standalone="no"?>
<!-- Created with Inkscape (http://www.inkscape.org/) -->

<svg
   xmlns:dc="http://purl.org/dc/elements/1.1/"
   xmlns:cc="http://creativecommons.org/ns#"
   xmlns:rdf="http://www.w3.org/1999/02/22-rdf-syntax-ns#"
   xmlns:svg="http://www.w3.org/2000/svg"
   xmlns="http://www.w3.org/2000/svg"
   xmlns:inkscape="http://www.inkscape.org/namespaces/inkscape"
   version="1.1"
   width="113.386"
   height="113.386"
   viewBox="0 0 113.386 113.386"
   id="Layer_1"
   xml:space="preserve"
   style="overflow:inherit"><metadata
   id="metadata29"><rdf:RDF><cc:Work
       rdf:about=""><dc:format>image/svg+xml</dc:format><dc:type
         rdf:resource="http://purl.org/dc/dcmitype/StillImage" /></cc:Work></rdf:RDF></metadata><defs
   id="defs27" />
<polygon
   points="57.709,90.316 28.962,14.184 86.747,14.476 "
   id="polygon3"
   style="fill:none;stroke:#000000" />
<polyline
   fill="#B9E5FB"
   stroke="#000000"
   points="28.962,14.184 56.262,14.184 57.465,90.316 28.894,13.592 "
   id="polyline5"
   style="fill:#b9e5fb;stroke:#000000" />
<polyline
   fill="#B9E5FB"
   stroke="#000000"
   points="86.204,14.184 58.903,14.184 57.702,90.316 86.273,13.592 "
   id="polyline7"
   style="fill:#b9e5fb;stroke:#000000" />
<line
   fill="none"
   stroke="#000000"
   stroke-dasharray="3"
   x1="56.279999"
   y1="14.48"
   x2="38.554001"
   y2="37.873001"
   id="line9"
   style="fill:none;stroke:#000000;stroke-dasharray:3" />
<line
   fill="none"
   stroke="#000000"
   stroke-dasharray="3"
   x1="59.367001"
   y1="14.48"
   x2="77.092003"
   y2="37.873001"
   id="line11"
   style="fill:none;stroke:#000000;stroke-dasharray:3" />
<path
   d="m 35.734,18.744 c 0,0 11.085,2.672 16.729,14.174"
   inkscape:connector-curvature="0"
   id="path13"
   style="fill:none;stroke:#000000;stroke-width:0.5" />
<path
   d="m 34.399,18.92 c 0.617,0.361 1.009,0.652 1.492,0.998 l 0.491,-2.039 c -0.215,0.043 -1.066,0.167 -1.783,0.208 -0.768,0.043 -1.452,0.034 -1.883,-0.014 0.407,0.154 1.021,0.458 1.683,0.847 z"
   inkscape:connector-curvature="0"
   id="path15" />
<path
   d="M 52.671,33.642 C 52.192,33.05 51.828,32.684 51.39,32.228 L 53.388,31.5 c -0.009,0.223 0.016,1.108 0.101,1.845 0.089,0.789 0.218,1.487 0.344,1.925 -0.229,-0.401 -0.648,-0.993 -1.162,-1.628 z"
   inkscape:connector-curvature="0"
   id="path17" />
<path
   d="m 79.751,18.744 c 0,0 -11.086,2.672 -16.729,14.174"
   inkscape:connector-curvature="0"
   id="path19"
   style="fill:none;stroke:#000000;stroke-width:0.5" />
<path
   d="m 81.085,18.92 c -0.617,0.361 -1.009,0.652 -1.492,0.998 l -0.491,-2.039 c 0.215,0.043 1.066,0.167 1.783,0.208 0.768,0.043 1.452,0.034 1.884,-0.014 -0.407,0.154 -1.021,0.458 -1.684,0.847 z"
   inkscape:connector-curvature="0"
   id="path21" />
<path
   d="m 62.813,33.642 c 0.479,-0.592 0.843,-0.958 1.281,-1.414 L 62.097,31.5 c 0.008,0.223 -0.017,1.108 -0.102,1.845 -0.089,0.789 -0.218,1.487 -0.344,1.925 0.23,-0.401 0.648,-0.993 1.162,-1.628 z"
   inkscape:connector-curvature="0"
   id="path23" />
<path
   d="M 57.368149,39.126192 C 57.256547,32.74627 57.100818,24.713834 57.022084,21.276334 c -0.138917,-6.065049 -0.123526,-6.25 0.52011,-6.25 0.656749,0 0.660969,0.174317 0.429653,17.75 -0.128486,9.7625 -0.271225,17.794937 -0.317198,17.849857 -0.04597,0.05492 -0.174898,-5.120077 -0.2865,-11.499999 z"
   inkscape:connector-curvature="0"
   id="path3020"
   style="fill:#ffffff;stroke:none" /></svg>