<?xml version="1.0" encoding="UTF-8" standalone="no"?>
<!-- Created with Inkscape (http://www.inkscape.org/) -->

<svg
   xmlns:dc="http://purl.org/dc/elements/1.1/"
   xmlns:cc="http://creativecommons.org/ns#"
   xmlns:rdf="http://www.w3.org/1999/02/22-rdf-syntax-ns#"
   xmlns:svg="http://www.w3.org/2000/svg"
   xmlns="http://www.w3.org/2000/svg"
   xmlns:inkscape="http://www.inkscape.org/namespaces/inkscape"
   version="1.1"
   width="117.333"
   height="124.667"
   viewBox="0 0 117.333 124.667"
   id="Layer_1"
   xml:space="preserve"
   style="overflow:inherit"><metadata
   id="metadata3105"><rdf:RDF><cc:Work
       rdf:about=""><dc:format>image/svg+xml</dc:format><dc:type
         rdf:resource="http://purl.org/dc/dcmitype/StillImage" /></cc:Work></rdf:RDF></metadata><defs
   id="defs3103" />


<rect
   width="74.161003"
   height="74.158997"
   x="22.045"
   y="22.437"
   transform="matrix(0.7071,-0.7071,0.7071,0.7071,-24.7676,59.2396)"
   id="rect3089"
   style="fill:#ffffff;stroke:#000000" />
<line
   fill="none"
   stroke="#BCBEC0"
   stroke-dasharray="4,4,4"
   x1="58.855999"
   y1="112.098"
   x2="58.855999"
   y2="7.8520002"
   id="line3091"
   style="fill:none;stroke:#bcbec0;stroke-dasharray:4, 4, 4" />
<path
   d="m 51.697,52.237 c 0,0 -20.213,-6.836 -40.63,5.739"
   inkscape:connector-curvature="0"
   id="path3093"
   style="fill:none;stroke:#000000;stroke-width:0.5" />
<path
   d="m 53.102,53.31 c -1.086,-0.036 -1.816,0.021 -2.713,0.074 l 1.015,-3.004 c 0.236,0.23 1.229,1.073 2.112,1.703 0.944,0.674 1.826,1.216 2.419,1.502 -0.645,-0.131 -1.673,-0.238 -2.833,-0.275 z"
   inkscape:connector-curvature="0"
   id="path3095" />
<path
   d="m 66.535,52.237 c 0,0 20.213,-6.836 40.632,5.739"
   inkscape:connector-curvature="0"
   id="path3097"
   style="fill:none;stroke:#000000;stroke-width:0.5" />
<path
   d="m 65.131,53.31 c 1.084,-0.036 1.815,0.021 2.712,0.074 L 66.828,50.38 c -0.237,0.23 -1.229,1.073 -2.112,1.703 -0.943,0.674 -1.827,1.216 -2.418,1.502 0.643,-0.131 1.672,-0.238 2.833,-0.275 z"
   inkscape:connector-curvature="0"
   id="path3099" />
<line
   fill="#FFFFFF"
   stroke="#000000"
   stroke-dasharray="4,4,4"
   x1="58.806"
   y1="112.182"
   x2="30.566"
   y2="36.008999"
   id="line3085"
   style="fill:#ffffff;stroke:#000000;stroke-dasharray:4, 4, 4" /><line
   fill="#FFFFFF"
   stroke="#000000"
   stroke-dasharray="4,4,4"
   x1="59.104"
   y1="111.044"
   x2="87.418999"
   y2="35.693001"
   id="line3087"
   style="fill:#ffffff;stroke:#000000;stroke-dasharray:4, 4, 4" /></svg>