<?xml version="1.0" encoding="UTF-8" standalone="no"?>
<!-- Created with Inkscape (http://www.inkscape.org/) -->

<svg
   xmlns:dc="http://purl.org/dc/elements/1.1/"
   xmlns:cc="http://creativecommons.org/ns#"
   xmlns:rdf="http://www.w3.org/1999/02/22-rdf-syntax-ns#"
   xmlns:svg="http://www.w3.org/2000/svg"
   xmlns="http://www.w3.org/2000/svg"
   xmlns:inkscape="http://www.inkscape.org/namespaces/inkscape"
   version="1.1"
   width="113.386"
   height="113.386"
   viewBox="0 0 113.386 113.386"
   id="Layer_1"
   xml:space="preserve"
   style="overflow:inherit"><metadata
   id="metadata29"><rdf:RDF><cc:Work
       rdf:about=""><dc:format>image/svg+xml</dc:format><dc:type
         rdf:resource="http://purl.org/dc/dcmitype/StillImage" /></cc:Work></rdf:RDF></metadata><defs
   id="defs27" />
<rect
   width="90.477997"
   height="90.476997"
   x="11.219"
   y="12.987"
   id="rect3"
   style="fill:#ffffff;stroke:#000000" />
<g
   id="g5">
	<path
   d="m 18.619,51.07 c 0,0 35.66,-17.402 76.301,0.949"
   inkscape:connector-curvature="0"
   id="path7"
   style="fill:none;stroke:#000000;stroke-width:0.5" />
	<path
   d="m 17.303,52.61 c 1.342,-0.218 2.26,-0.264 3.383,-0.343 l -1.741,-3.569 c -0.26,0.321 -1.356,1.53 -2.354,2.453 -1.067,0.99 -2.077,1.802 -2.768,2.254 0.781,-0.267 2.042,-0.562 3.48,-0.795 z"
   inkscape:connector-curvature="0"
   id="path9" />
	<path
   d="m 94.323,52.93 c -1.414,-0.287 -2.39,-0.381 -3.578,-0.52 l 2.039,-3.474 c 0.257,0.335 1.361,1.6 2.374,2.573 1.082,1.045 2.112,1.908 2.825,2.396 -0.818,-0.307 -2.144,-0.668 -3.66,-0.975 z"
   inkscape:connector-curvature="0"
   id="path11" />
</g>
<g
   id="g13">
	<path
   d="m 48.956,94.529 c 0,0 -17.402,-35.659 0.948,-76.302"
   inkscape:connector-curvature="0"
   id="path15"
   style="fill:none;stroke:#000000;stroke-width:0.5" />
	<path
   d="m 50.495,95.847 c -0.217,-1.341 -0.263,-2.26 -0.343,-3.383 l -3.569,1.739 c 0.322,0.262 1.53,1.357 2.454,2.354 0.99,1.068 1.802,2.078 2.253,2.769 -0.267,-0.781 -0.562,-2.043 -0.795,-3.479 z"
   inkscape:connector-curvature="0"
   id="path17" />
	<path
   d="m 50.815,18.825 c -0.287,1.415 -0.381,2.39 -0.521,3.578 l -3.473,-2.038 c 0.335,-0.257 1.599,-1.361 2.573,-2.374 1.044,-1.083 1.907,-2.113 2.396,-2.825 -0.307,0.817 -0.667,2.144 -0.975,3.659 z"
   inkscape:connector-curvature="0"
   id="path19" />
</g>
<line
   fill="none"
   stroke="#000000"
   stroke-dasharray="4,4,4"
   x1="55.831001"
   y1="103.972"
   x2="55.831001"
   y2="13.233"
   id="line21"
   style="fill:none;stroke:#000000;stroke-dasharray:4, 4, 4" />
<line
   fill="none"
   stroke="#000000"
   stroke-dasharray="4,4,4"
   x1="10.463"
   y1="58.602001"
   x2="101.2"
   y2="58.602001"
   id="line23"
   style="fill:none;stroke:#000000;stroke-dasharray:4, 4, 4" />
</svg>