<?xml version="1.0" encoding="UTF-8" standalone="no"?>
<!-- Created with Inkscape (http://www.inkscape.org/) -->

<svg
   xmlns:dc="http://purl.org/dc/elements/1.1/"
   xmlns:cc="http://creativecommons.org/ns#"
   xmlns:rdf="http://www.w3.org/1999/02/22-rdf-syntax-ns#"
   xmlns:svg="http://www.w3.org/2000/svg"
   xmlns="http://www.w3.org/2000/svg"
   xmlns:inkscape="http://www.inkscape.org/namespaces/inkscape"
   version="1.1"
   width="113.386"
   height="113.386"
   viewBox="0 0 113.386 113.386"
   id="Layer_1"
   xml:space="preserve"
   style="overflow:inherit"><metadata
   id="metadata35"><rdf:RDF><cc:Work
       rdf:about=""><dc:format>image/svg+xml</dc:format><dc:type
         rdf:resource="http://purl.org/dc/dcmitype/StillImage" /></cc:Work></rdf:RDF></metadata><defs
   id="defs33" />
<g
   id="g3">
	<path
   d="m 76.795,21.639 c 0,0 -20.033,-9.207 -42.371,1.512"
   inkscape:connector-curvature="0"
   id="path5"
   style="fill:none;stroke:#000000;stroke-width:0.5" />
	<path
   d="M 76.512,22.435 C 74.774,22.194 73.59,22.164 72.137,22.094 l 2.142,-4.656 c 0.343,0.409 1.793,1.933 3.108,3.093 1.402,1.244 2.728,2.262 3.632,2.823 -1.012,-0.318 -2.65,-0.665 -4.507,-0.919 z"
   inkscape:connector-curvature="0"
   id="path7" />
</g>
<polygon
   points="108.64,34.921 81.326,60.613 30.143,60.613 4.245,34.921 "
   id="polygon9"
   style="fill:#b9e5fb;stroke:#000000;stroke-linejoin:round" />
<polygon
   points="56.398,85.553 42.184,73.344 30.085,34.627 81.487,34.627 69.045,73.689 "
   id="polygon11"
   style="fill:#b9e5fb;stroke:#000000" />
<line
   fill="none"
   stroke="#BCBEC0"
   stroke-width="0.5"
   stroke-linejoin="round"
   x1="73.778"
   y1="53.451"
   x2="56.437"
   y2="35.176998"
   id="line13"
   style="fill:none;stroke:#bcbec0;stroke-width:0.5;stroke-linejoin:round" />
<line
   fill="none"
   stroke="#BCBEC0"
   stroke-width="0.5"
   stroke-linejoin="round"
   x1="55.418999"
   y1="35.176998"
   x2="38.201"
   y2="53.820999"
   id="line15"
   style="fill:none;stroke:#bcbec0;stroke-width:0.5;stroke-linejoin:round" />
<line
   fill="none"
   stroke="#000000"
   stroke-linejoin="round"
   x1="56.437"
   y1="35.176998"
   x2="56.437"
   y2="85.724998"
   id="line17"
   style="fill:none;stroke:#000000;stroke-linejoin:round" />
<polygon
   points="65.094,56.72 69.51,73.615 82.263,34.732 "
   id="polygon19"
   style="fill:#b9e5fb;stroke:#000000;stroke-linejoin:round" />
<g
   id="g21">
	<polygon
   points="46.576,56.72 42.16,73.615 29.407,34.732 "
   id="polygon23"
   style="fill:#b9e5fb;stroke:#000000;stroke-linejoin:round" />
	
		<line
   fill="none"
   stroke="#000000"
   stroke-linecap="round"
   stroke-linejoin="round"
   x1="29.518"
   y1="35.035999"
   x2="29.518"
   y2="60.808998"
   id="line25"
   style="fill:none;stroke:#000000;stroke-linecap:round;stroke-linejoin:round" />
</g>
<line
   fill="none"
   stroke="#000000"
   stroke-linecap="round"
   stroke-linejoin="round"
   x1="81.768997"
   y1="35.035999"
   x2="81.768997"
   y2="60.808998"
   id="line27"
   style="fill:none;stroke:#000000;stroke-linecap:round;stroke-linejoin:round" />
<line
   fill="none"
   stroke="#000000"
   stroke-dasharray="4,4,4"
   x1="56.855999"
   y1="4.7020001"
   x2="56.855999"
   y2="107.248"
   id="line29"
   style="fill:none;stroke:#000000;stroke-dasharray:4, 4, 4" />
</svg>