<?xml version="1.0" encoding="UTF-8" standalone="no"?>
<!-- Created with Inkscape (http://www.inkscape.org/) -->

<svg
   xmlns:dc="http://purl.org/dc/elements/1.1/"
   xmlns:cc="http://creativecommons.org/ns#"
   xmlns:rdf="http://www.w3.org/1999/02/22-rdf-syntax-ns#"
   xmlns:svg="http://www.w3.org/2000/svg"
   xmlns="http://www.w3.org/2000/svg"
   xmlns:inkscape="http://www.inkscape.org/namespaces/inkscape"
   version="1.1"
   width="113.386"
   height="113.386"
   viewBox="0 0 113.386 113.386"
   id="Layer_1"
   xml:space="preserve"
   style="overflow:inherit"><metadata
   id="metadata57"><rdf:RDF><cc:Work
       rdf:about=""><dc:format>image/svg+xml</dc:format><dc:type
         rdf:resource="http://purl.org/dc/dcmitype/StillImage" /></cc:Work></rdf:RDF></metadata><defs
   id="defs55" />
<g
   id="g3">
	<line
   fill="none"
   stroke="#000000"
   stroke-width="3"
   x1="83.842003"
   y1="80.162003"
   x2="96.282997"
   y2="80.162003"
   id="line5"
   style="fill:none;stroke:#000000;stroke-width:3" />
	<path
   d="m 99.283,78.604 c -2.102,-0.762 -3.468,-1.462 -5.156,-2.273 v 7.686 c 0.604,-0.345 3.055,-1.512 5.156,-2.273 2.254,-0.813 4.293,-1.369 5.617,-1.571 -1.324,-0.202 -3.363,-0.755 -5.617,-1.569 z"
   inkscape:connector-curvature="0"
   id="path7" />
</g>
<rect
   width="69.598"
   height="69.597"
   x="8.2930002"
   y="23.485001"
   id="rect9"
   style="fill:#ffffff;stroke:#000000" />
<line
   fill="none"
   stroke="#BCBEC0"
   stroke-width="0.5"
   x1="8.0209999"
   y1="92.999001"
   x2="77.198997"
   y2="23.82"
   id="line11"
   style="fill:none;stroke:#bcbec0;stroke-width:0.5" />
<line
   fill="none"
   stroke="#BCBEC0"
   stroke-width="0.5"
   x1="8.0209999"
   y1="23.820999"
   x2="77.198997"
   y2="92.999001"
   id="line13"
   style="fill:none;stroke:#bcbec0;stroke-width:0.5" />
<g
   id="g15">
	<line
   fill="none"
   stroke="#000000"
   stroke-dasharray="4,4,4"
   x1="8.0030003"
   y1="59.123001"
   x2="42.263"
   y2="93.383003"
   id="line17"
   style="fill:none;stroke:#000000;stroke-dasharray:4, 4, 4" />
	<line
   fill="none"
   stroke="#000000"
   stroke-dasharray="4,4,4"
   x1="42.970001"
   y1="24.156"
   x2="77.228996"
   y2="58.416"
   id="line19"
   style="fill:none;stroke:#000000;stroke-dasharray:4, 4, 4" />
	<line
   fill="none"
   stroke="#000000"
   stroke-dasharray="4,4,4"
   x1="42.970001"
   y1="93.383003"
   x2="77.228996"
   y2="59.123001"
   id="line21"
   style="fill:none;stroke:#000000;stroke-dasharray:4, 4, 4" />
	<line
   fill="none"
   stroke="#000000"
   stroke-dasharray="4,4,4"
   x1="8.0030003"
   y1="58.416"
   x2="42.263"
   y2="24.156"
   id="line23"
   style="fill:none;stroke:#000000;stroke-dasharray:4, 4, 4" />
</g>
<line
   fill="none"
   stroke="#BCBEC0"
   stroke-width="0.5"
   x1="42.410999"
   y1="93.473"
   x2="42.410999"
   y2="23.674"
   id="line25"
   style="fill:none;stroke:#bcbec0;stroke-width:0.5" />
<line
   fill="none"
   stroke="#BCBEC0"
   stroke-width="0.5"
   x1="7.5120001"
   y1="58.573002"
   x2="77.309998"
   y2="58.573002"
   id="line27"
   style="fill:none;stroke:#bcbec0;stroke-width:0.5" />
<g
   id="g29">
	<path
   d="m 34.867,62.928 c 0,0 -17.382,6.434 -24.291,26.086"
   inkscape:connector-curvature="0"
   id="path31"
   style="fill:none;stroke:#000000;stroke-width:0.5" />
	<path
   d="m 36.402,62.883 c -0.752,0.569 -1.214,1.008 -1.791,1.533 l -0.957,-2.583 c 0.286,0.026 1.417,0.054 2.357,-0.005 1.005,-0.061 1.897,-0.178 2.453,-0.309 -0.505,0.265 -1.258,0.754 -2.062,1.364 z"
   inkscape:connector-curvature="0"
   id="path33" />
</g>
<g
   id="g35">
	<path
   d="m 36.859,50.252 c 0,0 -6.435,-17.381 -26.086,-24.291"
   inkscape:connector-curvature="0"
   id="path37"
   style="fill:none;stroke:#000000;stroke-width:0.5" />
	<path
   d="M 36.903,51.787 C 36.334,51.035 35.896,50.573 35.37,49.996 l 2.583,-0.957 c -0.025,0.286 -0.053,1.417 0.006,2.357 0.06,1.005 0.177,1.897 0.308,2.453 -0.265,-0.505 -0.755,-1.258 -1.364,-2.062 z"
   inkscape:connector-curvature="0"
   id="path39" />
</g>
<g
   id="g41">
	<path
   d="m 50.894,52.925 c 0,0 17.381,-6.435 24.291,-26.086"
   inkscape:connector-curvature="0"
   id="path43"
   style="fill:none;stroke:#000000;stroke-width:0.5" />
	<path
   d="m 49.359,52.969 c 0.752,-0.569 1.214,-1.007 1.79,-1.533 l 0.958,2.583 c -0.286,-0.025 -1.417,-0.053 -2.357,0.006 -1.005,0.061 -1.897,0.177 -2.453,0.308 0.505,-0.265 1.258,-0.755 2.062,-1.364 z"
   inkscape:connector-curvature="0"
   id="path45" />
</g>
<g
   id="g47">
	<path
   d="m 47.202,66.279 c 0,0 6.434,17.381 26.085,24.291"
   inkscape:connector-curvature="0"
   id="path49"
   style="fill:none;stroke:#000000;stroke-width:0.5" />
	<path
   d="m 47.158,64.745 c 0.569,0.752 1.007,1.214 1.533,1.79 l -2.583,0.957 c 0.025,-0.285 0.053,-1.416 -0.006,-2.356 -0.061,-1.005 -0.177,-1.897 -0.308,-2.453 0.265,0.505 0.755,1.258 1.364,2.062 z"
   inkscape:connector-curvature="0"
   id="path51" />
</g>
</svg>