<?xml version="1.0" encoding="UTF-8" standalone="no"?>
<!-- Created with Inkscape (http://www.inkscape.org/) -->

<svg
   xmlns:dc="http://purl.org/dc/elements/1.1/"
   xmlns:cc="http://creativecommons.org/ns#"
   xmlns:rdf="http://www.w3.org/1999/02/22-rdf-syntax-ns#"
   xmlns:svg="http://www.w3.org/2000/svg"
   xmlns="http://www.w3.org/2000/svg"
   xmlns:inkscape="http://www.inkscape.org/namespaces/inkscape"
   version="1.1"
   width="113.386"
   height="113.386"
   viewBox="0 0 113.386 113.386"
   id="Layer_1"
   xml:space="preserve"
   style="overflow:inherit"><metadata
   id="metadata37"><rdf:RDF><cc:Work
       rdf:about=""><dc:format>image/svg+xml</dc:format><dc:type
         rdf:resource="http://purl.org/dc/dcmitype/StillImage" /></cc:Work></rdf:RDF></metadata><defs
   id="defs35" />
<g
   id="g3">
	<polygon
   points="70.856,40.635 56.145,80.311 43.561,101.891 35.547,77.812 46.435,25.423 "
   id="polygon5"
   style="fill:#b9e5fb;stroke:#000000;stroke-linejoin:round" />
	<polygon
   points="70.856,40.635 59.163,74.51 29.099,55.136 19.295,7.386 "
   id="polygon7"
   style="fill:#b9e5fb;stroke:#000000;stroke-linecap:round;stroke-linejoin:round" />
	<g
   id="g9">
		<polygon
   points="51.905,62.285 34.977,78.215 48.091,25.352 "
   id="polygon11"
   style="fill:#b9e5fb;stroke:#000000;stroke-linejoin:round" />
		
			<line
   fill="none"
   stroke="#000000"
   stroke-linecap="round"
   stroke-linejoin="round"
   x1="47.998001"
   y1="25.771999"
   x2="29.777"
   y2="54.833"
   id="line13"
   style="fill:none;stroke:#000000;stroke-linecap:round;stroke-linejoin:round" />
	</g>
</g>
<g
   id="g15">
	<polygon
   points="68.64,40.65 56.012,81.037 44.565,103.244 35.313,79.615 43.456,26.727 "
   id="polygon17"
   style="fill:#b9e5fb;stroke:#000000;stroke-linejoin:round" />
	<polygon
   points="68.64,40.65 58.723,75.088 27.692,57.304 15.413,10.127 "
   id="polygon19"
   style="fill:#b9e5fb;stroke:#000000;stroke-linecap:round;stroke-linejoin:round" />
	<g
   id="g21">
		<polygon
   points="50.84,63.26 34.767,80.043 45.11,26.573 "
   id="polygon23"
   style="fill:#b9e5fb;stroke:#000000;stroke-linejoin:round" />
		
			<line
   fill="none"
   stroke="#000000"
   stroke-linecap="round"
   stroke-linejoin="round"
   x1="45.037998"
   y1="27"
   x2="28.353001"
   y2="56.965"
   id="line25"
   style="fill:none;stroke:#000000;stroke-linecap:round;stroke-linejoin:round" />
	</g>
</g>
<g
   id="g27">
	<path
   d="m 90.373,61.176 c 0,0 -37.03,0.295 -62.96,-30.357"
   inkscape:connector-curvature="0"
   id="path29"
   style="fill:none;stroke:#000000;stroke-width:0.5" />
	<path
   d="M 90.528,59.816 C 87.723,59.015 85.91,58.28 83.667,57.41 l -0.18,8.302 c 0.824,-0.377 4.126,-1.668 6.968,-2.506 3.033,-0.902 5.79,-1.527 7.564,-1.758 -1.765,-0.2 -4.498,-0.772 -7.491,-1.632 z"
   inkscape:connector-curvature="0"
   id="path31" />
</g>
</svg>