<?xml version="1.0" encoding="UTF-8" standalone="no"?>
<!-- Created with Inkscape (http://www.inkscape.org/) -->

<svg
   xmlns:dc="http://purl.org/dc/elements/1.1/"
   xmlns:cc="http://creativecommons.org/ns#"
   xmlns:rdf="http://www.w3.org/1999/02/22-rdf-syntax-ns#"
   xmlns:svg="http://www.w3.org/2000/svg"
   xmlns="http://www.w3.org/2000/svg"
   xmlns:sodipodi="http://sodipodi.sourceforge.net/DTD/sodipodi-0.dtd"
   xmlns:inkscape="http://www.inkscape.org/namespaces/inkscape"
   version="1.1"
   width="113.386"
   height="113.386"
   viewBox="0 0 113.386 113.386"
   id="Layer_1"
   xml:space="preserve"
   style="overflow:inherit"
   inkscape:version="0.48.3.1 r"
   sodipodi:docname="step5.svg"><sodipodi:namedview
   pagecolor="#ffffff"
   bordercolor="#666666"
   borderopacity="1"
   objecttolerance="10"
   gridtolerance="10"
   guidetolerance="10"
   inkscape:pageopacity="0"
   inkscape:pageshadow="2"
   inkscape:window-width="1024"
   inkscape:window-height="691"
   id="namedview34"
   showgrid="false"
   inkscape:zoom="2.0813857"
   inkscape:cx="56.693001"
   inkscape:cy="56.693001"
   inkscape:window-x="0"
   inkscape:window-y="24"
   inkscape:window-maximized="1"
   inkscape:current-layer="Layer_1" /><metadata
   id="metadata65"><rdf:RDF><cc:Work
       rdf:about=""><dc:format>image/svg+xml</dc:format><dc:type
         rdf:resource="http://purl.org/dc/dcmitype/StillImage" /></cc:Work></rdf:RDF></metadata><defs
   id="defs63">
	
	
	
	
</defs>








<g
   id="g3015"><g
     id="g3">
	<line
   style="fill:none;stroke:#000000;stroke-width:3"
   id="line5"
   y2="79.162003"
   x2="97.769997"
   y1="79.162003"
   x1="85.328003"
   stroke-width="3"
   stroke="#000000"
   fill="none" />
	<path
   id="path7"
   inkscape:connector-curvature="0"
   d="m 100.769,77.604 c -2.101,-0.762 -3.467,-1.462 -5.156,-2.273 v 7.686 c 0.604,-0.345 3.056,-1.512 5.156,-2.273 2.254,-0.813 4.294,-1.369 5.617,-1.571 -1.324,-0.202 -3.364,-0.755 -5.617,-1.569 z" />
</g><rect
     style="fill:#b9e5fb;stroke:#000000"
     id="rect9"
     transform="matrix(0.7071,0.7071,-0.7071,0.7071,58.9491,-27.2513)"
     y="32.966"
     x="37.804001"
     height="49.130001"
     width="49.131001" /><g
     id="g11">
	<line
   style="fill:none;stroke:#9d9fa2;stroke-width:0.5"
   id="line13"
   y2="40.699001"
   x2="79.332001"
   y1="74.365997"
   x1="45.665001"
   stroke-width="0.5"
   stroke="#9D9FA2"
   fill="none" />
	<line
   style="fill:none;stroke:#9d9fa2;stroke-width:0.5"
   id="line15"
   y2="74.364998"
   x2="79.332001"
   y1="40.698002"
   x1="45.665001"
   stroke-width="0.5"
   stroke="#9D9FA2"
   fill="none" />
</g><ellipse
     cx="25.114"
     cy="22.858999"
     rx="4.1960001"
     ry="5.487"
     id="ellipse19"
     style="fill:none;stroke:#000000"
     sodipodi:cx="25.114"
     sodipodi:cy="22.858999"
     sodipodi:rx="4.1960001"
     sodipodi:ry="5.487" /><path
     d="M 5.404,26.121 C 10.732,19.92 16.918,16.442 26.015,17.387"
     inkscape:connector-curvature="0"
     id="path21"
     style="fill:none;stroke:#000000" /><path
     d="M 42.596,23.861 C 37.735,19.096 32.02,16.563 24.094,17.386"
     inkscape:connector-curvature="0"
     id="path23"
     style="fill:none;stroke:#000000" /><path
     d="M 43.844,24.44 C 43.368,23.308 43.13,22.51 42.821,21.542 l -2.763,2.292 c 0.339,0.158 1.633,0.864 2.659,1.543 1.096,0.727 2.024,1.439 2.568,1.949 -0.4,-0.629 -0.929,-1.674 -1.441,-2.886 z"
     inkscape:connector-curvature="0"
     id="path25" /><g
     id="g27">
	<line
   style="fill:none;stroke:#000000;stroke-dasharray:4, 4, 4"
   id="line29"
   y2="74.470001"
   x2="45.062"
   y1="40.459"
   x1="45.062"
   stroke-dasharray="4,4,4"
   stroke="#000000"
   fill="none" />
	<line
   style="fill:none;stroke:#000000;stroke-dasharray:4, 4, 4"
   id="line31"
   y2="74.470001"
   x2="79.773003"
   y1="40.459"
   x1="79.773003"
   stroke-dasharray="4,4,4"
   stroke="#000000"
   fill="none" />
	<line
   style="fill:none;stroke:#000000;stroke-dasharray:4, 4, 4"
   id="line33"
   y2="74.82"
   x2="79.424004"
   y1="74.82"
   x1="45.412998"
   stroke-dasharray="4,4,4"
   stroke="#000000"
   fill="none" />
	<line
   style="fill:none;stroke:#000000;stroke-dasharray:4, 4, 4"
   id="line35"
   y2="40.109001"
   x2="79.425003"
   y1="40.108002"
   x1="45.412998"
   stroke-dasharray="4,4,4"
   stroke="#000000"
   fill="none" />
</g><g
     id="g37">
	<path
   style="fill:none;stroke:#000000;stroke-width:0.5"
   id="path39"
   inkscape:connector-curvature="0"
   d="m 61.028,64.513 c 0,0 -5.327,11.588 0.873,24.511" />
	<path
   id="path41"
   inkscape:connector-curvature="0"
   d="m 61.753,63.745 c -0.089,0.642 -0.101,1.081 -0.125,1.617 l -1.723,-0.791 c 0.152,-0.128 0.716,-0.665 1.144,-1.149 0.46,-0.52 0.839,-1.01 1.044,-1.344 -0.116,0.373 -0.245,0.98 -0.34,1.667 z" />
</g><g
     id="g43">
	<path
   style="fill:none;stroke:#000000;stroke-width:0.5"
   id="path45"
   inkscape:connector-curvature="0"
   d="m 55.83,57.377 c 0,0 -11.587,-5.326 -24.511,0.873" />
	<path
   id="path47"
   inkscape:connector-curvature="0"
   d="m 56.598,58.103 c -0.642,-0.089 -1.08,-0.101 -1.616,-0.125 l 0.791,-1.723 c 0.127,0.151 0.663,0.715 1.149,1.144 0.519,0.46 1.01,0.837 1.344,1.043 -0.375,-0.117 -0.98,-0.246 -1.668,-0.339 z" />
</g><g
     id="g49">
	<path
   style="fill:none;stroke:#000000;stroke-width:0.5"
   id="path51"
   inkscape:connector-curvature="0"
   d="m 63.96,51.848 c 0,0 5.325,-11.588 -0.874,-24.511" />
	<path
   id="path53"
   inkscape:connector-curvature="0"
   d="m 63.233,52.616 c 0.09,-0.643 0.101,-1.08 0.125,-1.617 l 1.723,0.792 c -0.151,0.126 -0.715,0.663 -1.144,1.149 -0.46,0.518 -0.837,1.009 -1.043,1.344 0.117,-0.375 0.246,-0.98 0.339,-1.668 z" />
</g><g
     id="g55">
	<path
   style="fill:none;stroke:#000000;stroke-width:0.5"
   id="path57"
   inkscape:connector-curvature="0"
   d="m 68.66,60.143 c 0,0 11.588,5.326 24.511,-0.873" />
	<path
   id="path59"
   inkscape:connector-curvature="0"
   d="m 67.892,59.418 c 0.644,0.089 1.081,0.1 1.618,0.125 l -0.791,1.723 c -0.127,-0.152 -0.664,-0.715 -1.15,-1.145 -0.518,-0.459 -1.009,-0.837 -1.343,-1.043 0.375,0.117 0.978,0.244 1.666,0.34 z" />
</g></g>
</svg>