<?xml version="1.0" encoding="UTF-8" standalone="no"?>
<!-- Created with Inkscape (http://www.inkscape.org/) -->

<svg
   xmlns:dc="http://purl.org/dc/elements/1.1/"
   xmlns:cc="http://creativecommons.org/ns#"
   xmlns:rdf="http://www.w3.org/1999/02/22-rdf-syntax-ns#"
   xmlns:svg="http://www.w3.org/2000/svg"
   xmlns="http://www.w3.org/2000/svg"
   xmlns:inkscape="http://www.inkscape.org/namespaces/inkscape"
   version="1.1"
   width="113.386"
   height="113.386"
   viewBox="0 0 113.386 113.386"
   id="Layer_1"
   xml:space="preserve"
   style="overflow:inherit"><metadata
   id="metadata23"><rdf:RDF><cc:Work
       rdf:about=""><dc:format>image/svg+xml</dc:format><dc:type
         rdf:resource="http://purl.org/dc/dcmitype/StillImage" /></cc:Work></rdf:RDF></metadata><defs
   id="defs21" />
<polygon
   points="34.544,39.344 34.544,89.893 47.941,77.301 59.896,39.179 "
   id="polygon3"
   style="fill:#b9e5fb;stroke:#000000;stroke-linejoin:round" />
<polygon
   points="34.696,39.088 34.696,65.023 59.896,65.023 87.07,39.088 "
   id="polygon5"
   style="fill:#b9e5fb;stroke:#000000;stroke-linecap:round;stroke-linejoin:round" />
<polygon
   points="33.092,38.374 33.092,88.924 46.489,76.332 58.443,38.208 "
   id="polygon7"
   style="fill:#b9e5fb;stroke:#000000;stroke-linejoin:round" />
<polygon
   points="33.243,38.12 33.243,64.055 58.443,64.055 85.615,38.12 "
   id="polygon9"
   style="fill:#b9e5fb;stroke:#000000;stroke-linecap:round;stroke-linejoin:round" />
<line
   fill="none"
   stroke="#000000"
   stroke-dasharray="4,4,4"
   x1="52.991001"
   y1="4.559"
   x2="25.518"
   y2="103.354"
   id="line11"
   style="fill:none;stroke:#000000;stroke-dasharray:4, 4, 4" />
<g
   id="g13">
	<path
   d="m 29.908,19.324 c 0,0 19.675,9.713 25.229,32.836"
   inkscape:connector-curvature="0"
   id="path15"
   style="fill:none;stroke:#000000;stroke-width:0.5" />
	<path
   d="m 29.465,20.006 c 1.272,1.171 2.033,2.043 2.989,3.101 l 2.305,-4.344 c -0.533,-0.021 -2.624,-0.221 -4.352,-0.531 -1.843,-0.33 -3.47,-0.734 -4.47,-1.085 0.881,0.575 2.173,1.605 3.528,2.859 z"
   inkscape:connector-curvature="0"
   id="path17" />
</g>
</svg>