<?xml version="1.0" encoding="UTF-8" standalone="no"?>
<!-- Generator: Adobe Illustrator 15.0.0, SVG Export Plug-In . SVG Version: 6.00 Build 0)  -->
<svg id="Layer_1" xmlns:rdf="http://www.w3.org/1999/02/22-rdf-syntax-ns#" xmlns="http://www.w3.org/2000/svg" xml:space="preserve" overflow="inherit" height="113.39px" viewBox="0 0 113.386 113.386" width="113.39px" version="1.1" y="0px" x="0px" xmlns:cc="http://creativecommons.org/ns#" xmlns:dc="http://purl.org/dc/elements/1.1/"><metadata id="metadata53"><rdf:RDF><cc:Work rdf:about=""><dc:format>image/svg+xml</dc:format><dc:type rdf:resource="http://purl.org/dc/dcmitype/StillImage"/><dc:title/></cc:Work></rdf:RDF></metadata>
<g id="g3">
	<line id="line5" y2="56.311" stroke-width="3" x2="99.686" stroke="#000" y1="56.311" x1="86.002" fill="none"/>
	<path id="path7" d="M102.99,54.598c-2.311-0.838-3.814-1.609-5.672-2.503v8.455c0.664-0.38,3.361-1.662,5.672-2.5,2.479-0.896,4.723-1.508,6.178-1.729-1.46-0.221-3.71-0.829-6.18-1.723z"/>
</g>
<line id="line13" y2="17.639" x1="3.903" x2="79.998" stroke="#BCBEC0" y1="93.734" stroke-width="0.5" fill="none"/>
<line id="line15" y2="93.734" x1="3.903" x2="79.998" stroke="#BCBEC0" y1="17.639" stroke-width="0.5" fill="#800000"/>
<g id="g17" stroke="#BCBEC0" stroke-width="0.5" fill="none">
	<line id="line19" y2="94.157" x2="41.08" y1="56.471" x1="3.393"/>
	<line id="line21" y2="55.693" x2="79.543" y1="18.007" x1="41.856"/>
	<line id="line23" y2="56.471" x2="79.543" y1="94.157" x1="41.856"/>
	<line id="line25" y2="18.007" x2="41.08" y1="55.693" x1="3.393"/>
</g>
<rect id="rect47" height="76.558" width="76.557" stroke="#000" y="17.961" x="3.494" fill="#FFF"/>
<path id="path3095" stroke-linejoin="miter" d="m3.8,18.286,76,76" stroke="#bcbec0" stroke-linecap="butt" stroke-miterlimit="4" stroke-dasharray="none" stroke-width="0.5" fill="#FFF"/><path id="path3895" stroke-linejoin="miter" d="m79.7,18.186-75.9,76.1" stroke="#bcbec0" stroke-linecap="butt" stroke-miterlimit="4" stroke-dasharray="none" stroke-width="0.5" fill="#FFF"/><path id="path3899" stroke-linejoin="miter" d="m3.6,55.786,37.6-37.7,38.3,37.7-38.3,38.6z" stroke="#bcbec0" stroke-linecap="butt" stroke-miterlimit="4" stroke-dasharray="none" stroke-width="0.5" fill="none"/><g id="g3071"><g id="g3055"><line id="line9" y2="17.479" x1="41.243" x2="41.243" stroke="#BCBEC0" y1="94.255" stroke-width="0.5" fill="none"/><line id="line11" y2="55.865" x1="2.852" x2="79.631" stroke="#BCBEC0" y1="55.865" stroke-width="0.5" fill="none"/><line id="line31" y2="74.839" x1="3.032" x2="79.75" stroke="#BCBEC0" y1="74.839" stroke-width="0.5" fill="none"/><line id="line33" y2="36.655" x1="3.032" x2="79.752" stroke="#BCBEC0" y1="36.654" stroke-width="0.5" fill="none"/><g id="g35">
	<path id="path37" stroke="#000" stroke-width="0.5" fill="none" d="M36.685,46.245s-15.051-6.917-31.835,1.135"/>
	<path id="path39" d="M36.472,46.842c-1.308-0.181-2.195-0.204-3.287-0.254l1.608-3.5c0.258,0.308,1.347,1.452,2.335,2.325,1.054,0.932,2.051,1.699,2.729,2.12-0.761-0.238-1.989-0.501-3.385-0.691z"/>
</g><g id="g41">
	<path id="path43" stroke="#000" stroke-width="0.5" fill="none" d="M45.953,46.245s15.051-6.917,31.834,1.135"/>
	<path id="path45" d="M46.167,46.842c1.307-0.181,2.194-0.204,3.286-0.254l-1.608-3.5c-0.257,0.308-1.347,1.452-2.335,2.325-1.054,0.932-2.051,1.699-2.729,2.12,0.761-0.238,1.989-0.501,3.386-0.691z"/>
</g></g><g id="g3067" stroke="#000" stroke-dasharray="4,4,4" fill="none"><line id="line27" y2="94.773" x2="21.956" y1="17.73" x1="21.956"/><line id="line29" y2="94.773" x2="60.139" y1="17.73" x1="60.139"/></g></g></svg>
