<?xml version="1.0" encoding="UTF-8" standalone="no"?>
<!-- Created with Inkscape (http://www.inkscape.org/) -->

<svg
   xmlns:dc="http://purl.org/dc/elements/1.1/"
   xmlns:cc="http://creativecommons.org/ns#"
   xmlns:rdf="http://www.w3.org/1999/02/22-rdf-syntax-ns#"
   xmlns:svg="http://www.w3.org/2000/svg"
   xmlns="http://www.w3.org/2000/svg"
   xmlns:inkscape="http://www.inkscape.org/namespaces/inkscape"
   version="1.1"
   width="127.559"
   height="127.56"
   viewBox="0 0 127.559 127.56"
   id="Layer_1"
   xml:space="preserve"
   style="overflow:inherit"><metadata
   id="metadata29"><rdf:RDF><cc:Work
       rdf:about=""><dc:format>image/svg+xml</dc:format><dc:type
         rdf:resource="http://purl.org/dc/dcmitype/StillImage" /></cc:Work></rdf:RDF></metadata><defs
   id="defs27" />
<polygon
   points="6.748,60.004 62.17,8.396 117.59,60.004 62.17,119.237 "
   id="polygon3"
   style="fill:#ffffff;stroke:#000000" />
<rect
   width="78.377998"
   height="78.377998"
   x="24.025"
   y="20.816"
   transform="matrix(0.7071,0.7071,-0.7071,0.7071,60.943,-27.1244)"
   id="rect5"
   style="fill:#ffffff;stroke:#000000" />
<line
   fill="none"
   stroke="#000000"
   x1="119.345"
   y1="60.089001"
   x2="8.1260004"
   y2="60.089001"
   id="line7"
   style="fill:none;stroke:#000000" />
<line
   fill="none"
   stroke="#000000"
   x1="63.214001"
   y1="115.425"
   x2="63.214001"
   y2="60.334999"
   id="line9"
   style="fill:none;stroke:#000000" />
<line
   fill="none"
   stroke="#BCBEC0"
   stroke-width="0.5"
   x1="63.214001"
   y1="59.411999"
   x2="63.214001"
   y2="4.322"
   id="line11"
   style="fill:none;stroke:#bcbec0;stroke-width:0.5" />
<line
   fill="none"
   stroke="#000000"
   stroke-dasharray="4,4,4"
   x1="62.404999"
   y1="114.612"
   x2="30.740999"
   y2="37.279999"
   id="line13"
   style="fill:none;stroke:#000000;stroke-dasharray:4, 4, 4" />
<line
   fill="none"
   stroke="#000000"
   stroke-dasharray="4,4,4"
   x1="63.169998"
   y1="114.612"
   x2="95.385002"
   y2="38.183998"
   id="line15"
   style="fill:none;stroke:#000000;stroke-dasharray:4, 4, 4" />
<path
   d="m 71.109,41.057 c 0,0 21.565,-2.873 40.551,15.662"
   inkscape:connector-curvature="0"
   id="path17"
   style="fill:none;stroke:#000000;stroke-width:0.5" />
<path
   d="m 68.533,41.874 c 1.564,0.517 2.576,0.98 3.828,1.527 l 0.158,-4.88 c -0.46,0.211 -2.326,0.909 -3.922,1.357 -1.705,0.482 -3.254,0.804 -4.252,0.906 0.988,0.152 2.514,0.534 4.188,1.09 z"
   inkscape:connector-curvature="0"
   id="path19" />
<path
   d="m 54.716,41.057 c 0,0 -21.565,-2.873 -40.551,15.662"
   inkscape:connector-curvature="0"
   id="path21"
   style="fill:none;stroke:#000000;stroke-width:0.5" />
<path
   d="m 57.292,41.874 c -1.564,0.517 -2.576,0.98 -3.827,1.527 l -0.16,-4.88 c 0.461,0.211 2.327,0.909 3.923,1.357 1.706,0.482 3.254,0.804 4.252,0.906 -0.988,0.152 -2.514,0.534 -4.188,1.09 z"
   inkscape:connector-curvature="0"
   id="path23" />
</svg>