<?xml version="1.0" encoding="UTF-8" standalone="no"?>
<!-- Created with Inkscape (http://www.inkscape.org/) -->

<svg
   xmlns:dc="http://purl.org/dc/elements/1.1/"
   xmlns:cc="http://creativecommons.org/ns#"
   xmlns:rdf="http://www.w3.org/1999/02/22-rdf-syntax-ns#"
   xmlns:svg="http://www.w3.org/2000/svg"
   xmlns="http://www.w3.org/2000/svg"
   xmlns:inkscape="http://www.inkscape.org/namespaces/inkscape"
   version="1.1"
   width="127.559"
   height="127.56"
   viewBox="0 0 127.559 127.56"
   id="Layer_1"
   xml:space="preserve"
   style="overflow:inherit"><metadata
   id="metadata25"><rdf:RDF><cc:Work
       rdf:about=""><dc:format>image/svg+xml</dc:format><dc:type
         rdf:resource="http://purl.org/dc/dcmitype/StillImage" /></cc:Work></rdf:RDF></metadata><defs
   id="defs23" />
<rect
   width="67.181"
   height="67.181"
   x="17.254999"
   y="27.922001"
   transform="matrix(0.7071,0.7071,-0.7071,0.7071,58.3871,-17.9366)"
   id="rect3"
   style="fill:#b9e5fb;stroke:#000000;stroke-linecap:round;stroke-linejoin:round" />
<polyline
   fill="none"
   stroke="#000000"
   stroke-linecap="round"
   stroke-linejoin="round"
   points="50.845,109.016 23.011,42.034   78.805,42.034 50.845,109.016 "
   id="polyline5"
   style="fill:none;stroke:#000000;stroke-linecap:round;stroke-linejoin:round" />
<line
   fill="none"
   stroke="#000000"
   stroke-width="3"
   x1="94.651001"
   y1="82.157997"
   x2="111.416"
   y2="82.157997"
   id="line7"
   style="fill:none;stroke:#000000;stroke-width:3" />
<path
   d="m 115.461,80.059 c -2.834,-1.027 -4.676,-1.972 -6.949,-3.066 v 10.359 c 0.812,-0.464 4.115,-2.036 6.949,-3.062 3.035,-1.098 5.784,-1.848 7.57,-2.119 -1.785,-0.271 -4.534,-1.016 -7.57,-2.112 z"
   inkscape:connector-curvature="0"
   id="path9" />
<line
   fill="none"
   stroke="#000000"
   x1="50.763"
   y1="108.415"
   x2="50.763"
   y2="41.995998"
   id="line11"
   style="fill:none;stroke:#000000" />
<polygon
   points="50.845,14.009 78.805,42.034 23.011,42.034 "
   id="polygon13"
   style="fill:#ffffff;stroke:#000000;stroke-linecap:round;stroke-linejoin:round" />
<line
   fill="none"
   stroke="#000000"
   stroke-dasharray="4,4,4"
   x1="97.468002"
   y1="40.848"
   x2="7.4679999"
   y2="40.848"
   id="line15"
   style="fill:none;stroke:#000000;stroke-dasharray:4, 4, 4" />
<path
   d="m 56.733,57.653 c 0,0 6.9,-17.036 -3.445,-37.1"
   inkscape:connector-curvature="0"
   id="path17"
   style="fill:none;stroke:#000000;stroke-width:0.5" />
<path
   d="M 55.539,59.574 C 55.475,58.164 55.332,57.22 55.176,56.06 l 3.839,1.043 c -0.264,0.328 -1.212,1.693 -1.906,2.898 -0.745,1.285 -1.33,2.48 -1.626,3.276 0.096,-0.847 0.128,-2.193 0.056,-3.703 z"
   inkscape:connector-curvature="0"
   id="path19" />
</svg>