<?xml version="1.0" encoding="UTF-8" standalone="no"?>
<!-- Created with Inkscape (http://www.inkscape.org/) -->

<svg
   xmlns:dc="http://purl.org/dc/elements/1.1/"
   xmlns:cc="http://creativecommons.org/ns#"
   xmlns:rdf="http://www.w3.org/1999/02/22-rdf-syntax-ns#"
   xmlns:svg="http://www.w3.org/2000/svg"
   xmlns="http://www.w3.org/2000/svg"
   xmlns:inkscape="http://www.inkscape.org/namespaces/inkscape"
   version="1.1"
   width="127.559"
   height="127.56"
   viewBox="0 0 127.559 127.56"
   id="Layer_1"
   xml:space="preserve"
   style="overflow:inherit"><metadata
   id="metadata17"><rdf:RDF><cc:Work
       rdf:about=""><dc:format>image/svg+xml</dc:format><dc:type
         rdf:resource="http://purl.org/dc/dcmitype/StillImage" /></cc:Work></rdf:RDF></metadata><defs
   id="defs15" />
<polygon
   points="6.889,59.967 62.312,8.359 117.731,59.967 62.312,119.2 "
   id="polygon3"
   style="fill:#ffffff;stroke:#000000" />
<rect
   width="78.377998"
   height="78.377998"
   x="24.167"
   y="20.778"
   transform="matrix(0.7071,0.7071,-0.7071,0.7071,60.9577,-27.2354)"
   id="rect5"
   style="fill:#b9e5fb;stroke:#000000" />
<line
   fill="none"
   stroke="#000000"
   stroke-dasharray="4,4,4"
   x1="119.488"
   y1="60.051998"
   x2="8.2679996"
   y2="60.051998"
   id="line7"
   style="fill:none;stroke:#000000;stroke-dasharray:4, 4, 4" />
<path
   d="m 68.43,25.166 c 0,0 15.61,37.909 -6.486,78.41"
   inkscape:connector-curvature="0"
   id="path9"
   style="fill:none;stroke:#000000;stroke-width:0.5" />
<path
   d="m 66.182,22.598 c 0.194,2.071 0.167,3.477 0.167,5.199 l 5.725,-2.282 c -0.477,-0.428 -2.228,-2.231 -3.553,-3.852 -1.42,-1.728 -2.574,-3.356 -3.197,-4.458 0.326,1.218 0.653,3.176 0.858,5.393 z"
   inkscape:connector-curvature="0"
   id="path11" />
</svg>