<?xml version="1.0" encoding="UTF-8" standalone="no"?>
<!-- Created with Inkscape (http://www.inkscape.org/) -->
<svg id="Layer_1" xmlns:rdf="http://www.w3.org/1999/02/22-rdf-syntax-ns#" xmlns="http://www.w3.org/2000/svg" xml:space="preserve" height="127.56" width="127.56" version="1.1" xmlns:cc="http://creativecommons.org/ns#" xmlns:dc="http://purl.org/dc/elements/1.1/" viewBox="0 0 127.559 127.56"><metadata id="metadata29"><rdf:RDF><cc:Work rdf:about=""><dc:format>image/svg+xml</dc:format><dc:type rdf:resource="http://purl.org/dc/dcmitype/StillImage"/><dc:title/></cc:Work></rdf:RDF></metadata>
<ellipse id="ellipse3" rx="4.377" ry="5.724" stroke="#000" cy="26.041" cx="28.24" fill="none"/>
<path id="path5" d="m7.68,29.442c5.558-6.468,12.009-10.096,21.5-9.109" stroke="#000" fill="none"/>
<path id="path7" d="m46.475,27.085c-5.071-4.97-11.032-7.612-19.3-6.753" stroke="#000" fill="none"/>
<path id="path9" d="M47.777,27.69c-0.496-1.182-0.745-2.014-1.067-3.022l-2.882,2.389c0.354,0.167,1.703,0.902,2.773,1.611,1.143,0.759,2.112,1.5,2.68,2.033-0.417-0.658-0.969-1.747-1.504-3.011z"/>
<line id="line11" y2="96.626" x1="91.971" x2="107.34" stroke="#000" y1="96.626" stroke-width="3" fill="none"/>
<path id="path13" d="m111.05,94.7c-2.597-0.939-4.286-1.807-6.37-2.809v9.496c0.746-0.426,3.773-1.867,6.37-2.809,2.782-1.006,5.303-1.693,6.939-1.941-1.636-0.247-4.156-0.931-6.939-1.937z"/>
<polygon id="polygon15" points="24.49,62.375,68.036,21.826,111.58,62.375,68.036,108.92" stroke="#000" fill="#FFF"/>
<rect id="rect17" transform="matrix(0.7071,0.7071,-0.7071,0.7071,64.2725,-30.4197)" height="61.583" width="61.584" stroke="#000" y="31.584" x="38.065" fill="#b9e5fb"/>
<line id="line19" y2="62.442" x2="25.572" stroke="#000" stroke-dasharray="4, 4, 4" y1="62.442" x1="112.96" fill="none"/>
<path id="path21" d="m72.842,35.032s12.266,29.785-5.097,61.608" stroke="#000" stroke-width="0.5" fill="none"/>
<path id="path23" d="m71.076,33.014c0.153,1.627,0.132,2.731,0.132,4.085l4.498-1.793c-0.373-0.336-1.751-1.753-2.79-3.026-1.117-1.357-2.024-2.637-2.514-3.503,0.258,0.957,0.513,2.496,0.674,4.237z"/>
</svg>
