<?xml version="1.0" encoding="UTF-8" standalone="no"?>
<!-- Created with Inkscape (http://www.inkscape.org/) -->
<svg id="Layer_1" xmlns:rdf="http://www.w3.org/1999/02/22-rdf-syntax-ns#" xmlns="http://www.w3.org/2000/svg" xml:space="preserve" height="127.56" width="127.56" version="1.1" xmlns:cc="http://creativecommons.org/ns#" xmlns:dc="http://purl.org/dc/elements/1.1/" viewBox="0 0 127.559 127.56"><metadata id="metadata23"><rdf:RDF><cc:Work rdf:about=""><dc:format>image/svg+xml</dc:format><dc:type rdf:resource="http://purl.org/dc/dcmitype/StillImage"/><dc:title/></cc:Work></rdf:RDF></metadata>
<g id="g2990" transform="matrix(-1,0,0,1,125.417,0)"><polyline id="polyline3" stroke-linejoin="round" stroke-linecap="round" stroke="#000" points="17.696,77.563,41.096,36.938,60.92,24.589,81.396,39.864" fill="#b9e5fb"/><polyline id="polyline5" stroke-linejoin="round" stroke-linecap="round" stroke="#000" points="90.06,31.822,107.72,49.289,102.52,95.113" fill="#b9e5fb"/><line id="line7" stroke-linejoin="round" x1="18.996" y1="88.938" stroke="#000" stroke-linecap="round" x2="34.921" y2="68.139" fill="none"/><polygon id="polygon9" stroke-linejoin="round" stroke-linecap="round" stroke="#000" points="71.646,46.364,90.06,31.822,100.65,68.904,17.696,77.563" fill="#b9e5fb"/><polygon id="polygon11" stroke-linejoin="round" stroke-linecap="round" stroke="#000" points="80.746,98.688,18.996,88.938,100.65,68.904,102.52,95.113" fill="#b9e5fb"/><polygon id="polygon13" stroke-linejoin="round" stroke-linecap="round" stroke="#000" points="102.52,95.113,101.87,67.164,90.06,31.822,76.196,73.014" fill="#b9e5fb"/><line id="line15" stroke-linejoin="round" x1="107.72" y1="49.289" stroke="#000" stroke-linecap="round" x2="97.971" y2="55.789" fill="none"/><path id="path17" stroke-linejoin="round" d="m70.67,45.389s-20.475,2.275-24.05-1.95" stroke="#bcbec0" stroke-linecap="round" fill="none"/><path id="path2992" stroke-linejoin="miter" d="m18.728,88.767,9.9371-11.848,47.584-5.5419-0.7644,1.7199,1.5288,1.5288-57.33,13.95z" stroke="#000" stroke-linecap="butt" stroke-width="1px" fill="#FFF"/></g></svg>
