<?xml version="1.0" encoding="UTF-8" standalone="no"?>
<!-- Created with Inkscape (http://www.inkscape.org/) -->

<svg
   xmlns:dc="http://purl.org/dc/elements/1.1/"
   xmlns:cc="http://creativecommons.org/ns#"
   xmlns:rdf="http://www.w3.org/1999/02/22-rdf-syntax-ns#"
   xmlns:svg="http://www.w3.org/2000/svg"
   xmlns="http://www.w3.org/2000/svg"
   xmlns:inkscape="http://www.inkscape.org/namespaces/inkscape"
   version="1.1"
   width="127.559"
   height="127.56"
   viewBox="0 0 127.559 127.56"
   id="Layer_1"
   xml:space="preserve"
   style="overflow:inherit"><metadata
   id="metadata23"><rdf:RDF><cc:Work
       rdf:about=""><dc:format>image/svg+xml</dc:format><dc:type
         rdf:resource="http://purl.org/dc/dcmitype/StillImage" /></cc:Work></rdf:RDF></metadata><defs
   id="defs21" />
<polyline
   fill="#B9E5FB"
   stroke="#000000"
   stroke-linecap="round"
   stroke-linejoin="round"
   points="53.919,112.974 23.766,40.411   84.208,40.411 53.919,112.974 "
   id="polyline3"
   style="fill:#b9e5fb;stroke:#000000;stroke-linecap:round;stroke-linejoin:round" />
<line
   fill="none"
   stroke="#000000"
   stroke-width="3"
   x1="88.808998"
   y1="83.877998"
   x2="106.971"
   y2="83.877998"
   id="line5"
   style="fill:none;stroke:#000000;stroke-width:3" />
<path
   d="m 111.353,81.604 c -3.069,-1.112 -5.065,-2.136 -7.528,-3.321 v 11.223 c 0.881,-0.503 4.459,-2.206 7.528,-3.318 3.288,-1.188 6.267,-2.001 8.201,-2.296 -1.934,-0.293 -4.913,-1.1 -8.201,-2.288 z"
   inkscape:connector-curvature="0"
   id="path7" />
<line
   fill="none"
   stroke="#000000"
   x1="53.831001"
   y1="112.323"
   x2="53.831001"
   y2="40.368999"
   id="line9"
   style="fill:none;stroke:#000000" />
<polygon
   points="53.919,10.05 84.208,40.411 23.766,40.411 "
   id="polygon11"
   style="fill:#ffffff;stroke:#000000;stroke-linecap:round;stroke-linejoin:round" />
<line
   fill="none"
   stroke="#000000"
   stroke-dasharray="4,4,4"
   x1="104.429"
   y1="39.125"
   x2="6.9260001"
   y2="39.125"
   id="line13"
   style="fill:none;stroke:#000000;stroke-dasharray:4, 4, 4" />
<path
   d="m 60.297,57.331 c 0,0 7.476,-18.455 -3.732,-40.19"
   inkscape:connector-curvature="0"
   id="path15"
   style="fill:none;stroke:#000000;stroke-width:0.5" />
<path
   d="m 59.005,59.412 c -0.071,-1.527 -0.226,-2.549 -0.394,-3.806 l 4.156,1.13 c -0.284,0.355 -1.312,1.834 -2.064,3.139 -0.807,1.394 -1.439,2.688 -1.762,3.55 0.107,-0.919 0.141,-2.376 0.064,-4.013 z"
   inkscape:connector-curvature="0"
   id="path17" />
</svg>