<?xml version="1.0" encoding="UTF-8" standalone="no"?>
<!-- Created with Inkscape (http://www.inkscape.org/) -->
<svg id="Layer_1" xmlns:rdf="http://www.w3.org/1999/02/22-rdf-syntax-ns#" xmlns="http://www.w3.org/2000/svg" xml:space="preserve" height="155.91" width="127.56" version="1.1" xmlns:cc="http://creativecommons.org/ns#" xmlns:dc="http://purl.org/dc/elements/1.1/" viewBox="0 0 127.559 155.906"><metadata id="metadata29"><rdf:RDF><cc:Work rdf:about=""><dc:format>image/svg+xml</dc:format><dc:type rdf:resource="http://purl.org/dc/dcmitype/StillImage"/><dc:title/></cc:Work></rdf:RDF></metadata>
<polygon id="polygon11" stroke-linejoin="round" stroke="#000" points="9.686,136.54,9.686,76.142,63.419,22.847,116.3,76.142,116.3,136.54" fill="#FFF"/>
<polygon id="polygon13" stroke-linejoin="round" stroke="#000" points="63.04,22.039,116.26,75.334,8.97,75.334" fill="#b9e5fb"/>
<line id="line15" stroke-linejoin="round" x1="63.148" y2="136.67" x2="63.148" stroke="#9d9fa2" y1="76.513" stroke-width="0.5" fill="none"/>
<polygon id="polygon17" stroke-linejoin="round" stroke-linecap="round" stroke="#000" points="37.092,47.326,61.778,21.704,62.67,74.73" fill="#b9e5fb"/>
<polygon id="polygon19" stroke-linejoin="round" stroke-linecap="round" stroke="#000" points="88.961,47.548,64.273,21.927,63.382,74.952" fill="#b9e5fb"/>
<line id="line21" y2="47.925" x2="37.85" stroke="#000" stroke-dasharray="4, 4, 4" y1="137.24" x1="37.85" fill="none"/>
<line id="line23" y2="47.925" x2="88.549" stroke="#000" stroke-dasharray="4, 4, 4" y1="137.24" x1="88.549" fill="none"/>
<g id="g2993"><path id="path7" d="m72.764,93.403s19.939-7.807,41.004,3.836" stroke="#000" stroke-width="0.5" fill="none"/><path id="path9" d="m70.891,95.325c1.482-0.119,2.486-0.088,3.719-0.074l-1.584-4.045c-0.312,0.33-1.613,1.549-2.781,2.465-1.248,0.984-2.422,1.783-3.215,2.213,0.875-0.221,2.275-0.432,3.861-0.559z"/></g><g id="g2997"><path id="path3" d="m53.432,93.403s-19.939-7.807-41.002,3.836" stroke="#000" stroke-width="0.5" fill="none"/><path id="path5" d="m55.306,95.325c-1.483-0.119-2.487-0.088-3.719-0.074l1.584-4.045c0.312,0.33,1.612,1.549,2.781,2.465,1.248,0.984,2.422,1.783,3.215,2.213-0.874-0.221-2.276-0.432-3.861-0.559z"/></g></svg>
