<?xml version="1.0" encoding="UTF-8" standalone="no"?>
<!-- Created with Inkscape (http://www.inkscape.org/) -->
<svg id="Layer_1" xmlns:rdf="http://www.w3.org/1999/02/22-rdf-syntax-ns#" xmlns="http://www.w3.org/2000/svg" xml:space="preserve" height="154.29" width="107.14" version="1.1" xmlns:cc="http://creativecommons.org/ns#" xmlns:dc="http://purl.org/dc/elements/1.1/" viewBox="0 0 107.143 154.286"><metadata id="metadata17"><rdf:RDF><cc:Work rdf:about=""><dc:format>image/svg+xml</dc:format><dc:type rdf:resource="http://purl.org/dc/dcmitype/StillImage"/><dc:title/></cc:Work></rdf:RDF></metadata>
<rect id="rect5" height="129.74" width="82.013" stroke="#000" y="14.088" x="12.162" fill="#FFF"/>
<path id="path7" d="m19.092,71.501s33.181-16.192,70.999,0.883" stroke="#000" stroke-width="0.5" fill="none"/>
<path id="path9" d="m17.867,72.934c1.248-0.203,2.103-0.245,3.147-0.319l-1.621-3.321c-0.241,0.3-1.262,1.425-2.189,2.283-0.993,0.921-1.933,1.676-2.575,2.097,0.727-0.249,1.9-0.524,3.238-0.74z"/>
<path id="path11" d="m89.535,73.231c-1.316-0.267-2.225-0.354-3.33-0.483l1.896-3.232c0.24,0.312,1.268,1.489,2.209,2.395,1.008,0.972,1.967,1.775,2.629,2.229-0.76-0.287-1.994-0.622-3.404-0.909z"/>
<line id="line3" y2="13.998" x2="53.006" stroke="#000" stroke-dasharray="4, 4, 4" y1="142.58" x1="53.006" fill="none"/></svg>
