<?xml version="1.0" encoding="UTF-8" standalone="no"?>
<!-- Created with Inkscape (http://www.inkscape.org/) -->

<svg
   xmlns:dc="http://purl.org/dc/elements/1.1/"
   xmlns:cc="http://creativecommons.org/ns#"
   xmlns:rdf="http://www.w3.org/1999/02/22-rdf-syntax-ns#"
   xmlns:svg="http://www.w3.org/2000/svg"
   xmlns="http://www.w3.org/2000/svg"
   xmlns:inkscape="http://www.inkscape.org/namespaces/inkscape"
   version="1.1"
   width="127.559"
   height="155.90601"
   viewBox="0 0 127.559 155.906"
   id="Layer_1"
   xml:space="preserve"
   style="overflow:inherit"><metadata
   id="metadata27"><rdf:RDF><cc:Work
       rdf:about=""><dc:format>image/svg+xml</dc:format><dc:type
         rdf:resource="http://purl.org/dc/dcmitype/StillImage" /></cc:Work></rdf:RDF></metadata><defs
   id="defs25" />
<line
   fill="none"
   stroke="#000000"
   stroke-width="3"
   x1="89.008003"
   y1="67.345001"
   x2="107.172"
   y2="67.345001"
   id="line3"
   style="fill:none;stroke:#000000;stroke-width:3" />
<path
   d="m 111.553,65.07 c -3.066,-1.112 -5.062,-2.136 -7.529,-3.321 v 11.223 c 0.883,-0.503 4.463,-2.206 7.529,-3.318 3.291,-1.188 6.27,-2.001 8.201,-2.296 -1.931,-0.293 -4.91,-1.099 -8.201,-2.288 z"
   inkscape:connector-curvature="0"
   id="path5" />
<path
   d="m 16.124,66.755 c 0,0 -10.722,31.587 5.27,64.955"
   inkscape:connector-curvature="0"
   id="path7"
   style="fill:none;stroke:#000000;stroke-width:0.5" />
<path
   d="m 18.765,63.789 c -0.162,2.349 -0.121,3.939 -0.101,5.891 l -5.558,-2.51 c 0.453,-0.492 2.127,-2.555 3.388,-4.404 1.352,-1.979 2.448,-3.838 3.037,-5.095 -0.302,1.386 -0.593,3.605 -0.766,6.118 z"
   inkscape:connector-curvature="0"
   id="path9" />
<polygon
   points="23.969,136.538 23.865,49.184 50.419,22.847 76.424,49.055 76.682,136.538 "
   id="polygon11"
   style="fill:none;stroke:#000000;stroke-linejoin:round" />
<polygon
   points="24.092,47.326 48.778,21.704 49.67,74.73 "
   id="polygon13"
   style="fill:#b9e5fb;stroke:#000000;stroke-linecap:round;stroke-linejoin:round" />
<polygon
   points="75.961,47.548 51.273,21.927 50.382,74.952 "
   id="polygon15"
   style="fill:#b9e5fb;stroke:#000000;stroke-linecap:round;stroke-linejoin:round" />
<polygon
   points="50.041,75.108 50.041,136.477 23.969,136.477 23.47,48.537 "
   id="polygon17"
   style="fill:#b9e5fb;stroke:#000000;stroke-linejoin:round" />
<polygon
   points="49.951,75.108 49.951,136.477 76.022,136.477 76.522,48.537 "
   id="polygon19"
   style="fill:#b9e5fb;stroke:#000000;stroke-linejoin:round" />
<line
   fill="none"
   stroke="#000000"
   stroke-dasharray="4,4,4"
   x1="77.306999"
   y1="90.628998"
   x2="23.485001"
   y2="90.628998"
   id="line21"
   style="fill:none;stroke:#000000;stroke-dasharray:4, 4, 4" />
</svg>