<?xml version="1.0" encoding="UTF-8" standalone="no"?>
<!-- Created with Inkscape (http://www.inkscape.org/) -->
<svg id="Layer_1" xmlns:rdf="http://www.w3.org/1999/02/22-rdf-syntax-ns#" xmlns="http://www.w3.org/2000/svg" xml:space="preserve" height="170.08" width="107.14" version="1.1" xmlns:cc="http://creativecommons.org/ns#" xmlns:dc="http://purl.org/dc/elements/1.1/" viewBox="0 0 107.143 170.079"><metadata id="metadata21"><rdf:RDF><cc:Work rdf:about=""><dc:format>image/svg+xml</dc:format><dc:type rdf:resource="http://purl.org/dc/dcmitype/StillImage"/><dc:title/></cc:Work></rdf:RDF></metadata>
<path id="path5" d="m16.853,24.147c0.77-1.785,1.425-2.926,2.199-4.34l-5.807-0.629c0.206,0.558,0.859,2.805,1.237,4.713,0.408,2.039,0.64,3.88,0.667,5.056,0.275-1.142,0.881-2.892,1.704-4.8z"/>
<rect id="rect15" height="129.45" width="82.014" stroke="#000" y="35.985" x="12.151" fill="#FFF"/>
<g id="g2989" stroke-dasharray="4, 4, 4" fill="none"><line id="line7" x1="93.122" y1="77.121" stroke="#000" x2="12.93" y2="77.121"/><line id="line9" x1="13.568" y1="117.58" stroke="#bcbec0" x2="94.484" y2="36.662"/><line id="line11" x1="93.485" y1="117.58" stroke="#bcbec0" x2="12.568" y2="36.662"/><line id="line13" x1="53.483" y1="165.15" stroke="#bcbec0" x2="53.483" y2="35.894"/></g><path id="path3" d="m44.299,52.91s5.119-39.879-11.907-43.719c-8.844-1.996-13.494,4.505-16.063,11.835" stroke="#000" stroke-width="0.5" fill="none"/></svg>
