<?xml version="1.0" encoding="UTF-8" standalone="no"?>
<!-- Created with Inkscape (http://www.inkscape.org/) -->

<svg
   xmlns:dc="http://purl.org/dc/elements/1.1/"
   xmlns:cc="http://creativecommons.org/ns#"
   xmlns:rdf="http://www.w3.org/1999/02/22-rdf-syntax-ns#"
   xmlns:svg="http://www.w3.org/2000/svg"
   xmlns="http://www.w3.org/2000/svg"
   xmlns:inkscape="http://www.inkscape.org/namespaces/inkscape"
   version="1.1"
   width="127.559"
   height="155.90601"
   viewBox="0 0 127.559 155.906"
   id="Layer_1"
   xml:space="preserve"
   style="overflow:inherit"><metadata
   id="metadata23"><rdf:RDF><cc:Work
       rdf:about=""><dc:format>image/svg+xml</dc:format><dc:type
         rdf:resource="http://purl.org/dc/dcmitype/StillImage" /></cc:Work></rdf:RDF></metadata><defs
   id="defs21" />
<path
   d="m 18.136,128.7 c 0,0 -12.376,-28.586 2.667,-60.078"
   inkscape:connector-curvature="0"
   id="path3"
   style="fill:none;stroke:#000000;stroke-width:0.5" />
<path
   d="m 20.676,130.793 c -0.388,-3.141 -0.428,-5.281 -0.515,-7.898 l -8.182,3.75 c 0.71,0.629 3.348,3.285 5.354,5.678 2.147,2.564 3.908,4.984 4.87,6.631 -0.538,-1.838 -1.113,-4.799 -1.527,-8.161 z"
   inkscape:connector-curvature="0"
   id="path5" />
<polygon
   points="29.575,64.733 71.293,21.434 72.799,111.045 "
   id="polygon7"
   style="fill:#b9e5fb;stroke:#000000;stroke-linecap:round;stroke-linejoin:round" />
<polygon
   points="117.231,65.108 75.508,21.808 74.002,111.42 "
   id="polygon9"
   style="fill:#b9e5fb;stroke:#000000;stroke-linecap:round;stroke-linejoin:round" />
<rect
   width="87.513"
   height="73.946999"
   x="29.575001"
   y="64.733002"
   id="rect11"
   style="fill:#b9e5fb;stroke:#000000;stroke-linejoin:round" />
<polygon
   points="30.088,138.68 32.504,64.733 120.016,64.733 117.602,138.68 "
   id="polygon13"
   style="fill:#b9e5fb;stroke:#000000;stroke-linejoin:round" />
<line
   fill="none"
   stroke="#9D9FA2"
   stroke-width="0.5"
   stroke-linejoin="round"
   x1="74.769997"
   y1="65.246002"
   x2="72.874001"
   y2="139.077"
   id="line15"
   style="fill:none;stroke:#9d9fa2;stroke-width:0.5;stroke-linejoin:round" />
<line
   fill="none"
   stroke="#000000"
   stroke-dasharray="4,4,4"
   x1="114.465"
   y1="100.526"
   x2="28.264999"
   y2="100.526"
   id="line17"
   style="fill:none;stroke:#000000;stroke-dasharray:4, 4, 4" />
</svg>