<?xml version="1.0" encoding="UTF-8" standalone="no"?>
<!-- Created with Inkscape (http://www.inkscape.org/) -->

<svg
   xmlns:dc="http://purl.org/dc/elements/1.1/"
   xmlns:cc="http://creativecommons.org/ns#"
   xmlns:rdf="http://www.w3.org/1999/02/22-rdf-syntax-ns#"
   xmlns:svg="http://www.w3.org/2000/svg"
   xmlns="http://www.w3.org/2000/svg"
   version="1.1"
   width="113.386"
   height="113.386"
   viewBox="0 0 113.386 113.386"
   id="Layer_1"
   xml:space="preserve"
   style="overflow:inherit"><metadata
   id="metadata27"><rdf:RDF><cc:Work
       rdf:about=""><dc:format>image/svg+xml</dc:format><dc:type
         rdf:resource="http://purl.org/dc/dcmitype/StillImage" /></cc:Work></rdf:RDF></metadata><defs
   id="defs25" />
<g
   id="g3">
	<polygon
   points="91.074,87.334 66.354,42.146 54.281,54.184 "
   id="polygon5"
   style="fill:#b9e5fb;stroke:#000000;stroke-linejoin:round" />
	<polygon
   points="12.031,92.209 26.331,77.908 42.581,26.233 39.331,26.233 "
   id="polygon7"
   style="fill:#b9e5fb;stroke:#000000;stroke-linejoin:round" />
	<polygon
   points="50.5,57.665 66.354,42.146 103.474,57.655 "
   id="polygon9"
   style="fill:#b9e5fb;stroke:#000000;stroke-linejoin:round" />
	<polyline
   fill="#B9E5FB"
   stroke="#000000"
   stroke-linejoin="round"
   points="50.4,26.056 42.256,17.459 25.571,26.342    50.547,26.056  "
   id="polyline11"
   style="fill:#b9e5fb;stroke:#000000;stroke-linejoin:round" />
	<polygon
   points="43.881,21.684 50.53,26.056 50.5,57.665 72.156,58.084 50.551,78.241 32.181,57.434 "
   id="polygon13"
   style="fill:#b9e5fb;stroke:#000000;stroke-linejoin:round" />
	<polygon
   points="50.542,58.191 19.831,93.834 43.123,20.709 50.547,26.056 "
   id="polygon15"
   style="fill:#b9e5fb;stroke:#000000;stroke-linejoin:round" />
	<polygon
   points="87.175,92.858 69.556,49.634 50.542,58.191 "
   id="polygon17"
   style="fill:#b9e5fb;stroke:#000000;stroke-linejoin:round" />
	<polygon
   points="103.681,57.759 73.131,58.084 69.556,49.634 "
   id="polygon19"
   style="fill:#b9e5fb;stroke:#000000;stroke-linejoin:round" />
	<polygon
   points="41.172,26.559 43.123,20.709 25.571,26.342 "
   id="polygon21"
   style="fill:#b9e5fb;stroke:#000000;stroke-linejoin:round" />
</g>
</svg>