<?xml version="1.0" encoding="UTF-8" standalone="no"?>
<!-- Created with Inkscape (http://www.inkscape.org/) -->

<svg
   xmlns:dc="http://purl.org/dc/elements/1.1/"
   xmlns:cc="http://creativecommons.org/ns#"
   xmlns:rdf="http://www.w3.org/1999/02/22-rdf-syntax-ns#"
   xmlns:svg="http://www.w3.org/2000/svg"
   xmlns="http://www.w3.org/2000/svg"
   xmlns:inkscape="http://www.inkscape.org/namespaces/inkscape"
   version="1.1"
   width="113.386"
   height="113.386"
   viewBox="0 0 113.386 113.386"
   id="Layer_1"
   xml:space="preserve"
   style="overflow:inherit"><metadata
   id="metadata33"><rdf:RDF><cc:Work
       rdf:about=""><dc:format>image/svg+xml</dc:format><dc:type
         rdf:resource="http://purl.org/dc/dcmitype/StillImage" /></cc:Work></rdf:RDF></metadata><defs
   id="defs31" />
<path
   d="m 51.324,108.459 c 0.767,0.798 1.439,0.686 1.772,0.546 0.873,-0.366 1.808,-1.657 2.125,-8.464 0.168,-3.624 0.071,-7.183 0.068,-7.218 l -0.053,-1.859 -1.193,1.425 c -0.337,0.401 -8.167,9.883 -2.719,15.57 z m 1.021,-0.98 c -3.366,-3.513 -0.314,-9.21 1.562,-12.014 0.041,6.201 -0.522,11.615 -1.327,12.206 -0.039,-0.018 -0.105,-0.057 -0.235,-0.192 z"
   inkscape:connector-curvature="0"
   id="path3" />
<path
   d="m 54.884,94.968 c 0,0 -4.601,-15.8 -5.286,-19.532 -0.683,-3.731 5.54,12.671 5.54,12.671 l -0.254,6.861 z"
   inkscape:connector-curvature="0"
   id="path5" />
<path
   d="m 56.413,92.748 -1.272,-1.357 0.048,1.86 c 0.003,0.035 0.1,3.594 0.468,7.203 0.69,6.779 1.696,8.018 2.587,8.333 0.341,0.121 1.019,0.198 1.739,-0.641 5.128,-5.978 -3.212,-15.016 -3.57,-15.398 z m 2.275,14.681 c -0.835,-0.544 -1.696,-5.92 -1.998,-12.113 2.028,2.695 5.388,8.216 2.219,11.909 -0.12,0.14 -0.185,0.184 -0.221,0.204 z"
   inkscape:connector-curvature="0"
   id="path7" />
<path
   d="m 55.567,94.838 c 0,0 5.347,-15.563 6.21,-19.258 0.861,-3.695 -6.137,12.393 -6.137,12.393 l -0.073,6.865 z"
   inkscape:connector-curvature="0"
   id="path9" />
<rect
   width="0.912"
   height="7.8889999"
   x="54.841"
   y="88.008003"
   id="rect11" />
<g
   id="g13">
	
		<rect
   width="51.634998"
   height="51.634998"
   x="29.65"
   y="11.836"
   transform="matrix(0.7071,0.7071,-0.7071,0.7071,42.8711,-28.1932)"
   id="rect15"
   style="fill:#ffffff;stroke:#000000" />
	
		<rect
   width="51.634998"
   height="51.634998"
   x="29.65"
   y="11.836"
   transform="matrix(-0.7071,-0.7071,0.7071,-0.7071,68.0645,103.4999)"
   id="rect17"
   style="fill:#b9e5fb;stroke:#000000" />
	<path
   d="M 55.971,2.855"
   inkscape:connector-curvature="0"
   id="path19"
   style="fill:none;stroke:#bcbec0;stroke-dasharray:4, 4, 4" />
	<path
   d="M 55.971,48.859"
   inkscape:connector-curvature="0"
   id="path21"
   style="fill:none;stroke:#bcbec0;stroke-dasharray:4, 4, 4" />
</g>
<polygon
   points="75.902,22.229 55.468,73.146 35.168,22.229 "
   id="polygon23"
   style="fill:none;stroke:#bcbec0;stroke-linejoin:round;stroke-dasharray:4, 4, 4" />
<line
   fill="none"
   stroke="#BCBEC0"
   stroke-linejoin="round"
   stroke-dasharray="4,4,4"
   x1="55.917999"
   y1="1.834"
   x2="55.783001"
   y2="22.534"
   id="line25"
   style="fill:none;stroke:#bcbec0;stroke-linejoin:round;stroke-dasharray:4, 4, 4" />
<line
   fill="none"
   stroke="#000000"
   stroke-dasharray="4,4,4"
   x1="55.632999"
   y1="21.992001"
   x2="55.632999"
   y2="74.360001"
   id="line27"
   style="fill:none;stroke:#000000;stroke-dasharray:4, 4, 4" />
</svg>