<?xml version="1.0" encoding="UTF-8" standalone="no"?>
<!-- Created with Inkscape (http://www.inkscape.org/) -->

<svg
   xmlns:dc="http://purl.org/dc/elements/1.1/"
   xmlns:cc="http://creativecommons.org/ns#"
   xmlns:rdf="http://www.w3.org/1999/02/22-rdf-syntax-ns#"
   xmlns:svg="http://www.w3.org/2000/svg"
   xmlns="http://www.w3.org/2000/svg"
   xmlns:inkscape="http://www.inkscape.org/namespaces/inkscape"
   version="1.1"
   width="113.386"
   height="113.386"
   viewBox="0 0 113.386 113.386"
   id="Layer_1"
   xml:space="preserve"
   style="overflow:inherit"><metadata
   id="metadata35"><rdf:RDF><cc:Work
       rdf:about=""><dc:format>image/svg+xml</dc:format><dc:type
         rdf:resource="http://purl.org/dc/dcmitype/StillImage" /></cc:Work></rdf:RDF></metadata><defs
   id="defs33" />
<polygon
   points="67.83,10.927 88.899,61.778 67.83,83.95 46.975,63.078 "
   id="polygon3"
   style="fill:#b9e5fb;stroke:#000000;stroke-linejoin:round" />
<polygon
   points="104.479,99.366 67.855,11.727 67.896,62.577 "
   id="polygon5"
   style="fill:#b9e5fb;stroke:#000000;stroke-linejoin:round" />
<polygon
   points="31.13,99.366 67.754,11.727 67.711,62.577 "
   id="polygon7"
   style="fill:#b9e5fb;stroke:#000000;stroke-linejoin:round" />
<path
   d="m 11.862,61.038 c 1.843,0.873 3.152,1.32 4.737,1.904 L 12.6,67.368 C 12.365,66.794 11.282,64.593 10.225,62.846 9.096,60.975 7.977,59.383 7.166,58.444 c 1.021,0.71 2.718,1.66 4.696,2.594 z"
   inkscape:connector-curvature="0"
   id="path9" />
<g
   id="g11">
	<path
   d="m 12.247,64.687 1.516,-2.109 c 1.821,1.308 3.975,1.998 6.227,1.998 5.896,0 10.692,-4.797 10.692,-10.692 0,-5.895 -4.796,-10.691 -10.692,-10.691 v -2.601 c 7.329,0 13.292,5.965 13.292,13.292 0,7.33 -5.963,13.292 -13.292,13.292 -2.8,-0.001 -5.477,-0.861 -7.743,-2.489 z"
   inkscape:connector-curvature="0"
   id="path13" />
</g>
<line
   fill="none"
   stroke="#000000"
   stroke-dasharray="4,4,4"
   x1="66.521004"
   y1="63.900002"
   x2="93.688004"
   y2="36.818001"
   id="line15"
   style="fill:none;stroke:#000000;stroke-dasharray:4, 4, 4" />
<line
   fill="none"
   stroke="#000000"
   stroke-dasharray="4,4,4"
   x1="41.998001"
   y1="9.2609997"
   x2="68.039001"
   y2="35.735001"
   id="line17"
   style="fill:none;stroke:#000000;stroke-dasharray:4, 4, 4" />
<path
   d="m 93.462,53.81 c 0,0 -0.775,-8.574 -10.616,-18.285"
   inkscape:connector-curvature="0"
   id="path19"
   style="fill:none;stroke:#000000;stroke-width:0.5" />
<path
   d="M 93.629,56.277 C 92.913,55.284 92.36,54.674 91.696,53.915 l 3.371,-1.162 c -0.044,0.367 -0.11,1.83 -0.062,3.047 0.047,1.303 0.174,2.462 0.326,3.186 -0.325,-0.661 -0.938,-1.651 -1.702,-2.709 z"
   inkscape:connector-curvature="0"
   id="path21" />
<path
   d="m 81.001,34.252 c 0.488,1.12 0.729,1.906 1.046,2.864 l 2.719,-2.306 c -0.337,-0.152 -1.63,-0.839 -2.653,-1.5 -1.095,-0.707 -2.028,-1.404 -2.571,-1.908 0.399,0.619 0.939,1.653 1.459,2.85 z"
   inkscape:connector-curvature="0"
   id="path23" />
<path
   d="m 60.632,14.888 c 0,0 -7.132,4.823 -10.877,18.133"
   inkscape:connector-curvature="0"
   id="path25"
   style="fill:none;stroke:#000000;stroke-width:0.5" />
<path
   d="m 62.713,13.55 c -0.522,1.107 -0.789,1.884 -1.136,2.834 l -2.645,-2.39 c 0.341,-0.14 1.655,-0.787 2.696,-1.419 1.118,-0.671 2.073,-1.341 2.632,-1.824 -0.421,0.603 -0.99,1.618 -1.547,2.799 z"
   inkscape:connector-curvature="0"
   id="path27" />
<path
   d="m 49.533,35.25 c 0.743,-0.97 1.316,-1.561 2.002,-2.302 l -3.331,-1.266 c 0.028,0.369 0.051,1.833 -0.033,3.048 -0.091,1.302 -0.249,2.454 -0.427,3.174 0.349,-0.65 0.991,-1.622 1.789,-2.654 z"
   inkscape:connector-curvature="0"
   id="path29" />
</svg>