<?xml version="1.0" encoding="UTF-8" standalone="no"?>
<!-- Created with Inkscape (http://www.inkscape.org/) -->

<svg
   xmlns:dc="http://purl.org/dc/elements/1.1/"
   xmlns:cc="http://creativecommons.org/ns#"
   xmlns:rdf="http://www.w3.org/1999/02/22-rdf-syntax-ns#"
   xmlns:svg="http://www.w3.org/2000/svg"
   xmlns="http://www.w3.org/2000/svg"
   xmlns:inkscape="http://www.inkscape.org/namespaces/inkscape"
   version="1.1"
   width="113.386"
   height="113.386"
   viewBox="0 0 113.386 113.386"
   id="Layer_1"
   xml:space="preserve"
   style="overflow:inherit"><metadata
   id="metadata41"><rdf:RDF><cc:Work
       rdf:about=""><dc:format>image/svg+xml</dc:format><dc:type
         rdf:resource="http://purl.org/dc/dcmitype/StillImage" /></cc:Work></rdf:RDF></metadata><defs
   id="defs39" />
<rect
   width="51.637001"
   height="51.637001"
   x="14.051"
   y="36.967999"
   transform="matrix(0.7071,0.7071,-0.7071,0.7071,56.072,-9.8025)"
   id="rect3"
   style="fill:#ffffff;stroke:#000000;stroke-linejoin:round" />
<polygon
   points="60.303,47.362 39.869,98.279 19.569,47.362 "
   id="polygon5"
   style="fill:none;stroke:#000000;stroke-linejoin:round" />
<line
   fill="none"
   stroke="#000000"
   stroke-width="3"
   x1="79.781998"
   y1="83.848999"
   x2="97.945999"
   y2="83.848999"
   id="line7"
   style="fill:none;stroke:#000000;stroke-width:3" />
<path
   d="M 102.326,81.574 C 99.26,80.462 97.264,79.438 94.798,78.253 v 11.223 c 0.882,-0.503 4.462,-2.207 7.528,-3.318 3.291,-1.188 6.27,-2.001 8.201,-2.296 -1.931,-0.293 -4.91,-1.1 -8.201,-2.288 z"
   inkscape:connector-curvature="0"
   id="path9" />
<polyline
   fill="#B9E5FB"
   stroke="#000000"
   stroke-linejoin="round"
   points="76.38,62.786 39.219,47.367 3.355,62.786 39.869,26.274   76.38,62.786 "
   id="polyline11"
   style="fill:#b9e5fb;stroke:#000000;stroke-linejoin:round" />
<polyline
   fill="#B9E5FB"
   stroke="#000000"
   stroke-linejoin="round"
   points="39.396,47.367 75.906,10.855 76.38,62.786   39.219,47.367 "
   id="polyline13"
   style="fill:#b9e5fb;stroke:#000000;stroke-linejoin:round" />
<line
   fill="#B9E5FB"
   stroke="#000000"
   stroke-linejoin="round"
   x1="39.719002"
   y1="46.714001"
   x2="39.721001"
   y2="47.581001"
   id="line15"
   style="fill:#b9e5fb;stroke:#000000;stroke-linejoin:round" />
<polygon
   points="3.245,11.657 3.355,62.786 39.219,47.367 "
   id="polygon17"
   style="fill:#b9e5fb;stroke:#000000;stroke-linejoin:round" />
<path
   d="M 40.37,27.989"
   inkscape:connector-curvature="0"
   id="path19"
   style="fill:none;stroke:#bcbec0;stroke-dasharray:4, 4, 4" />
<path
   d="M 40.37,73.992"
   inkscape:connector-curvature="0"
   id="path21"
   style="fill:none;stroke:#bcbec0;stroke-dasharray:4, 4, 4" />
<path
   d="m 49.492,45.238 c 0,0 17.852,-1.017 23.051,12.958"
   inkscape:connector-curvature="0"
   id="path23"
   style="fill:none;stroke:#000000;stroke-width:0.5" />
<path
   d="m 47.556,46.312 c 1.457,0.29 2.415,0.595 3.596,0.94 l -0.421,-4.321 c -0.386,0.231 -1.973,1.049 -3.348,1.615 -1.471,0.606 -2.814,1.054 -3.695,1.252 0.902,0.026 2.307,0.205 3.868,0.514 z"
   inkscape:connector-curvature="0"
   id="path25" />
<path
   d="m 28.713,45.238 c 0,0 -17.851,-1.017 -23.051,12.958"
   inkscape:connector-curvature="0"
   id="path27"
   style="fill:none;stroke:#000000;stroke-width:0.5" />
<path
   d="m 30.649,46.312 c -1.457,0.29 -2.415,0.595 -3.596,0.94 l 0.421,-4.321 c 0.387,0.231 1.974,1.049 3.349,1.615 1.471,0.606 2.814,1.054 3.694,1.252 -0.902,0.026 -2.307,0.205 -3.868,0.514 z"
   inkscape:connector-curvature="0"
   id="path29" />
<line
   fill="none"
   stroke="#000000"
   stroke-linejoin="round"
   x1="3.3180001"
   y1="12.372"
   x2="22.167999"
   y2="54.622002"
   id="line31"
   style="fill:none;stroke:#000000;stroke-linejoin:round" />
<line
   fill="none"
   stroke="#000000"
   stroke-linejoin="round"
   x1="75.130997"
   y1="11.895"
   x2="57.594002"
   y2="54.945999"
   id="line33"
   style="fill:none;stroke:#000000;stroke-linejoin:round" />
<line
   fill="none"
   stroke="#000000"
   stroke-linejoin="round"
   x1="39.868999"
   y1="99.297997"
   x2="39.868999"
   y2="47.367001"
   id="line35"
   style="fill:none;stroke:#000000;stroke-linejoin:round" />
</svg>