<?xml version="1.0" encoding="UTF-8" standalone="no"?>
<!-- Created with Inkscape (http://www.inkscape.org/) -->

<svg
   xmlns:dc="http://purl.org/dc/elements/1.1/"
   xmlns:cc="http://creativecommons.org/ns#"
   xmlns:rdf="http://www.w3.org/1999/02/22-rdf-syntax-ns#"
   xmlns:svg="http://www.w3.org/2000/svg"
   xmlns="http://www.w3.org/2000/svg"
   xmlns:inkscape="http://www.inkscape.org/namespaces/inkscape"
   version="1.1"
   width="113.386"
   height="113.386"
   viewBox="0 0 113.386 113.386"
   id="Layer_1"
   xml:space="preserve"
   style="overflow:inherit"><metadata
   id="metadata25"><rdf:RDF><cc:Work
       rdf:about=""><dc:format>image/svg+xml</dc:format><dc:type
         rdf:resource="http://purl.org/dc/dcmitype/StillImage" /></cc:Work></rdf:RDF></metadata><defs
   id="defs23" />
<polyline
   fill="#B9E5FB"
   stroke="#000000"
   stroke-linejoin="round"
   points="62.67,43.955 99.79,59.465 46.816,59.474 62.67,43.955   "
   id="polyline3"
   style="fill:#b9e5fb;stroke:#000000;stroke-linejoin:round" />
<polygon
   points="23.83,30.953 47.838,30.933 39.736,24.306 "
   id="polygon5"
   style="fill:#b9e5fb;stroke:#000000;stroke-linejoin:round" />
<polygon
   points="37.273,31.186 46.588,37.468 46.816,59.474 68.472,59.893 46.867,80.051 26.011,59.178 "
   id="polygon7"
   style="fill:#b9e5fb;stroke:#000000;stroke-linejoin:round" />
<polygon
   points="83.49,94.668 62.67,43.955 47.204,59.124 "
   id="polygon9"
   style="fill:#b9e5fb;stroke:#000000;stroke-linejoin:round" />
<path
   d="m 70.009,40.405 c 0,0 -9.662,-9.438 -17.137,1.938"
   inkscape:connector-curvature="0"
   id="path11"
   style="fill:none;stroke:#000000;stroke-width:0.5" />
<path
   d="M 70.834,42.738 C 69.877,41.974 69.18,41.537 68.337,40.983 l 2.936,-2.026 c 0.056,0.366 0.385,1.793 0.758,2.953 0.395,1.24 0.83,2.323 1.172,2.979 -0.491,-0.548 -1.349,-1.337 -2.369,-2.151 z"
   inkscape:connector-curvature="0"
   id="path13" />
<path
   d="m 27.847,20.568 c 0,0 6.018,-6.079 14.9,-3.913"
   inkscape:connector-curvature="0"
   id="path15"
   style="fill:none;stroke:#000000;stroke-width:0.5" />
<path
   d="m 27.021,22.9 c 0.957,-0.764 1.654,-1.201 2.497,-1.755 l -2.935,-2.026 c -0.057,0.366 -0.385,1.793 -0.759,2.953 -0.395,1.24 -0.83,2.323 -1.171,2.979 0.491,-0.547 1.348,-1.337 2.368,-2.151 z"
   inkscape:connector-curvature="0"
   id="path17" />
<polygon
   points="47.204,59.124 11.63,95.467 39.547,24.468 47.838,30.933 "
   id="polygon19"
   style="fill:#b9e5fb;stroke:#000000;stroke-linejoin:round" />
</svg>