<?xml version="1.0" encoding="UTF-8" standalone="no"?>
<!-- Created with Inkscape (http://www.inkscape.org/) -->
<svg id="Layer_1" xmlns:rdf="http://www.w3.org/1999/02/22-rdf-syntax-ns#" xmlns="http://www.w3.org/2000/svg" xml:space="preserve" height="113.39" width="113.39" version="1.1" xmlns:cc="http://creativecommons.org/ns#" xmlns:dc="http://purl.org/dc/elements/1.1/" viewBox="0 0 113.386 113.386"><metadata id="metadata21"><rdf:RDF><cc:Work rdf:about=""><dc:format>image/svg+xml</dc:format><dc:type rdf:resource="http://purl.org/dc/dcmitype/StillImage"/><dc:title/></cc:Work></rdf:RDF></metadata>
<ellipse id="ellipse3" rx="4.211" ry="5.507" stroke="#000" cy="59.497" cx="22.782" fill="none"/>
<path id="path5" d="M3,62.77c5.348-6.225,11.555-9.715,20.688-8.766" stroke="#000" fill="none"/>
<path id="path7" d="M40.33,60.502c-4.882-4.782-10.616-7.325-18.572-6.498" stroke="#000" fill="none"/>
<path id="path9" d="m41.581,61.082c-0.479-1.135-0.716-1.936-1.026-2.907l-2.772,2.3c0.34,0.158,1.639,0.866,2.668,1.55,1.1,0.729,2.031,1.443,2.578,1.955-0.403-0.631-0.933-1.68-1.448-2.898z"/>
<polygon id="polygon11" stroke-linejoin="round" stroke="#000" points="73.384,99.298,52.315,48.446,73.384,26.274,94.24,47.146" fill="#b9e5fb"/>
<polygon id="polygon13" stroke-linejoin="round" stroke="#000" points="36.425,11.657,73.048,99.298,73.007,48.446" fill="#b9e5fb"/>
<polygon id="polygon15" stroke-linejoin="round" stroke="#000" points="109.77,11.657,73.149,99.298,73.192,48.446" fill="#b9e5fb"/>
</svg>
