<?xml version="1.0" encoding="UTF-8" standalone="no"?>
<!-- Created with Inkscape (http://www.inkscape.org/) -->

<svg
   xmlns:dc="http://purl.org/dc/elements/1.1/"
   xmlns:cc="http://creativecommons.org/ns#"
   xmlns:rdf="http://www.w3.org/1999/02/22-rdf-syntax-ns#"
   xmlns:svg="http://www.w3.org/2000/svg"
   xmlns="http://www.w3.org/2000/svg"
   xmlns:inkscape="http://www.inkscape.org/namespaces/inkscape"
   version="1.1"
   width="113.386"
   height="113.386"
   viewBox="0 0 113.386 113.386"
   id="Layer_1"
   xml:space="preserve"
   style="overflow:inherit"><metadata
   id="metadata25"><rdf:RDF><cc:Work
       rdf:about=""><dc:format>image/svg+xml</dc:format><dc:type
         rdf:resource="http://purl.org/dc/dcmitype/StillImage" /></cc:Work></rdf:RDF></metadata><defs
   id="defs23" />
<rect
   width="70.067001"
   height="70.067001"
   x="20.944"
   y="21.281"
   transform="matrix(0.7071,-0.7071,0.7071,0.7071,-23.4253,56.0766)"
   id="rect3"
   style="fill:#b9e5fb;stroke:#000000" />
<path
   d="m 61.904,17.24 c 0,0 17.804,36.484 -0.971,78.065"
   inkscape:connector-curvature="0"
   id="path5"
   style="fill:none;stroke:#000000" />
<path
   d="m 60.329,15.893 c 0.223,1.373 0.27,2.313 0.352,3.461 l 3.651,-1.783 c -0.33,-0.264 -1.565,-1.387 -2.511,-2.407 -1.013,-1.092 -1.844,-2.125 -2.306,-2.831 0.273,0.799 0.575,2.089 0.814,3.56 z"
   inkscape:connector-curvature="0"
   id="path7" />
<path
   d="m 60.002,94.694 c 0.293,-1.447 0.389,-2.444 0.531,-3.662 l 3.554,2.086 c -0.343,0.264 -1.637,1.394 -2.634,2.43 -1.068,1.107 -1.951,2.162 -2.449,2.89 0.315,-0.836 0.683,-2.192 0.998,-3.744 z"
   inkscape:connector-curvature="0"
   id="path9" />
<path
   d="m 17.161,50.58 c 0,0 36.485,-17.804 78.066,0.971"
   inkscape:connector-curvature="0"
   id="path11"
   style="fill:none;stroke:#000000" />
<path
   d="m 15.814,52.156 c 1.372,-0.223 2.312,-0.27 3.461,-0.351 l -1.782,-3.652 c -0.264,0.33 -1.387,1.566 -2.407,2.51 -1.092,1.013 -2.125,1.844 -2.832,2.306 0.8,-0.273 2.09,-0.575 3.56,-0.813 z"
   inkscape:connector-curvature="0"
   id="path13" />
<path
   d="m 94.616,52.482 c -1.447,-0.293 -2.445,-0.39 -3.662,-0.532 l 2.086,-3.554 c 0.264,0.343 1.394,1.637 2.429,2.633 1.108,1.068 2.163,1.952 2.891,2.451 -0.836,-0.314 -2.193,-0.683 -3.744,-0.998 z"
   inkscape:connector-curvature="0"
   id="path15" />
<line
   fill="none"
   stroke="#000000"
   stroke-dasharray="4,4,4"
   x1="104.97"
   y1="56.747002"
   x2="6.4780002"
   y2="56.747002"
   id="line17"
   style="fill:none;stroke:#000000;stroke-dasharray:4, 4, 4" />
<line
   fill="none"
   stroke="#000000"
   stroke-dasharray="4,4,4"
   x1="55.723999"
   y1="105.994"
   x2="55.723999"
   y2="7.5009999"
   id="line19"
   style="fill:none;stroke:#000000;stroke-dasharray:4, 4, 4" />
</svg>