<?xml version="1.0" encoding="UTF-8" standalone="no"?>
<!-- Created with Inkscape (http://www.inkscape.org/) -->

<svg
   xmlns:dc="http://purl.org/dc/elements/1.1/"
   xmlns:cc="http://creativecommons.org/ns#"
   xmlns:rdf="http://www.w3.org/1999/02/22-rdf-syntax-ns#"
   xmlns:svg="http://www.w3.org/2000/svg"
   xmlns="http://www.w3.org/2000/svg"
   xmlns:inkscape="http://www.inkscape.org/namespaces/inkscape"
   version="1.1"
   width="113.386"
   height="113.386"
   viewBox="0 0 113.386 113.386"
   id="Layer_1"
   xml:space="preserve"
   style="overflow:inherit"><metadata
   id="metadata37"><rdf:RDF><cc:Work
       rdf:about=""><dc:format>image/svg+xml</dc:format><dc:type
         rdf:resource="http://purl.org/dc/dcmitype/StillImage" /></cc:Work></rdf:RDF></metadata><defs
   id="defs35" />
<rect
   width="67.126999"
   height="67.125999"
   x="22.771999"
   y="20.99"
   transform="matrix(0.7071,0.7071,-0.7071,0.7071,55.0751,-23.8566)"
   id="rect3"
   style="fill:#ffffff;stroke:#000000" />
<polygon
   points="56.143,97.88 103.799,54.553 56.335,7.088 8.869,54.553 "
   id="polygon5"
   style="fill:#b9e5fb;stroke:#000000" />
<path
   d="M 56.988,9.317"
   inkscape:connector-curvature="0"
   id="path7"
   style="fill:none;stroke:#bcbec0;stroke-dasharray:4, 4, 4" />
<path
   d="M 56.988,69.12"
   inkscape:connector-curvature="0"
   id="path9"
   style="fill:none;stroke:#bcbec0;stroke-dasharray:4, 4, 4" />
<path
   d="m 46.944,42.545 c 0,0 -11.083,-1.563 -26.293,8.015"
   inkscape:connector-curvature="0"
   id="path11"
   style="fill:none;stroke:#000000;stroke-width:0.5" />
<path
   d="m 50.117,43.066 c -1.468,0.61 -2.403,1.13 -3.563,1.746 l -0.473,-4.611 c 0.455,0.161 2.285,0.682 3.842,0.983 1.663,0.324 3.166,0.51 4.127,0.53 -0.933,0.219 -2.368,0.7 -3.933,1.352 z"
   inkscape:connector-curvature="0"
   id="path13" />
<path
   d="m 18.492,52.516 c 1.562,-0.286 2.632,-0.358 3.938,-0.474 l -2.111,-4.126 c -0.293,0.382 -1.546,1.814 -2.686,2.914 -1.221,1.175 -2.381,2.148 -3.177,2.688 0.902,-0.322 2.367,-0.701 4.036,-1.002 z"
   inkscape:connector-curvature="0"
   id="path15" />
<path
   d="m 51.938,22.192 c 0,0 -4.791,10.117 -0.174,27.488"
   inkscape:connector-curvature="0"
   id="path17"
   style="fill:none;stroke:#000000;stroke-width:0.5" />
<path
   d="m 53.667,19.543 c -0.038,1.59 0.059,2.656 0.148,3.964 l -4.403,-1.438 c 0.33,-0.349 1.551,-1.811 2.456,-3.11 0.972,-1.389 1.753,-2.688 2.16,-3.559 -0.177,0.942 -0.323,2.449 -0.361,4.143 z"
   inkscape:connector-curvature="0"
   id="path19" />
<path
   d="m 53.997,52.182 c -0.173,-1.579 -0.17,-2.649 -0.193,-3.961 l -4.265,1.812 c 0.359,0.321 1.699,1.672 2.715,2.887 1.087,1.302 1.974,2.528 2.456,3.36 -0.259,-0.924 -0.531,-2.413 -0.713,-4.098 z"
   inkscape:connector-curvature="0"
   id="path21" />
<path
   d="m 91.25,49.888 c 0,0 -8.596,-7.17 -26.569,-7.05"
   inkscape:connector-curvature="0"
   id="path23"
   style="fill:none;stroke:#000000;stroke-width:0.5" />
<path
   d="m 93.671,52.003 c -1.569,-0.254 -2.638,-0.307 -3.948,-0.396 l 2.03,-4.167 c 0.299,0.377 1.581,1.783 2.744,2.859 1.242,1.153 2.424,2.104 3.229,2.627 -0.907,-0.305 -2.38,-0.655 -4.055,-0.923 z"
   inkscape:connector-curvature="0"
   id="path25" />
<path
   d="m 61.817,43.363 c 1.478,0.58 2.422,1.083 3.594,1.672 l 0.381,-4.618 c -0.451,0.17 -2.271,0.727 -3.818,1.062 -1.657,0.355 -3.155,0.572 -4.117,0.61 0.936,0.2 2.382,0.651 3.96,1.274 z"
   inkscape:connector-curvature="0"
   id="path27" />
<line
   fill="none"
   stroke="#BCBEC0"
   stroke-width="0.5"
   x1="56.334999"
   y1="9.1529999"
   x2="56.334999"
   y2="100.695"
   id="line29"
   style="fill:none;stroke:#bcbec0;stroke-width:0.5" />
<polygon
   points="82.9,34.504 56.335,102.019 29.945,34.504 "
   id="polygon31"
   style="fill:none;stroke:#000000;stroke-linejoin:round;stroke-dasharray:4, 4, 4" />
</svg>