<?xml version="1.0" encoding="UTF-8" standalone="no"?>
<!-- Created with Inkscape (http://www.inkscape.org/) -->

<svg
   xmlns:dc="http://purl.org/dc/elements/1.1/"
   xmlns:cc="http://creativecommons.org/ns#"
   xmlns:rdf="http://www.w3.org/1999/02/22-rdf-syntax-ns#"
   xmlns:svg="http://www.w3.org/2000/svg"
   xmlns="http://www.w3.org/2000/svg"
   xmlns:inkscape="http://www.inkscape.org/namespaces/inkscape"
   version="1.1"
   width="113.386"
   height="113.386"
   viewBox="0 0 113.386 113.386"
   id="Layer_1"
   xml:space="preserve"
   style="overflow:inherit"><metadata
   id="metadata51"><rdf:RDF><cc:Work
       rdf:about=""><dc:format>image/svg+xml</dc:format><dc:type
         rdf:resource="http://purl.org/dc/dcmitype/StillImage" /></cc:Work></rdf:RDF></metadata><defs
   id="defs49" />
<g
   id="g3">
	<path
   d="m 42.439,22.954 c -4.466,-2.232 -10.75,-2 -16.125,0.669"
   inkscape:connector-curvature="0"
   id="path5"
   style="fill:none;stroke:#000000" />
	<path
   d="m 52.564,34.746 c 0,0 -0.125,-7.042 -10.125,-11.792"
   inkscape:connector-curvature="0"
   id="path7"
   style="fill:none;stroke:#000000;stroke-dasharray:2, 2, 2" />
	<path
   d="m 31.487,35.19 c 0.821,-1.229 1.319,-2.837 1.319,-4.598 0,-0.599 -0.059,-1.18 -0.166,-1.734"
   inkscape:connector-curvature="0"
   id="path9"
   style="fill:none;stroke:#000000" />
	<path
   d="m 23.309,34.989 c 0.98,1.581 2.478,2.591 4.154,2.591 1.605,0 3.045,-0.925 4.024,-2.39"
   inkscape:connector-curvature="0"
   id="path11"
   style="fill:none;stroke:#000000;stroke-dasharray:2, 2, 2" />
	<path
   d="m 27.463,23.604 c -2.951,0 -5.344,3.128 -5.344,6.988 0,1.666 0.445,3.195 1.189,4.396"
   inkscape:connector-curvature="0"
   id="path13"
   style="fill:none;stroke:#000000" />
	<path
   d="m 32.641,28.858 c -0.59,-3.021 -2.684,-5.254 -5.178,-5.254"
   inkscape:connector-curvature="0"
   id="path15"
   style="fill:none;stroke:#000000;stroke-dasharray:2, 2, 2" />
	<path
   d="m 3.189,41.954 c -3,-8.75 2.999,-25.25 25.572,-18.331"
   inkscape:connector-curvature="0"
   id="path17"
   style="fill:none;stroke:#000000;stroke-dasharray:2, 2, 2" />
	<path
   d="M 3.213,45.592 C 2.405,44.25 1.765,43.407 1,42.36 L 5.434,41.241 C 5.342,41.71 5.097,43.571 5.024,45.136 4.946,46.81 4.981,48.3 5.098,49.242 4.751,48.358 4.074,47.029 3.213,45.592 z"
   inkscape:connector-curvature="0"
   id="path19" />
</g>
<g
   id="g21">
	<path
   d="m 108.881,72.661 c 0.455,1.499 0.871,2.473 1.355,3.675 l -4.572,0.001 c 0.204,-0.432 0.896,-2.177 1.351,-3.676 0.483,-1.604 0.813,-3.058 0.932,-4 0.119,0.942 0.451,2.396 0.934,4 z"
   inkscape:connector-curvature="0"
   id="path23" />
	<line
   fill="none"
   stroke="#000000"
   x1="107.951"
   y1="75.939003"
   x2="107.951"
   y2="85.439003"
   id="line25"
   style="fill:none;stroke:#000000" />
</g>
<g
   id="g27">
	<polygon
   points="100.408,86.021 81.393,51.262 72.105,60.521 "
   id="polygon29"
   style="fill:#b9e5fb;stroke:#000000;stroke-linejoin:round" />
	<polygon
   points="39.605,89.771 50.605,78.771 63.105,39.021 60.605,39.021 "
   id="polygon31"
   style="fill:#b9e5fb;stroke:#000000;stroke-linejoin:round" />
	<polygon
   points="69.197,63.199 81.393,51.262 109.946,63.192 "
   id="polygon33"
   style="fill:#b9e5fb;stroke:#000000;stroke-linejoin:round" />
	<polyline
   fill="#B9E5FB"
   stroke="#000000"
   stroke-linejoin="round"
   points="69.12,38.885 62.855,32.271 50.021,39.104    69.233,38.885  "
   id="polyline35"
   style="fill:#b9e5fb;stroke:#000000;stroke-linejoin:round" />
	<polygon
   points="64.105,35.521 69.221,38.885 69.197,63.199 85.855,63.521 69.236,79.027 55.105,63.021 "
   id="polygon37"
   style="fill:#b9e5fb;stroke:#000000;stroke-linejoin:round" />
	<polygon
   points="69.229,63.604 45.605,91.021 63.522,34.771 69.233,38.885 "
   id="polygon39"
   style="fill:#b9e5fb;stroke:#000000;stroke-linejoin:round" />
	<polygon
   points="97.408,90.271 83.855,57.021 69.229,63.604 "
   id="polygon41"
   style="fill:#b9e5fb;stroke:#000000;stroke-linejoin:round" />
	<polygon
   points="110.105,63.271 86.605,63.521 83.855,57.021 "
   id="polygon43"
   style="fill:#b9e5fb;stroke:#000000;stroke-linejoin:round" />
	<polygon
   points="62.021,39.271 63.522,34.771 50.021,39.104 "
   id="polygon45"
   style="fill:#b9e5fb;stroke:#000000;stroke-linejoin:round" />
</g>
</svg>