<?xml version="1.0" encoding="UTF-8" standalone="no"?>
<!-- Created with Inkscape (http://www.inkscape.org/) -->

<svg
   xmlns:dc="http://purl.org/dc/elements/1.1/"
   xmlns:cc="http://creativecommons.org/ns#"
   xmlns:rdf="http://www.w3.org/1999/02/22-rdf-syntax-ns#"
   xmlns:svg="http://www.w3.org/2000/svg"
   xmlns="http://www.w3.org/2000/svg"
   xmlns:inkscape="http://www.inkscape.org/namespaces/inkscape"
   version="1.1"
   width="113.386"
   height="113.386"
   viewBox="0 0 113.386 113.386"
   id="Layer_1"
   xml:space="preserve"
   style="overflow:inherit"><metadata
   id="metadata33"><rdf:RDF><cc:Work
       rdf:about=""><dc:format>image/svg+xml</dc:format><dc:type
         rdf:resource="http://purl.org/dc/dcmitype/StillImage" /></cc:Work></rdf:RDF></metadata><defs
   id="defs31" />
<polygon
   points="23.544,86.462 21.126,86.19 32.107,53.925 42.393,63.303 "
   id="polygon3"
   style="fill:#b9e5fb;stroke:#000000;stroke-linejoin:round" />
<polygon
   points="73.843,86.462 76.262,86.19 65.28,53.925 54.994,63.303 "
   id="polygon5"
   style="fill:#b9e5fb;stroke:#000000;stroke-linejoin:round" />
<path
   d="m 65.705,82.904 c 0,0 0.5,6.12 6.458,4.446"
   inkscape:connector-curvature="0"
   id="path7"
   style="fill:none;stroke:#000000;stroke-width:0.5" />
<path
   d="m 66.116,81.858 c 0.102,0.547 0.21,0.905 0.334,1.346 l -1.61,-0.181 c 0.089,-0.141 0.402,-0.729 0.62,-1.238 0.234,-0.544 0.408,-1.045 0.486,-1.371 0.005,0.333 0.064,0.86 0.17,1.444 z"
   inkscape:connector-curvature="0"
   id="path9" />
<path
   d="m 31.909,82.904 c 0,0 -0.5,6.12 -6.458,4.446"
   inkscape:connector-curvature="0"
   id="path11"
   style="fill:none;stroke:#000000;stroke-width:0.5" />
<path
   d="m 31.498,81.858 c -0.102,0.547 -0.21,0.905 -0.334,1.346 l 1.611,-0.181 c -0.089,-0.141 -0.402,-0.729 -0.621,-1.238 -0.233,-0.544 -0.407,-1.045 -0.486,-1.371 -0.005,0.333 -0.064,0.86 -0.17,1.444 z"
   inkscape:connector-curvature="0"
   id="path13" />
<polyline
   fill="#B9E5FB"
   stroke="#000000"
   stroke-linejoin="round"
   points="62.774,40.056 99.894,55.565 46.92,55.574   62.774,40.056 "
   id="polyline15"
   style="fill:#b9e5fb;stroke:#000000;stroke-linejoin:round" />
<polygon
   points="23.934,27.053 47.942,27.032 39.84,20.405 "
   id="polygon17"
   style="fill:#b9e5fb;stroke:#000000;stroke-linejoin:round" />
<polygon
   points="37.377,27.285 46.691,33.568 46.92,55.574 68.576,55.993 46.971,76.15 26.115,55.278 "
   id="polygon19"
   style="fill:#b9e5fb;stroke:#000000;stroke-linejoin:round" />
<polygon
   points="47.309,55.224 16.146,87.06 13.64,86.72 39.65,20.568 47.942,27.032 "
   id="polygon21"
   style="fill:#b9e5fb;stroke:#000000;stroke-linejoin:round" />
<polygon
   points="24.35,80.429 21.09,85.955 23.924,86.238 "
   id="polygon23"
   style="fill:#b9e5fb;stroke:#000000;stroke-linecap:round;stroke-linejoin:round" />
<polygon
   points="73.796,80.826 76.665,86.355 74.164,86.636 "
   id="polygon25"
   style="fill:#b9e5fb;stroke:#000000;stroke-linecap:round;stroke-linejoin:round" />
<polygon
   points="79.537,86.794 81.591,85.888 62.774,40.056 47.309,55.224 "
   id="polygon27"
   style="fill:#b9e5fb;stroke:#000000;stroke-linejoin:round" />
</svg>