<?xml version="1.0" encoding="UTF-8" standalone="no"?>
<!-- Created with Inkscape (http://www.inkscape.org/) -->

<svg
   xmlns:dc="http://purl.org/dc/elements/1.1/"
   xmlns:cc="http://creativecommons.org/ns#"
   xmlns:rdf="http://www.w3.org/1999/02/22-rdf-syntax-ns#"
   xmlns:svg="http://www.w3.org/2000/svg"
   xmlns="http://www.w3.org/2000/svg"
   version="1.1"
   width="127.559"
   height="127.56"
   viewBox="0 0 127.559 127.56"
   id="Layer_1"
   xml:space="preserve"
   style="overflow:inherit"><metadata
   id="metadata23"><rdf:RDF><cc:Work
       rdf:about=""><dc:format>image/svg+xml</dc:format><dc:type
         rdf:resource="http://purl.org/dc/dcmitype/StillImage" /></cc:Work></rdf:RDF></metadata><defs
   id="defs21" />
<polyline
   fill="#B9E5FB"
   stroke="#000000"
   stroke-linejoin="round"
   points="35.634,12.471 32.795,18.458 26.391,14.328   28.138,11.089 35.634,12.471 "
   id="polyline3"
   style="fill:#b9e5fb;stroke:#000000;stroke-linejoin:round" />
<polygon
   points="37.625,19.511 33.522,16.53 32.795,18.458 "
   id="polygon5"
   style="fill:#b9e5fb;stroke:#000000;stroke-linejoin:round" />
<polygon
   points="59.157,32.927 52.38,55.519 48.003,50.435 55.853,30.936 50.122,13.158 "
   id="polygon7"
   style="fill:#b9e5fb;stroke:#000000;stroke-linejoin:round" />
<polygon
   points="99.29,87.278 77.229,111.438 62.063,95.683 "
   id="polygon9"
   style="fill:#b9e5fb;stroke:#000000;stroke-linejoin:round" />
<polygon
   points="39.264,118.183 72.709,118.106 79.488,110.308 72.036,73.94 34.274,35.042 29.763,95.18 "
   id="polygon11"
   style="fill:#b9e5fb;stroke:#000000;stroke-linejoin:round" />
<line
   fill="none"
   stroke="#000000"
   stroke-dasharray="2,2,2"
   x1="55.452999"
   y1="31.091999"
   x2="49.241001"
   y2="10.897"
   id="line13"
   style="fill:none;stroke:#000000;stroke-dasharray:2, 2, 2" />
<polygon
   points="29.447,95.18 29.19,41.82 46.133,10.897 55.853,31.256 "
   id="polygon15"
   style="fill:#b9e5fb;stroke:#000000;stroke-linejoin:round" />
<polygon
   points="55.853,30.936 49.605,10.954 37.669,8.756 33.522,16.53 "
   id="polygon17"
   style="fill:#b9e5fb;stroke:#000000;stroke-linejoin:round" />
</svg>