<?xml version="1.0" encoding="UTF-8" standalone="no"?>
<!-- Created with Inkscape (http://www.inkscape.org/) -->

<svg
   xmlns:dc="http://purl.org/dc/elements/1.1/"
   xmlns:cc="http://creativecommons.org/ns#"
   xmlns:rdf="http://www.w3.org/1999/02/22-rdf-syntax-ns#"
   xmlns:svg="http://www.w3.org/2000/svg"
   xmlns="http://www.w3.org/2000/svg"
   xmlns:inkscape="http://www.inkscape.org/namespaces/inkscape"
   version="1.1"
   width="127.559"
   height="127.56"
   viewBox="0 0 127.559 127.56"
   id="Layer_1"
   xml:space="preserve"
   style="overflow:inherit"><metadata
   id="metadata25"><rdf:RDF><cc:Work
       rdf:about=""><dc:format>image/svg+xml</dc:format><dc:type
         rdf:resource="http://purl.org/dc/dcmitype/StillImage" /></cc:Work></rdf:RDF></metadata><defs
   id="defs23" />
<g
   id="g3">
	<path
   d="m 66.852,40.602 c 0,0 -10.561,-8.872 0.846,-13.521"
   inkscape:connector-curvature="0"
   id="path5"
   style="fill:none;stroke:#000000;stroke-width:0.5" />
	<path
   d="m 69.275,27.013 c -1.225,1.01 -1.971,1.778 -2.901,2.707 L 64.58,25.448 c 0.48,0.023 2.385,-0.017 3.961,-0.182 1.688,-0.176 3.179,-0.439 4.104,-0.699 -0.831,0.485 -2.062,1.364 -3.37,2.446 z"
   inkscape:connector-curvature="0"
   id="path7" />
</g>
<polygon
   points="96.708,118.481 17.462,118.67 99.871,34.758 103.181,95.935 "
   id="polygon9"
   style="fill:#b9e5fb;stroke:#000000;stroke-linejoin:round" />
<polygon
   points="89.479,120.568 13.238,120.36 98.354,34.758 98.957,97.624 "
   id="polygon11"
   style="fill:#b9e5fb;stroke:#000000;stroke-linejoin:round" />
<line
   fill="none"
   stroke="#000000"
   stroke-dasharray="2,2,2"
   x1="73.332001"
   y1="33.702"
   x2="79.527"
   y2="13.562"
   id="line13"
   style="fill:none;stroke:#000000;stroke-dasharray:2, 2, 2" />
<polygon
   points="99.27,97.624 99.871,34.758 79.168,13.938 72.932,33.867 "
   id="polygon15"
   style="fill:#b9e5fb;stroke:#000000;stroke-linejoin:round" />
<polygon
   points="113.684,7.259 79.163,13.614 72.933,33.545 "
   id="polygon17"
   style="fill:#b9e5fb;stroke:#000000;stroke-linejoin:round" />
<circle
   cx="99.807999"
   cy="33.841999"
   r="6.572"
   id="circle19"
   style="fill:none;stroke:#00aeef" />
</svg>