<?xml version="1.0" encoding="UTF-8" standalone="no"?>
<!-- Created with Inkscape (http://www.inkscape.org/) -->

<svg
   xmlns:dc="http://purl.org/dc/elements/1.1/"
   xmlns:cc="http://creativecommons.org/ns#"
   xmlns:rdf="http://www.w3.org/1999/02/22-rdf-syntax-ns#"
   xmlns:svg="http://www.w3.org/2000/svg"
   xmlns="http://www.w3.org/2000/svg"
   xmlns:inkscape="http://www.inkscape.org/namespaces/inkscape"
   version="1.1"
   width="127.559"
   height="127.56"
   viewBox="0 0 127.559 127.56"
   id="Layer_1"
   xml:space="preserve"
   style="overflow:inherit"><metadata
   id="metadata21"><rdf:RDF><cc:Work
       rdf:about=""><dc:format>image/svg+xml</dc:format><dc:type
         rdf:resource="http://purl.org/dc/dcmitype/StillImage" /></cc:Work></rdf:RDF></metadata><defs
   id="defs19" />
<polygon
   points="14.118,113.879 114.095,12.677 77.325,110.342 "
   id="polygon3"
   style="fill:#b9e5fb;stroke:#000000" />
<polygon
   points="13.658,113.688 114.095,12.677 72.305,113.848 "
   id="polygon5"
   style="fill:#b9e5fb;stroke:#000000" />
<g
   id="g7">
	<path
   d="m 67.311,50.019 c 0,0 7.305,-7.014 23.555,-1.813"
   inkscape:connector-curvature="0"
   id="path9"
   style="fill:none;stroke:#000000;stroke-width:0.5" />
	<path
   d="m 65.513,51.714 c 1.198,-0.24 2.019,-0.311 3.023,-0.418 l -1.681,-3.145 c -0.218,0.299 -1.165,1.416 -2.028,2.276 -0.925,0.922 -1.806,1.687 -2.41,2.111 0.694,-0.261 1.816,-0.569 3.096,-0.824 z"
   inkscape:connector-curvature="0"
   id="path11" />
	<path
   d="m 92.166,50.805 c -1.198,-0.24 -2.019,-0.311 -3.024,-0.417 l 1.682,-3.145 c 0.218,0.298 1.165,1.416 2.028,2.275 0.924,0.922 1.806,1.687 2.409,2.111 -0.693,-0.26 -1.816,-0.569 -3.095,-0.824 z"
   inkscape:connector-curvature="0"
   id="path13" />
</g>
<line
   fill="none"
   stroke="#000000"
   stroke-dasharray="4,4,4"
   x1="79.188004"
   y1="96.042"
   x2="79.537003"
   y2="18.691"
   id="line15"
   style="fill:none;stroke:#000000;stroke-dasharray:4, 4, 4" />
</svg>