<?xml version="1.0" encoding="UTF-8" standalone="no"?>
<!-- Created with Inkscape (http://www.inkscape.org/) -->

<svg
   xmlns:dc="http://purl.org/dc/elements/1.1/"
   xmlns:cc="http://creativecommons.org/ns#"
   xmlns:rdf="http://www.w3.org/1999/02/22-rdf-syntax-ns#"
   xmlns:svg="http://www.w3.org/2000/svg"
   xmlns="http://www.w3.org/2000/svg"
   xmlns:inkscape="http://www.inkscape.org/namespaces/inkscape"
   version="1.1"
   width="127.559"
   height="127.56"
   viewBox="0 0 127.559 127.56"
   id="Layer_1"
   xml:space="preserve"
   style="overflow:inherit"><metadata
   id="metadata21"><rdf:RDF><cc:Work
       rdf:about=""><dc:format>image/svg+xml</dc:format><dc:type
         rdf:resource="http://purl.org/dc/dcmitype/StillImage" /></cc:Work></rdf:RDF></metadata><defs
   id="defs19" />
<polygon
   points="84.366,112.242 23.408,112.389 86.798,47.84 89.344,94.899 "
   id="polygon3"
   style="fill:#b9e5fb;stroke:#000000;stroke-linejoin:round" />
<polygon
   points="52.191,13.768 86.798,47.84 89.344,94.899 "
   id="polygon5"
   style="fill:#b9e5fb;stroke:#000000;stroke-linejoin:round" />
<polygon
   points="78.805,113.848 20.158,113.688 85.632,47.84 86.094,96.199 "
   id="polygon7"
   style="fill:#b9e5fb;stroke:#000000;stroke-linejoin:round" />
<polygon
   points="51.833,12.677 86.798,47.84 86.335,96.199 "
   id="polygon9"
   style="fill:#b9e5fb;stroke:#000000;stroke-linejoin:round" />
<g
   id="g11">
	<path
   d="m 84.475,30.587 c 0,0 21.341,11.288 7.475,20.821"
   inkscape:connector-curvature="0"
   id="path13"
   style="fill:none;stroke:#000000;stroke-width:0.5" />
	<path
   d="m 82.022,30.276 c 0.947,0.772 1.523,1.36 2.247,2.068 l 1.358,-3.295 c -0.371,0.019 -1.833,0.001 -3.047,-0.121 -1.3,-0.127 -2.447,-0.32 -3.161,-0.516 0.64,0.369 1.592,1.038 2.603,1.864 z"
   inkscape:connector-curvature="0"
   id="path15" />
</g>
</svg>