<?xml version="1.0" encoding="UTF-8" standalone="no"?>
<!-- Created with Inkscape (http://www.inkscape.org/) -->

<svg
   xmlns:dc="http://purl.org/dc/elements/1.1/"
   xmlns:cc="http://creativecommons.org/ns#"
   xmlns:rdf="http://www.w3.org/1999/02/22-rdf-syntax-ns#"
   xmlns:svg="http://www.w3.org/2000/svg"
   xmlns="http://www.w3.org/2000/svg"
   xmlns:inkscape="http://www.inkscape.org/namespaces/inkscape"
   version="1.1"
   width="127.559"
   height="127.56"
   viewBox="0 0 127.559 127.56"
   id="Layer_1"
   xml:space="preserve"
   style="overflow:inherit"><metadata
   id="metadata27"><rdf:RDF><cc:Work
       rdf:about=""><dc:format>image/svg+xml</dc:format><dc:type
         rdf:resource="http://purl.org/dc/dcmitype/StillImage" /></cc:Work></rdf:RDF></metadata><defs
   id="defs25" />
<rect
   width="78.167999"
   height="78.167999"
   x="24.052"
   y="24.346001"
   transform="matrix(-0.7071,-0.7071,0.7071,-0.7071,62.9303,152.9257)"
   id="rect3"
   style="fill:#ffffff;stroke:#000000" />
<line
   fill="none"
   stroke="#BCBEC0"
   stroke-width="0.5"
   x1="63.618999"
   y1="118.653"
   x2="63.618999"
   y2="8.7729998"
   id="line5"
   style="fill:none;stroke:#bcbec0;stroke-width:0.5" />
<g
   id="g7">
	<path
   d="m 73.486,82.685 c 0,0 20.181,-0.316 43.515,-18.702"
   inkscape:connector-curvature="0"
   id="path9"
   style="fill:none;stroke:#000000;stroke-width:0.5" />
	<path
   d="m 71.637,82.24 c 0.891,-0.297 1.467,-0.563 2.178,-0.876 l 0.081,2.74 c -0.261,-0.115 -1.319,-0.5 -2.226,-0.744 -0.969,-0.262 -1.848,-0.436 -2.414,-0.488 0.563,-0.09 1.429,-0.312 2.381,-0.632 z"
   inkscape:connector-curvature="0"
   id="path11" />
</g>
<g
   id="g13">
	<path
   d="m 50.975,82.282 c 0,0 -20.178,-0.449 -43.392,-18.988"
   inkscape:connector-curvature="0"
   id="path15"
   style="fill:none;stroke:#000000;stroke-width:0.5" />
	<path
   d="m 52.827,81.85 c -0.89,-0.304 -1.463,-0.573 -2.173,-0.891 l -0.099,2.74 c 0.262,-0.113 1.323,-0.491 2.23,-0.729 0.971,-0.256 1.851,-0.424 2.417,-0.474 -0.559,-0.093 -1.426,-0.321 -2.375,-0.646 z"
   inkscape:connector-curvature="0"
   id="path17" />
</g>
<line
   fill="none"
   stroke="#000000"
   stroke-dasharray="4,4,4"
   x1="30.910999"
   y1="86.080002"
   x2="63.262001"
   y2="8.7740002"
   id="line19"
   style="fill:none;stroke:#000000;stroke-dasharray:4, 4, 4" />
<line
   fill="none"
   stroke="#000000"
   stroke-dasharray="4,4,4"
   x1="63.438"
   y1="8.7729998"
   x2="95.788002"
   y2="86.079002"
   id="line21"
   style="fill:none;stroke:#000000;stroke-dasharray:4, 4, 4" />
</svg>