<?xml version="1.0" encoding="UTF-8" standalone="no"?>
<!-- Created with Inkscape (http://www.inkscape.org/) -->

<svg
   xmlns:dc="http://purl.org/dc/elements/1.1/"
   xmlns:cc="http://creativecommons.org/ns#"
   xmlns:rdf="http://www.w3.org/1999/02/22-rdf-syntax-ns#"
   xmlns:svg="http://www.w3.org/2000/svg"
   xmlns="http://www.w3.org/2000/svg"
   xmlns:inkscape="http://www.inkscape.org/namespaces/inkscape"
   version="1.1"
   width="127.559"
   height="127.56"
   viewBox="0 0 127.559 127.56"
   id="Layer_1"
   xml:space="preserve"
   style="overflow:inherit"><metadata
   id="metadata31"><rdf:RDF><cc:Work
       rdf:about=""><dc:format>image/svg+xml</dc:format><dc:type
         rdf:resource="http://purl.org/dc/dcmitype/StillImage" /></cc:Work></rdf:RDF></metadata><defs
   id="defs29" />
<polygon
   points="27.186,81.224 46.064,111.908 64.317,89.606 "
   id="polygon3"
   style="fill:#b9e5fb;stroke:#000000;stroke-linejoin:round" />
<polyline
   fill="#B9E5FB"
   stroke="#000000"
   stroke-linejoin="round"
   points="46.323,112.064 54.491,68.328 64.302,89.542   46.323,112.064 "
   id="polyline5"
   style="fill:#b9e5fb;stroke:#000000;stroke-linejoin:round" />
<polyline
   fill="#B9E5FB"
   stroke="#000000"
   stroke-linejoin="round"
   points="89.412,3.792 92.245,9.765 98.631,5.645 96.888,2.415   89.412,3.792 "
   id="polyline7"
   style="fill:#b9e5fb;stroke:#000000;stroke-linejoin:round" />
<polyline
   fill="#B9E5FB"
   stroke="#000000"
   stroke-linejoin="round"
   points="53.06,76.43 97.107,35.884 100.76,87.415   94.287,109.962 46.516,109.962 53.06,76.43 "
   id="polyline9"
   style="fill:#b9e5fb;stroke:#000000;stroke-linejoin:round" />
<polygon
   points="87.058,112.048 46.126,111.937 54.371,67.92 92.036,29.123 96.536,89.104 "
   id="polygon11"
   style="fill:#b9e5fb;stroke:#000000;stroke-linejoin:round" />
<line
   fill="none"
   stroke="#000000"
   stroke-dasharray="2,2,2"
   x1="70.911003"
   y1="25.181999"
   x2="77.106003"
   y2="5.04"
   id="line13"
   style="fill:none;stroke:#000000;stroke-dasharray:2, 2, 2" />
<polygon
   points="96.849,89.104 97.107,35.884 80.207,5.04 70.511,25.347 "
   id="polygon15"
   style="fill:#b9e5fb;stroke:#000000;stroke-linejoin:round" />
<polygon
   points="70.511,25.026 76.744,5.097 88.649,2.905 92.785,10.658 "
   id="polygon17"
   style="fill:#b9e5fb;stroke:#000000;stroke-linejoin:round" />
<line
   fill="none"
   stroke="#000000"
   stroke-dasharray="4,4,4"
   x1="27.186001"
   y1="81.223999"
   x2="68.342003"
   y2="125.039"
   id="line19"
   style="fill:none;stroke:#000000;stroke-dasharray:4, 4, 4" />
<g
   id="g21">
	<path
   d="m 33.977,108.273 c 0,0 -2.534,4.789 1.41,7.888 4.081,3.208 9.294,1.688 17.181,-6.762"
   inkscape:connector-curvature="0"
   id="path23"
   style="fill:none;stroke:#000000;stroke-width:0.5" />
	<path
   d="m 36.288,106.038 c -0.384,1.541 -0.526,2.604 -0.724,3.902 l -3.983,-2.368 c 0.399,-0.269 1.907,-1.428 3.072,-2.501 1.255,-1.146 2.3,-2.241 2.889,-3.003 -0.38,0.885 -0.848,2.322 -1.254,3.97 z"
   inkscape:connector-curvature="0"
   id="path25" />
</g>
</svg>