<?xml version="1.0" encoding="UTF-8" standalone="no"?>
<!-- Created with Inkscape (http://www.inkscape.org/) -->

<svg
   xmlns:dc="http://purl.org/dc/elements/1.1/"
   xmlns:cc="http://creativecommons.org/ns#"
   xmlns:rdf="http://www.w3.org/1999/02/22-rdf-syntax-ns#"
   xmlns:svg="http://www.w3.org/2000/svg"
   xmlns="http://www.w3.org/2000/svg"
   xmlns:inkscape="http://www.inkscape.org/namespaces/inkscape"
   version="1.1"
   width="127.559"
   height="127.56"
   viewBox="0 0 127.559 127.56"
   id="Layer_1"
   xml:space="preserve"
   style="overflow:inherit"><metadata
   id="metadata25"><rdf:RDF><cc:Work
       rdf:about=""><dc:format>image/svg+xml</dc:format><dc:type
         rdf:resource="http://purl.org/dc/dcmitype/StillImage" /></cc:Work></rdf:RDF></metadata><defs
   id="defs23" />
<polygon
   points="92.6,112.242 31.642,112.389 95.032,47.84 97.579,94.899 "
   id="polygon3"
   style="fill:#b9e5fb;stroke:#000000;stroke-linejoin:round" />
<polygon
   points="60.067,12.677 95.032,47.84 97.579,94.899 "
   id="polygon5"
   style="fill:#b9e5fb;stroke:#000000;stroke-linejoin:round" />
<polygon
   points="87.04,113.848 28.392,113.688 93.867,47.84 94.329,96.199 "
   id="polygon7"
   style="fill:#b9e5fb;stroke:#000000;stroke-linejoin:round" />
<polygon
   points="60.067,12.677 95.032,47.84 94.57,96.199 "
   id="polygon9"
   style="fill:#b9e5fb;stroke:#000000;stroke-linejoin:round" />
<line
   fill="none"
   stroke="#000000"
   stroke-dasharray="2,2,2"
   x1="74.617996"
   y1="47.026001"
   x2="79.384003"
   y2="31.534"
   id="line11"
   style="fill:none;stroke:#000000;stroke-dasharray:2, 2, 2" />
<g
   id="g13">
	<path
   d="m 80.592,19.917 c 0,0 4.283,-4.646 12.711,0.534"
   inkscape:connector-curvature="0"
   id="path15"
   style="fill:none;stroke:#000000;stroke-width:0.5" />
	<path
   d="m 78.713,21.523 c 1.209,-0.183 2.031,-0.213 3.039,-0.271 l -1.525,-3.223 c -0.231,0.287 -1.231,1.358 -2.136,2.176 -0.967,0.876 -1.884,1.597 -2.509,1.992 0.705,-0.226 1.841,-0.481 3.131,-0.674 z"
   inkscape:connector-curvature="0"
   id="path17" />
	<path
   d="m 94.062,21.396 c -1.183,-0.298 -2.001,-0.408 -2.998,-0.563 l 1.828,-3.06 c 0.205,0.309 1.097,1.471 1.919,2.372 0.879,0.965 1.719,1.771 2.303,2.226 -0.678,-0.296 -1.784,-0.658 -3.052,-0.975 z"
   inkscape:connector-curvature="0"
   id="path19" />
</g>
</svg>