<?xml version="1.0" encoding="UTF-8" standalone="no"?>
<!-- Created with Inkscape (http://www.inkscape.org/) -->

<svg
   xmlns:dc="http://purl.org/dc/elements/1.1/"
   xmlns:cc="http://creativecommons.org/ns#"
   xmlns:rdf="http://www.w3.org/1999/02/22-rdf-syntax-ns#"
   xmlns:svg="http://www.w3.org/2000/svg"
   xmlns="http://www.w3.org/2000/svg"
   version="1.1"
   width="127.559"
   height="127.56"
   viewBox="0 0 127.559 127.56"
   id="Layer_1"
   xml:space="preserve"
   style="overflow:inherit"><metadata
   id="metadata25"><rdf:RDF><cc:Work
       rdf:about=""><dc:format>image/svg+xml</dc:format><dc:type
         rdf:resource="http://purl.org/dc/dcmitype/StillImage" /></cc:Work></rdf:RDF></metadata><defs
   id="defs23" />
<polygon
   points="97.076,1.953 100.803,9.479 95.792,10.964 93.109,4.925 "
   id="polygon3"
   style="fill:#b9e5fb;stroke:#000000;stroke-linejoin:round" />
<polygon
   points="102.559,108.976 23.314,109.163 105.377,34.897 109.031,86.428 "
   id="polygon5"
   style="fill:#b9e5fb;stroke:#000000;stroke-linejoin:round" />
<polygon
   points="95.331,111.127 19.088,110.919 100.308,28.202 104.806,88.184 "
   id="polygon7"
   style="fill:#b9e5fb;stroke:#000000;stroke-linejoin:round" />
<line
   fill="none"
   stroke="#000000"
   stroke-dasharray="2,2,2"
   x1="79.182999"
   y1="24.195"
   x2="85.377998"
   y2="4.0560002"
   id="line9"
   style="fill:none;stroke:#000000;stroke-dasharray:2, 2, 2" />
<polygon
   points="105.12,88.117 105.377,34.897 88.477,4.056 78.784,24.36 "
   id="polygon11"
   style="fill:#b9e5fb;stroke:#000000;stroke-linejoin:round" />
<polygon
   points="78.784,24.038 85.015,4.108 96.921,1.916 101.057,9.672 "
   id="polygon13"
   style="fill:#b9e5fb;stroke:#000000;stroke-linejoin:round" />
<polyline
   fill="#B9E5FB"
   stroke="#000000"
   stroke-linejoin="round"
   points="97.684,2.805 100.515,8.775 106.902,4.658   105.161,1.428 97.684,2.805 "
   id="polyline15"
   style="fill:#b9e5fb;stroke:#000000;stroke-linejoin:round" />
<line
   fill="none"
   stroke="#000000"
   stroke-dasharray="2,2,2"
   x1="64.607002"
   y1="54.169998"
   x2="53.477001"
   y2="120.838"
   id="line17"
   style="fill:none;stroke:#000000;stroke-dasharray:2, 2, 2" />
<line
   fill="none"
   stroke="#000000"
   stroke-dasharray="2,2,2"
   x1="41.719002"
   y1="69.117996"
   x2="59.463001"
   y2="123.198"
   id="line19"
   style="fill:none;stroke:#000000;stroke-dasharray:2, 2, 2" />
</svg>