<?xml version="1.0" encoding="UTF-8" standalone="no"?>
<!-- Created with Inkscape (http://www.inkscape.org/) -->

<svg
   xmlns:dc="http://purl.org/dc/elements/1.1/"
   xmlns:cc="http://creativecommons.org/ns#"
   xmlns:rdf="http://www.w3.org/1999/02/22-rdf-syntax-ns#"
   xmlns:svg="http://www.w3.org/2000/svg"
   xmlns="http://www.w3.org/2000/svg"
   xmlns:inkscape="http://www.inkscape.org/namespaces/inkscape"
   version="1.1"
   width="127.559"
   height="127.56"
   viewBox="0 0 127.559 127.56"
   id="Layer_1"
   xml:space="preserve"
   style="overflow:inherit"><metadata
   id="metadata19"><rdf:RDF><cc:Work
       rdf:about=""><dc:format>image/svg+xml</dc:format><dc:type
         rdf:resource="http://purl.org/dc/dcmitype/StillImage" /></cc:Work></rdf:RDF></metadata><defs
   id="defs17" />
<g
   id="g3">
	<path
   d="m 91.904,110.566 c 0,0 -8.722,7.508 -22.771,7.993 -14.049,0.484 -24.948,-3.631 -24.948,-3.631 l 51.891,-27.815 -4.172,23.453 z"
   inkscape:connector-curvature="0"
   id="path5"
   style="fill:#b9e5fb;stroke:#000000;stroke-linejoin:round" />
	<path
   d="M 29.748,20.109 17.41,59.543 40.309,114.685 c 0,0 12.111,4.604 24.223,4.604 12.11,0 23.495,-6.541 23.495,-6.541 L 91.959,94.479 58.927,31.949 40.526,13.443 29.748,20.109 z"
   inkscape:connector-curvature="0"
   id="path7"
   style="fill:#b9e5fb;stroke:#000000;stroke-linejoin:round" />
	<path
   d="M 58.718,8.994 C 43.215,9.963 29.497,20.027 29.497,20.027 L 17.411,58.693 86.94,13.845 c 0,0 -13.072,-5.798 -28.222,-4.851 z"
   inkscape:connector-curvature="0"
   id="path9"
   style="fill:#b9e5fb;stroke:#000000;stroke-linejoin:round" />
</g>
<path
   d="m 117.824,63.574 c 0,30.298 -24.579,54.881 -54.879,54.881 -30.3,0 -54.879,-24.583 -54.879,-54.881 0,-30.298 24.579,-54.878 54.879,-54.878 30.3,0 54.879,24.58 54.879,54.878 z"
   inkscape:connector-curvature="0"
   id="path11"
   style="fill:none;stroke:#00aeef;stroke-width:2.98119998" />
<polygon
   points="96.076,87.113 91.958,94.479 58.927,31.949 "
   id="polygon13"
   style="fill:#b9e5fb;stroke:#000000;stroke-linejoin:round" />
</svg>