<?xml version="1.0" encoding="UTF-8" standalone="no"?>
<!-- Created with Inkscape (http://www.inkscape.org/) -->
<svg id="Layer_1" xmlns:rdf="http://www.w3.org/1999/02/22-rdf-syntax-ns#" xmlns="http://www.w3.org/2000/svg" xml:space="preserve" height="127.56" width="127.56" version="1.1" xmlns:cc="http://creativecommons.org/ns#" xmlns:dc="http://purl.org/dc/elements/1.1/" viewBox="0 0 127.559 127.56"><metadata id="metadata83"><rdf:RDF><cc:Work rdf:about=""><dc:format>image/svg+xml</dc:format><dc:type rdf:resource="http://purl.org/dc/dcmitype/StillImage"/><dc:title/></cc:Work></rdf:RDF></metadata><defs id="defs81">
</defs>
<path id="path51" d="m3,38.756s13.421-19.615,22.712-25.465l-2.753-9.291,30.282,16.174-17.55,27.53-2.753-9.292s-16.861-1.722-29.938,0.344z" stroke="#000" stroke-width="0.50000000000000000" fill="#FFF"/><g id="g3">
	<line id="line5" y2="71.431" x1="110.32" x2="103.17" stroke="#000" y1="65.963" stroke-width="1.9316" fill="none"/>
	<path id="path7" d="m102.13,73.644c1.542-0.486,2.635-0.684,3.962-0.96l-3.379-4.414c-0.195,0.464-1.091,2.211-1.962,3.571-0.938,1.457-1.863,2.674-2.534,3.372,0.847-0.468,2.262-1.046,3.913-1.569z"/>
</g>
<rect id="rect11" height="20.155" width="31.988" y="22.268" x="17.134" fill="none"/><text id="text13" font-size="6.30859995px" y="26.746099" x="17.1343" font-family="Myriad-Italic">s</text>
<text id="text15" font-size="6.30859995px" y="26.746099" x="19.487301" font-family="Myriad-Italic">e</text>
<text id="text17" font-size="6.30859995px" y="26.746099" x="22.3452" font-family="Myriad-Italic">c</text>
<text id="text19" font-size="6.30859995px" y="26.746099" x="25.0508" font-family="Myriad-Italic">t</text>
<text id="text21" font-size="6.30859995px" y="26.746099" x="27.0254" font-family="Myriad-Italic">i</text>
<text id="text23" font-size="6.30859995px" y="26.746099" x="28.4702" font-family="Myriad-Italic">o</text>
<text id="text25" font-size="6.30859995px" y="26.746099" x="31.763201" font-family="Myriad-Italic">n</text>
<text id="text27" font-size="6.30859995px" y="26.746099" x="35.131802" font-family="Myriad-Italic"> </text>
<text id="text29" font-size="6.30859995px" y="26.746099" x="36.2798" font-family="Myriad-Italic">i</text>
<text id="text31" font-size="6.30859995px" y="26.746099" x="37.724602" font-family="Myriad-Italic">s</text>
<text id="text33" font-size="6.30859995px" y="26.746099" x="40.077599" font-family="Myriad-Italic"> </text>
<text id="text35" font-size="6.30859995px" y="33.054699" x="17.1343" font-family="Myriad-Italic">e</text>
<text id="text37" font-size="6.30859995px" y="33.054699" x="19.992201" font-family="Myriad-Italic">n</text>
<text id="text39" font-size="6.30859995px" y="33.054699" x="23.3608" font-family="Myriad-Italic">l</text>
<text id="text41" font-size="6.30859995px" y="33.054699" x="24.8057" font-family="Myriad-Italic">a</text>
<text id="text43" font-size="6.30859995px" y="33.054699" x="28.0986" font-family="Myriad-Italic">r</text>
<text id="text45" font-size="6.30859995px" y="33.054699" x="30.055201" font-family="Myriad-Italic">g</text>
<text id="text47" font-size="6.30859995px" y="33.054699" x="33.360802" font-family="Myriad-Italic">e</text>
<text id="text49" font-size="6.30859995px" y="33.054699" x="36.2188" font-family="Myriad-Italic">d</text>
<g id="g53" stroke-linejoin="round" stroke="#000" fill="#b9e5fb">
	<path id="path55" d="m96.62,113.82s-6.707,5.775-17.515,6.148-19.191-2.793-19.191-2.793l34.247-40.79,2.459,37.435z"/>
	<path id="path57" d="m48.808,44.236-9.491,30.333,17.615,42.417s9.316,3.541,18.633,3.541,18.074-5.031,18.074-5.031l0.525-39.116-37.065-37.276-8.291,5.128z"/>
	<path id="path59" d="M71.092,35.686c-11.924,0.745-22.477,8.487-22.477,8.487l-9.297,29.743,53.484-34.499s-10.055-4.459-21.71-3.731z"/>
</g>
<path id="path61" d="m116.56,77.671c0,23.306-18.908,42.216-42.215,42.216s-42.215-18.91-42.215-42.216c0-23.307,18.908-42.214,42.215-42.214s42.215,18.907,42.215,42.214z" stroke="#00aeef" stroke-width="2.98119998" fill="none"/>
<g id="g63">
	<path id="path65" d="m87.76,81.993s-4.189,9.857-23.725,10.916" stroke="#000" stroke-width="0.5" fill="none"/>
	<path id="path67" d="m88.997,79.443c-1.186,0.747-2.036,1.157-3.07,1.681l3.083,2.686c0.113-0.41,0.671-1.994,1.246-3.268,0.614-1.365,1.245-2.543,1.72-3.246-0.636,0.562-1.713,1.351-2.979,2.147z"/>
	<path id="path69" d="m60.805,91.294c1.383-0.23,2.291-0.49,3.412-0.787l-0.517,4.055c-0.356-0.229-1.826-1.041-3.104-1.609-1.366-0.611-2.621-1.07-3.442-1.279,0.847-0.005,2.177-0.13,3.651-0.38z"/>
</g>
<line id="line71" y2="101.44" x2="95.663" stroke="#000" stroke-dasharray="4, 4, 4" y1="53.821" x1="70.773" fill="none"/>
<g id="g73">
	<line id="line75" y2="25.84" x1="98.489" x2="112.46" stroke="#000" y1="25.84" stroke-width="3" fill="none"/>
	<path id="path77" d="m115.83,24.09c-2.359-0.855-3.895-1.643-5.791-2.555v8.633c0.678-0.387,3.432-1.697,5.791-2.553,2.531-0.914,4.822-1.539,6.309-1.766-1.487-0.224-3.778-0.845-6.309-1.759z"/>
</g>
</svg>
