<?xml version="1.0" encoding="UTF-8" standalone="no"?>
<!-- Created with Inkscape (http://www.inkscape.org/) -->

<svg
   xmlns:dc="http://purl.org/dc/elements/1.1/"
   xmlns:cc="http://creativecommons.org/ns#"
   xmlns:rdf="http://www.w3.org/1999/02/22-rdf-syntax-ns#"
   xmlns:svg="http://www.w3.org/2000/svg"
   xmlns="http://www.w3.org/2000/svg"
   xmlns:inkscape="http://www.inkscape.org/namespaces/inkscape"
   version="1.1"
   width="127.559"
   height="127.56"
   viewBox="0 0 127.559 127.56"
   id="Layer_1"
   xml:space="preserve"
   style="overflow:inherit"><metadata
   id="metadata19"><rdf:RDF><cc:Work
       rdf:about=""><dc:format>image/svg+xml</dc:format><dc:type
         rdf:resource="http://purl.org/dc/dcmitype/StillImage" /></cc:Work></rdf:RDF></metadata><defs
   id="defs17" />
<rect
   width="78.167999"
   height="78.167999"
   x="24.066"
   y="24.236"
   transform="matrix(0.7071,-0.7071,0.7071,0.7071,-26.278,63.2006)"
   id="rect3"
   style="fill:#ffffff;stroke:#000000" />
<g
   id="g5">
	<path
   d="m 20.25,61.453 c 0,0 43.237,-21.1 92.515,1.151"
   inkscape:connector-curvature="0"
   id="path7"
   style="fill:none;stroke:#000000;stroke-width:0.5" />
	<path
   d="m 18.655,63.32 c 1.626,-0.264 2.739,-0.319 4.101,-0.416 l -2.111,-4.328 c -0.314,0.391 -1.645,1.856 -2.854,2.975 -1.294,1.201 -2.519,2.185 -3.355,2.732 0.946,-0.323 2.476,-0.68 4.219,-0.963 z"
   inkscape:connector-curvature="0"
   id="path9" />
	<path
   d="m 112.042,63.708 c -1.716,-0.348 -2.897,-0.462 -4.339,-0.63 l 2.472,-4.211 c 0.312,0.406 1.65,1.939 2.878,3.12 1.313,1.267 2.562,2.313 3.426,2.905 -0.992,-0.374 -2.6,-0.811 -4.437,-1.184 z"
   inkscape:connector-curvature="0"
   id="path11" />
</g>
<line
   fill="none"
   stroke="#000000"
   stroke-dasharray="4,4,4"
   x1="62.867001"
   y1="118.743"
   x2="62.867001"
   y2="8.8629999"
   id="line13"
   style="fill:none;stroke:#000000;stroke-dasharray:4, 4, 4" />
</svg>