<?xml version="1.0" encoding="UTF-8" standalone="no"?>
<!-- Created with Inkscape (http://www.inkscape.org/) -->

<svg
   xmlns:dc="http://purl.org/dc/elements/1.1/"
   xmlns:cc="http://creativecommons.org/ns#"
   xmlns:rdf="http://www.w3.org/1999/02/22-rdf-syntax-ns#"
   xmlns:svg="http://www.w3.org/2000/svg"
   xmlns="http://www.w3.org/2000/svg"
   version="1.1"
   width="113.386"
   height="113.386"
   viewBox="0 0 113.386 113.386"
   id="Layer_1"
   xml:space="preserve"
   style="overflow:inherit"><metadata
   id="metadata27"><rdf:RDF><cc:Work
       rdf:about=""><dc:format>image/svg+xml</dc:format><dc:type
         rdf:resource="http://purl.org/dc/dcmitype/StillImage" /></cc:Work></rdf:RDF></metadata><defs
   id="defs25" />
<polygon
   points="21.831,18.239 50.591,39.063 55.255,46.679 59.569,55.15 41.239,55.488 "
   id="polygon3"
   style="fill:#b9e5fb;stroke:#000000;stroke-linejoin:round" />
<polygon
   points="35.438,62.209 41.089,66.638 69.4,58.207 97.987,33.862 57.921,54.334 40.947,54.739 "
   id="polygon5"
   style="fill:#b9e5fb;stroke:#000000;stroke-linejoin:round" />
<polygon
   points="22.189,62.427 18.289,80.149 30.007,65.133 30.779,58.456 "
   id="polygon7"
   style="fill:#b9e5fb;stroke:#000000;stroke-linejoin:round" />
<polygon
   points="56.146,45.732 44.847,56.731 76.625,62.749 "
   id="polygon9"
   style="fill:#b9e5fb;stroke:#000000;stroke-linejoin:round" />
<polygon
   points="30.779,58.456 25.622,64.766 18.289,80.149 28.015,69.035 35.898,81.022 38.554,61.521 "
   id="polygon11"
   style="fill:#b9e5fb;stroke:#000000;stroke-linejoin:round" />
<polygon
   points="32.74,71.435 35.898,81.022 54.809,62.327 42.499,55.991 "
   id="polygon13"
   style="fill:#b9e5fb;stroke:#000000;stroke-linejoin:round" />
<polygon
   points="71.517,92.443 42.499,55.991 76.625,62.749 "
   id="polygon15"
   style="fill:#b9e5fb;stroke:#000000;stroke-linejoin:round" />
<line
   fill="#B9E5FB"
   stroke="#000000"
   stroke-linejoin="round"
   x1="25.544001"
   y1="65.440002"
   x2="28.052999"
   y2="69.117996"
   id="line17"
   style="fill:#b9e5fb;stroke:#000000;stroke-linejoin:round" />
<line
   fill="none"
   stroke="#9D9FA2"
   stroke-width="0.5"
   stroke-linejoin="round"
   x1="59.194"
   y1="60.140999"
   x2="70.967003"
   y2="90.760002"
   id="line19"
   style="fill:none;stroke:#9d9fa2;stroke-width:0.5;stroke-linejoin:round" />
<line
   fill="none"
   stroke="#9D9FA2"
   stroke-width="0.5"
   stroke-linejoin="round"
   x1="49.492001"
   y1="50.974998"
   x2="23.827999"
   y2="20.775"
   id="line21"
   style="fill:none;stroke:#9d9fa2;stroke-width:0.5;stroke-linejoin:round" />
</svg>