<?xml version="1.0" encoding="UTF-8" standalone="no"?>
<!-- Generator: Adobe Illustrator 15.0.0, SVG Export Plug-In . SVG Version: 6.00 Build 0)  -->
<svg id="Layer_1" xmlns:rdf="http://www.w3.org/1999/02/22-rdf-syntax-ns#" xmlns="http://www.w3.org/2000/svg" xml:space="preserve" overflow="inherit" height="113.39px" viewBox="0 0 113.39 113.39" width="113.39px" version="1.1" y="0px" x="0px" xmlns:cc="http://creativecommons.org/ns#" xmlns:dc="http://purl.org/dc/elements/1.1/"><metadata id="metadata31"><rdf:RDF><cc:Work rdf:about=""><dc:format>image/svg+xml</dc:format><dc:type rdf:resource="http://purl.org/dc/dcmitype/StillImage"/><dc:title/></cc:Work></rdf:RDF></metadata><defs id="defs29">
</defs>
<rect id="rect3" transform="matrix(0.7071 0.7071 -0.7071 0.7071 67.9947 -27.4209)" height="41.233" width="41.25" stroke="#000" y="47.751" x="46.473" fill="#B9E5FB"/>
<polygon id="polygon5" stroke="#000" points="67.311,15.646,48.333,57.19,66.271,98.458,67.311,15.646,68.199,98.458,85.896,57.19" fill="#B9E5FB"/>
<line id="line7" y2="57.19" x2="85.483" stroke="#BCBEC0" stroke-dasharray="3,3,3" y1="57.19" x1="49.304" fill="#B9E5FB"/>
<g id="g9">
	<line id="line11" y2="50.572" x1="92.794" x2="102.89" stroke="#000" y1="50.572" stroke-width="3" fill="none"/>
	<path id="path13" d="M105.32,49.307c-1.705-0.619-2.814-1.187-4.184-1.846v6.236c0.489-0.278,2.479-1.226,4.184-1.844,1.826-0.661,3.482-1.111,4.557-1.274-1.08-0.163-2.73-0.612-4.56-1.272z"/>
</g>
<line id="line15" y2="57.024" x1="66.425" x2="68.119" stroke="#000" y1="57.024" stroke-width="2" fill="#B9E5FB"/>
<ellipse id="ellipse19" cx="23.824" cy="43.52" rx="4.077" ry="5.331" stroke="#000" fill="none"/><path id="path21" d="M4.673,46.688c5.177-6.025,11.185-9.405,20.026-8.487" fill="none" stroke="#000"/><path id="path23" d="M40.811,44.493c-4.725-4.631-10.276-7.091-17.978-6.292" fill="none" stroke="#000"/><path id="path25" d="M42.023,45.055c-0.463-1.102-0.694-1.875-0.994-2.816l-2.686,2.226c0.33,0.154,1.586,0.842,2.583,1.5,1.065,0.708,1.968,1.399,2.497,1.896-0.387-0.613-0.901-1.629-1.4-2.806z"/>
</svg>
