<?xml version="1.0" encoding="UTF-8" standalone="no"?>
<!-- Created with Inkscape (http://www.inkscape.org/) -->

<svg
   xmlns:dc="http://purl.org/dc/elements/1.1/"
   xmlns:cc="http://creativecommons.org/ns#"
   xmlns:rdf="http://www.w3.org/1999/02/22-rdf-syntax-ns#"
   xmlns:svg="http://www.w3.org/2000/svg"
   xmlns="http://www.w3.org/2000/svg"
   xmlns:inkscape="http://www.inkscape.org/namespaces/inkscape"
   version="1.1"
   width="113.386"
   height="113.386"
   viewBox="0 0 113.386 113.386"
   id="Layer_1"
   xml:space="preserve"
   style="overflow:inherit"><metadata
   id="metadata33"><rdf:RDF><cc:Work
       rdf:about=""><dc:format>image/svg+xml</dc:format><dc:type
         rdf:resource="http://purl.org/dc/dcmitype/StillImage" /></cc:Work></rdf:RDF></metadata><defs
   id="defs31" />
<line
   fill="none"
   stroke="#000000"
   stroke-width="3"
   x1="88.981003"
   y1="75.513"
   x2="100.819"
   y2="75.513"
   id="line3"
   style="fill:none;stroke:#000000;stroke-width:3" />
<path
   d="m 103.674,74.029 c -2,-0.725 -3.301,-1.392 -4.906,-2.165 v 7.314 c 0.574,-0.327 2.906,-1.438 4.906,-2.163 2.145,-0.775 4.085,-1.305 5.345,-1.496 -1.26,-0.188 -3.2,-0.715 -5.345,-1.49 z"
   inkscape:connector-curvature="0"
   id="path5" />
<path
   d="M 98.222,51.964 C 95.194,42.734 84.378,37.775 84.378,37.775"
   inkscape:connector-curvature="0"
   id="path7"
   style="fill:none;stroke:#000000;stroke-width:0.5" />
<path
   d="m 99.13,53.05 c -0.044,-0.957 -0.007,-1.601 0.022,-2.387 l -2.457,0.81 c 0.192,0.214 0.902,1.113 1.43,1.909 0.57,0.854 1.027,1.645 1.271,2.176 -0.115,-0.573 -0.218,-1.483 -0.266,-2.508 z"
   inkscape:connector-curvature="0"
   id="path9" />
<polygon
   points="82.177,38.277 44.102,75.241 61.987,83.073 "
   id="polygon11"
   style="fill:#b9e5fb;stroke:#000000;stroke-linejoin:round" />
<polygon
   points="3.783,38.277 41.858,75.241 23.973,83.073 "
   id="polygon13"
   style="fill:#b9e5fb;stroke:#000000;stroke-linejoin:round" />
<line
   fill="none"
   stroke="#000000"
   stroke-dasharray="3,3,3"
   x1="68.332001"
   y1="46.379002"
   x2="89.206001"
   y2="47.306"
   id="line15"
   style="fill:none;stroke:#000000;stroke-dasharray:3, 3, 3" />
<polyline
   fill="#B9E5FB"
   stroke="#000000"
   points="32.11,75.176 60.917,74.893 43.407,29.141 31.545,74.61 "
   id="polyline17"
   style="fill:#b9e5fb;stroke:#000000" />
<polygon
   points="21.093,75.436 23.973,83.073 43.044,75.009 43.353,26.711 43.514,75.009 62.039,83.333 65.151,75.436 43.353,26.711 "
   id="polygon19"
   style="fill:#b9e5fb;stroke:#000000" />
<line
   fill="none"
   stroke="#000000"
   stroke-dasharray="3,3,3"
   x1="21.093"
   y1="75.435997"
   x2="55.832001"
   y2="55.970001"
   id="line21"
   style="fill:none;stroke:#000000;stroke-dasharray:3, 3, 3" />
<path
   d="m 52.877,35.541 c 0,0 19.853,16.24 20.057,45.062"
   inkscape:connector-curvature="0"
   id="path23"
   style="fill:none;stroke:#000000" />
<path
   d="m 51.616,35.184 c 0.491,0.729 0.766,1.257 1.117,1.894 l 1.625,-1.985 c -0.258,-0.065 -1.264,-0.383 -2.075,-0.72 -0.869,-0.358 -1.618,-0.732 -2.071,-1.016 0.368,0.386 0.88,1.047 1.404,1.827 z"
   inkscape:connector-curvature="0"
   id="path25" />
<path
   d="m 72.237,80.497 c -0.213,-0.907 -0.421,-1.504 -0.661,-2.24 l 2.591,0.258 c -0.127,0.241 -0.572,1.232 -0.871,2.089 -0.32,0.918 -0.55,1.756 -0.644,2.306 -0.039,-0.562 -0.186,-1.439 -0.415,-2.413 z"
   inkscape:connector-curvature="0"
   id="path27" />
</svg>