<?xml version="1.0" encoding="UTF-8" standalone="no"?>
<!-- Created with Inkscape (http://www.inkscape.org/) -->

<svg
   xmlns:dc="http://purl.org/dc/elements/1.1/"
   xmlns:cc="http://creativecommons.org/ns#"
   xmlns:rdf="http://www.w3.org/1999/02/22-rdf-syntax-ns#"
   xmlns:svg="http://www.w3.org/2000/svg"
   xmlns="http://www.w3.org/2000/svg"
   version="1.1"
   width="113.386"
   height="113.386"
   viewBox="0 0 113.386 113.386"
   id="Layer_1"
   xml:space="preserve"
   style="overflow:inherit"><metadata
   id="metadata31"><rdf:RDF><cc:Work
       rdf:about=""><dc:format>image/svg+xml</dc:format><dc:type
         rdf:resource="http://purl.org/dc/dcmitype/StillImage" /></cc:Work></rdf:RDF></metadata><defs
   id="defs29" />
<polygon
   points="93.445,17.239 64.684,38.063 60.02,45.679 55.707,54.15 74.037,54.488 "
   id="polygon3"
   style="fill:#b9e5fb;stroke:#000000;stroke-linejoin:round" />
<polygon
   points="79.837,61.209 74.186,65.638 45.875,57.207 17.289,32.862 57.354,53.334 74.329,53.739 "
   id="polygon5"
   style="fill:#b9e5fb;stroke:#000000;stroke-linejoin:round" />
<polygon
   points="93.086,61.427 96.987,79.149 85.268,64.133 84.497,57.456 "
   id="polygon7"
   style="fill:#b9e5fb;stroke:#000000;stroke-linejoin:round" />
<polygon
   points="59.129,44.732 70.428,55.731 38.651,61.749 "
   id="polygon9"
   style="fill:#b9e5fb;stroke:#000000;stroke-linejoin:round" />
<polygon
   points="84.497,57.456 89.654,63.766 96.987,79.149 87.26,68.035 79.377,80.022 76.721,60.521 "
   id="polygon11"
   style="fill:#b9e5fb;stroke:#000000;stroke-linejoin:round" />
<polygon
   points="82.536,70.435 79.377,80.022 60.466,61.327 72.777,54.991 "
   id="polygon13"
   style="fill:#b9e5fb;stroke:#000000;stroke-linejoin:round" />
<polygon
   points="43.758,91.443 72.777,54.991 38.651,61.749 "
   id="polygon15"
   style="fill:#b9e5fb;stroke:#000000;stroke-linejoin:round" />
<line
   fill="#B9E5FB"
   stroke="#000000"
   stroke-linejoin="round"
   x1="89.731003"
   y1="64.440002"
   x2="87.222"
   y2="68.117996"
   id="line17"
   style="fill:#b9e5fb;stroke:#000000;stroke-linejoin:round" />
<line
   fill="none"
   stroke="#9D9FA2"
   stroke-width="0.5"
   stroke-linejoin="round"
   x1="56.082001"
   y1="59.140999"
   x2="44.307999"
   y2="89.760002"
   id="line19"
   style="fill:none;stroke:#9d9fa2;stroke-width:0.5;stroke-linejoin:round" />
<line
   fill="none"
   stroke="#9D9FA2"
   stroke-width="0.5"
   stroke-linejoin="round"
   x1="65.783997"
   y1="49.974998"
   x2="91.447998"
   y2="19.775"
   id="line21"
   style="fill:none;stroke:#9d9fa2;stroke-width:0.5;stroke-linejoin:round" />
<line
   fill="none"
   stroke="#000000"
   stroke-width="3"
   x1="25.688"
   y1="30.547001"
   x2="16.434"
   y2="22.006001"
   id="line23"
   style="fill:none;stroke:#000000;stroke-width:3" />
<polygon
   points="16.434,26.988 21.774,22.006 13.944,18.803 "
   id="polygon25" />
</svg>