<?xml version="1.0" encoding="utf-8"?>
<!-- Generator: Adobe Illustrator 15.0.0, SVG Export Plug-In  -->
<!DOCTYPE svg PUBLIC "-//W3C//DTD SVG 1.1 Tiny//EN" "http://www.w3.org/Graphics/SVG/1.1/DTD/svg11-tiny.dtd" [
	<!ENTITY ns_flows "http://ns.adobe.com/Flows/1.0/">
]>
<svg version="1.1" baseProfile="tiny"
	 xmlns="http://www.w3.org/2000/svg" xmlns:xlink="http://www.w3.org/1999/xlink" xmlns:a="http://ns.adobe.com/AdobeSVGViewerExtensions/3.0/"
	 x="0px" y="0px" width="113px" height="113px" viewBox="-7.338 -12.475 113 113" overflow="visible" xml:space="preserve">
<defs>
</defs>
<path d="M72.108,34.911c2.282-1.083,3.902-1.637,5.868-2.358l-4.954-5.48c-0.29,0.706-1.633,3.436-2.939,5.596
	c-1.398,2.318-2.784,4.291-3.788,5.452C67.559,37.242,69.66,36.068,72.108,34.911z"/>
<path fill="none" stroke="#000000" stroke-width="2" d="M81.007,61.137c0,0,18.273-2.688,16.124-18.814
	c-2.449-18.367-22.572-11.285-22.572-11.285"/>
<polygon fill="#B9E5FB" stroke="#000000" stroke-linejoin="round" points="0.5,89.715 51.923,89.715 0.717,35.364 "/>
<polygon fill="#B9E5FB" stroke="#000000" points="0.646,89.715 0.717,35.588 34.412,1.224 34.412,89.713 "/>
</svg>
