<?xml version="1.0" encoding="utf-8"?>
<!-- Generator: Adobe Illustrator 15.0.0, SVG Export Plug-In  -->
<!DOCTYPE svg PUBLIC "-//W3C//DTD SVG 1.1 Tiny//EN" "http://www.w3.org/Graphics/SVG/1.1/DTD/svg11-tiny.dtd" [
	<!ENTITY ns_flows "http://ns.adobe.com/Flows/1.0/">
]>
<svg version="1.1" baseProfile="tiny"
	 xmlns="http://www.w3.org/2000/svg" xmlns:xlink="http://www.w3.org/1999/xlink" xmlns:a="http://ns.adobe.com/AdobeSVGViewerExtensions/3.0/"
	 x="0px" y="0px" width="113px" height="113px" viewBox="-2.876 -27.397 113 113" overflow="visible" xml:space="preserve">
<defs>
</defs>
<polygon fill="#B9E5FB" stroke="#000000" stroke-linecap="round" stroke-linejoin="round" points="23.961,0.829 24.025,34.703 
	53.691,56.123 53.691,0.829 "/>
<line fill="none" stroke="#000000" stroke-width="3" x1="74.706" y1="28.832" x2="94.225" y2="28.832"/>
<path d="M98.933,26.388c-3.297-1.194-5.442-2.296-8.089-3.57v12.061c0.944-0.539,4.792-2.371,8.089-3.566
	c3.536-1.276,6.733-2.15,8.812-2.466C105.666,28.532,102.469,27.665,98.933,26.388z"/>
<path fill="none" stroke="#000000" stroke-width="0.5" d="M10.321,9.872c0,0,4.319,23.918,30.77,19.655"/>
<path d="M10.847,7.886c0.613,0.763,1.106,1.173,1.696,1.702l-3.671,3.228c0.09-0.453,0.361-2.211,0.475-3.613
	c0.123-1.503,0.147-2.79,0.087-3.557C9.684,6.246,10.191,7.064,10.847,7.886z"/>
<polygon fill="#B9E5FB" stroke="#000000" stroke-linecap="round" stroke-linejoin="round" points="23.21,0.687 23.135,17.408 
	64.497,17.408 54.281,0.5 "/>
<polygon fill="#B9E5FB" stroke="#000000" stroke-linecap="round" stroke-linejoin="round" points="22.089,2.876 20.957,36.74 
	49.857,58.677 51.809,3.4 "/>
<line fill="#B9E5FB" stroke="#000000" stroke-linecap="round" stroke-linejoin="round" x1="50.999" y1="3.521" x2="20.513" y2="35.974"/>
<line fill="#B9E5FB" stroke="#000000" stroke-linecap="round" stroke-linejoin="round" x1="51.487" y1="3.333" x2="64.497" y2="17.361"/>
<path fill="none" stroke="#000000" stroke-width="0.5" d="M2.784,37.785c0,0,15.144,19.01,36.411,2.717"/>
<path d="M2.306,35.787c0.901,0.379,1.532,0.508,2.301,0.693l-1.701,4.582c-0.136-0.443-0.73-2.119-1.295-3.408
	c-0.604-1.379-1.193-2.525-1.61-3.17C0.504,34.892,1.34,35.373,2.306,35.787z"/>
</svg>
