<?xml version="1.0" encoding="UTF-8" standalone="no"?>
<!-- Created with Inkscape (http://www.inkscape.org/) -->

<svg
   xmlns:dc="http://purl.org/dc/elements/1.1/"
   xmlns:cc="http://creativecommons.org/ns#"
   xmlns:rdf="http://www.w3.org/1999/02/22-rdf-syntax-ns#"
   xmlns:svg="http://www.w3.org/2000/svg"
   xmlns="http://www.w3.org/2000/svg"
   xmlns:inkscape="http://www.inkscape.org/namespaces/inkscape"
   version="1.1"
   width="127.56"
   height="127.559"
   viewBox="0 0 127.56 127.559"
   id="Layer_1"
   xml:space="preserve"
   style="overflow:inherit"><metadata
   id="metadata17"><rdf:RDF><cc:Work
       rdf:about=""><dc:format>image/svg+xml</dc:format><dc:type
         rdf:resource="http://purl.org/dc/dcmitype/StillImage" /></cc:Work></rdf:RDF></metadata><defs
   id="defs15" />
<polygon
   points="123.457,94.954 1.913,94.954 62.684,34.183 "
   id="polygon3"
   style="fill:#b9e5fb;stroke:#000000" />
<path
   d="m 27.439,83.287 c 0,0 34.735,-16.95 74.323,0.925"
   inkscape:connector-curvature="0"
   id="path5"
   style="fill:none;stroke:#000000;stroke-width:0.5" />
<path
   d="m 26.157,84.787 c 1.307,-0.211 2.201,-0.256 3.294,-0.334 l -1.696,-3.477 c -0.252,0.314 -1.321,1.491 -2.292,2.39 -1.04,0.965 -2.023,1.755 -2.696,2.195 0.761,-0.26 1.99,-0.547 3.39,-0.774 z"
   inkscape:connector-curvature="0"
   id="path7" />
<path
   d="m 101.181,85.098 c -1.379,-0.279 -2.328,-0.371 -3.486,-0.506 l 1.986,-3.383 c 0.25,0.326 1.326,1.558 2.312,2.506 1.055,1.018 2.059,1.859 2.752,2.334 -0.797,-0.3 -2.088,-0.651 -3.564,-0.951 z"
   inkscape:connector-curvature="0"
   id="path9" />
<line
   fill="none"
   stroke="#000000"
   stroke-dasharray="4,4,4"
   x1="63.215"
   y1="95.049004"
   x2="63.215"
   y2="34.859001"
   id="line11"
   style="fill:none;stroke:#000000;stroke-dasharray:4, 4, 4" />
</svg>