<?xml version="1.0" encoding="UTF-8" standalone="no"?>
<!-- Created with Inkscape (http://www.inkscape.org/) -->

<svg
   xmlns:dc="http://purl.org/dc/elements/1.1/"
   xmlns:cc="http://creativecommons.org/ns#"
   xmlns:rdf="http://www.w3.org/1999/02/22-rdf-syntax-ns#"
   xmlns:svg="http://www.w3.org/2000/svg"
   xmlns="http://www.w3.org/2000/svg"
   xmlns:inkscape="http://www.inkscape.org/namespaces/inkscape"
   version="1.1"
   width="127.56"
   height="127.559"
   viewBox="0 0 127.56 127.559"
   id="Layer_1"
   xml:space="preserve"
   style="overflow:inherit"><metadata
   id="metadata23"><rdf:RDF><cc:Work
       rdf:about=""><dc:format>image/svg+xml</dc:format><dc:type
         rdf:resource="http://purl.org/dc/dcmitype/StillImage" /></cc:Work></rdf:RDF></metadata><defs
   id="defs21" />
<polygon
   points="33.992,37.822 65.258,51.884 61.926,33.054 98.632,14.022 63.166,17.122 40.046,23.157 "
   id="polygon3"
   style="fill:#b9e5fb;stroke:#000000;stroke-linecap:round;stroke-linejoin:round" />
<polygon
   points="12.126,45.496 6,73.891 51.348,38.565 33.045,28.023 "
   id="polygon5"
   style="fill:#b9e5fb;stroke:#000000;stroke-linecap:round;stroke-linejoin:round" />
<line
   fill="#B9E5FB"
   stroke="#000000"
   stroke-linecap="round"
   stroke-linejoin="round"
   x1="40.390999"
   y1="23.655001"
   x2="61.271999"
   y2="33.181999"
   id="line7"
   style="fill:#b9e5fb;stroke:#000000;stroke-linecap:round;stroke-linejoin:round" />
<line
   fill="#B9E5FB"
   stroke="#000000"
   stroke-linecap="round"
   stroke-linejoin="round"
   x1="51.478001"
   y1="38.584"
   x2="65.258003"
   y2="51.883999"
   id="line9"
   style="fill:#b9e5fb;stroke:#000000;stroke-linecap:round;stroke-linejoin:round" />
<line
   fill="#B9E5FB"
   stroke="#000000"
   stroke-linecap="round"
   stroke-linejoin="round"
   x1="12.996"
   y1="45.523998"
   x2="50.277"
   y2="38.542"
   id="line11"
   style="fill:#b9e5fb;stroke:#000000;stroke-linecap:round;stroke-linejoin:round" />
<line
   fill="#B9E5FB"
   stroke="#000000"
   stroke-linecap="round"
   stroke-linejoin="round"
   x1="62.025002"
   y1="32.622002"
   x2="63.446999"
   y2="17.525999"
   id="line13"
   style="fill:#b9e5fb;stroke:#000000;stroke-linecap:round;stroke-linejoin:round" />
<path
   d="m 109.32,107.266 c -0.144,-3.49 -0.486,-5.834 -0.849,-8.708 l 9.339,2.781 c -0.639,0.798 -2.972,4.124 -4.671,7.064 -1.831,3.15 -3.264,6.069 -3.997,8.024 0.253,-2.098 0.331,-5.421 0.178,-9.161 z"
   inkscape:connector-curvature="0"
   id="path15"
   style="fill:#44c8f5" />
<path
   d="m 38.956,59.25 c 0,0 5.945,-2.666 13.44,-1.801 7.206,0.832 11.362,3.742 14.595,8.58 2.547,5.604 0.86,9.391 -1.854,11.063 -2.715,1.672 -6.46,1.229 -8.03,-1.63 -1.939,-3.534 -0.524,-8.01 3.18,-10.889 3.704,-2.879 10.252,-4.854 17.467,-1.998 5.623,2.227 8.912,6.349 11.213,9.966 2.301,3.617 3.057,7.423 2.503,10.402 -0.67,3.602 -3.232,5.854 -5.871,6.287 -2.639,0.433 -5.351,-0.952 -6.321,-4.624 -0.979,-3.709 0.588,-8.06 4.109,-11.005 3.522,-2.946 9,-4.487 15.842,-2.574 6.443,1.802 11.345,6.92 13.442,13.302 2.096,6.382 1.389,14.026 -0.14,19.12"
   inkscape:connector-curvature="0"
   id="path17"
   style="fill:none;stroke:#44c8f5" />
</svg>