<?xml version="1.0" encoding="UTF-8" standalone="no"?>
<!-- Created with Inkscape (http://www.inkscape.org/) -->

<svg
   xmlns:dc="http://purl.org/dc/elements/1.1/"
   xmlns:cc="http://creativecommons.org/ns#"
   xmlns:rdf="http://www.w3.org/1999/02/22-rdf-syntax-ns#"
   xmlns:svg="http://www.w3.org/2000/svg"
   xmlns="http://www.w3.org/2000/svg"
   xmlns:inkscape="http://www.inkscape.org/namespaces/inkscape"
   version="1.1"
   width="127.559"
   height="127.56"
   viewBox="0 0 127.559 127.56"
   id="Layer_1"
   xml:space="preserve"
   style="overflow:inherit"><metadata
   id="metadata49"><rdf:RDF><cc:Work
       rdf:about=""><dc:format>image/svg+xml</dc:format><dc:type
         rdf:resource="http://purl.org/dc/dcmitype/StillImage" /></cc:Work></rdf:RDF></metadata><defs
   id="defs47" />
<g
   id="g3">
	<path
   d="m 23.706,58.284 c 0,0 -0.983,6.576 -0.983,14.461 0,7.885 0.419,27.225 6.053,30.042 5.632,2.817 37.18,12.392 43.376,12.392 6.195,0 35.071,-23.844 35.071,-31.167 0,-7.322 -1.271,-44.88 -5.776,-47.697 C 96.937,33.498 62.012,27.3 52.436,28.99 47.412,29.876 24.267,52.089 23.706,58.284 z"
   inkscape:connector-curvature="0"
   id="path5"
   style="fill:#ffffff;stroke:#000000;stroke-linejoin:round" />
	<ellipse
   cx="30.746"
   cy="74.483002"
   rx="3.096"
   ry="3.237"
   id="ellipse7" />
	<circle
   cx="57.502998"
   cy="81.663002"
   r="3.098"
   id="circle9" />
	<path
   d="m 43.14,95.18 c 0,0 -11.83,-32.956 -11.549,-37.744 0.28,-4.787 1.409,-23.941 12.394,-39.715 0,0 6.195,-9.577 7.886,-9.295 1.69,0.283 9.295,18.873 1.69,33.237 -7.605,14.365 -10.141,18.873 -10.141,21.971 0,3.098 -0.28,31.546 -0.28,31.546 z"
   inkscape:connector-curvature="0"
   id="path11"
   style="fill:#b9e5fb;stroke:#000000" />
	<path
   d="m 23.706,58.284 c 0,0 16.335,37.178 19.435,36.896 3.096,-0.281 24.505,-25.109 24.505,-25.109"
   inkscape:connector-curvature="0"
   id="path13"
   style="fill:none;stroke:#000000" />
	<path
   d="m 72.151,115.179 c -8.73,-0.561 -28.73,-20.563 -28.73,-20.563 -5.634,7.888 -15.774,7.325 -15.774,7.325"
   inkscape:connector-curvature="0"
   id="path15"
   style="fill:none;stroke:#000000" />
	<path
   d="m 43.42,94.615 c 0,0 0,12.395 0.846,13.803"
   inkscape:connector-curvature="0"
   id="path17"
   style="fill:none;stroke:#000000" />
	<path
   d="m 42.295,90.391 c 0,0 -5.354,-26.476 -4.225,-32.39 1.125,-5.915 10.14,-30.984 10.14,-30.984"
   inkscape:connector-curvature="0"
   id="path19"
   style="fill:none;stroke:#000000" />
	<line
   fill="none"
   stroke="#000000"
   x1="36.661999"
   y1="92.081001"
   x2="32.155998"
   y2="88.983002"
   id="line21"
   style="fill:none;stroke:#000000" />
	<line
   fill="none"
   stroke="#000000"
   x1="36.380001"
   y1="93.209"
   x2="31.309999"
   y2="92.644997"
   id="line23"
   style="fill:none;stroke:#000000" />
	<line
   fill="none"
   stroke="#000000"
   x1="35.535999"
   y1="95.18"
   x2="31.309999"
   y2="96.025002"
   id="line25"
   style="fill:none;stroke:#000000" />
	<line
   fill="none"
   stroke="#000000"
   x1="51.589001"
   y1="93.209"
   x2="56.941002"
   y2="90.955002"
   id="line27"
   style="fill:none;stroke:#000000" />
	<line
   fill="none"
   stroke="#000000"
   x1="52.151001"
   y1="94.898003"
   x2="57.786999"
   y2="94.334999"
   id="line29"
   style="fill:none;stroke:#000000" />
	<line
   fill="none"
   stroke="#000000"
   x1="52.716"
   y1="96.306999"
   x2="57.505001"
   y2="98.277"
   id="line31"
   style="fill:none;stroke:#000000" />
	<path
   d="m 43.701,90.955 c 0,0 2.205,-25.498 3.381,-28.729 2.255,-6.197 27.884,-37.461 38.309,-43.096 10.42,-5.634 16.056,-10.14 16.336,-8.449 0.28,1.689 -0.284,19.435 -8.17,26.758 -7.886,7.322 -30.7,29.856 -34.645,33.8 -3.942,3.943 -15.211,19.716 -15.211,19.716 z"
   inkscape:connector-curvature="0"
   id="path33"
   style="fill:#b9e5fb;stroke:#000000" />
	<path
   d="m 43.985,90.109 c 0,0 8.639,-18.698 10.985,-23.097 4.226,-7.928 34.222,-38.349 34.222,-38.349"
   inkscape:connector-curvature="0"
   id="path35"
   style="fill:none;stroke:#000000" />
	<path
   d="m 47.362,93.212 c 0,2.178 -1.766,3.943 -3.941,3.943 -2.179,0 -3.94,-1.766 -3.94,-3.943 0,-2.174 1.762,-3.94 3.94,-3.94 2.175,-0.001 3.941,1.766 3.941,3.94 z"
   inkscape:connector-curvature="0"
   id="path37"
   style="fill:#ed1c24" />
	<path
   d="m 24.127,57.396 c 0,0 39.293,11.406 43.518,11.406 4.226,0 33.801,-32.487 33.801,-32.487"
   inkscape:connector-curvature="0"
   id="path39"
   style="fill:none;stroke:#000000" />
	<path
   d="m 67.645,68.802 c 0,0 1.69,39.715 4.506,46.377"
   inkscape:connector-curvature="0"
   id="path41"
   style="fill:none;stroke:#000000" />
	<path
   d="m 67.645,68.802 c 0,0 18.915,16.126 24.929,11.831 5.915,-4.226 8.872,-44.318 8.872,-44.318"
   inkscape:connector-curvature="0"
   id="path43"
   style="fill:none;stroke:#000000" />
</g>
</svg>