<?xml version="1.0" encoding="UTF-8" standalone="no"?>
<!-- Created with Inkscape (http://www.inkscape.org/) -->

<svg
   xmlns:dc="http://purl.org/dc/elements/1.1/"
   xmlns:cc="http://creativecommons.org/ns#"
   xmlns:rdf="http://www.w3.org/1999/02/22-rdf-syntax-ns#"
   xmlns:svg="http://www.w3.org/2000/svg"
   xmlns="http://www.w3.org/2000/svg"
   xmlns:inkscape="http://www.inkscape.org/namespaces/inkscape"
   version="1.1"
   width="127.559"
   height="127.56"
   viewBox="0 0 127.559 127.56"
   id="Layer_1"
   xml:space="preserve"
   style="overflow:inherit"><metadata
   id="metadata33"><rdf:RDF><cc:Work
       rdf:about=""><dc:format>image/svg+xml</dc:format><dc:type
         rdf:resource="http://purl.org/dc/dcmitype/StillImage" /></cc:Work></rdf:RDF></metadata><defs
   id="defs31" />
<g
   id="g3">
	<line
   fill="none"
   stroke="#000000"
   stroke-width="3"
   x1="93.896004"
   y1="67.504997"
   x2="110.664"
   y2="67.504997"
   id="line5"
   style="fill:none;stroke:#000000;stroke-width:3" />
	<path
   d="m 114.707,65.404 c -2.831,-1.026 -4.674,-1.971 -6.949,-3.065 v 10.359 c 0.813,-0.464 4.118,-2.037 6.949,-3.063 3.037,-1.097 5.787,-1.847 7.57,-2.118 -1.783,-0.27 -4.533,-1.016 -7.57,-2.113 z"
   inkscape:connector-curvature="0"
   id="path7" />
</g>
<polygon
   points="3.749,85.644 93.348,85.644 48.948,39.242 "
   id="polygon9"
   style="fill:#ffffff;stroke:#000000;stroke-linejoin:round" />
<polygon
   points="3.749,84.442 93.348,84.442 48.948,37.242 "
   id="polygon11"
   style="fill:#ffffff;stroke:#000000;stroke-linejoin:round" />
<line
   fill="none"
   stroke="#9D9FA2"
   stroke-width="0.5"
   stroke-linejoin="round"
   x1="48.948002"
   y1="37.242001"
   x2="48.948002"
   y2="83.641998"
   id="line13"
   style="fill:none;stroke:#9d9fa2;stroke-width:0.5;stroke-linejoin:round" />
<polyline
   fill="none"
   stroke="#000000"
   stroke-dasharray="4,4,4"
   points="16.523,51.642 49.322,84.043 81.723,52.441 "
   id="polyline15"
   style="fill:none;stroke:#000000;stroke-dasharray:4, 4, 4" />
<g
   id="g17">
	<path
   d="m 41.917,55.684 c 0,0 -18.062,7.026 -23.762,25.626"
   inkscape:connector-curvature="0"
   id="path19"
   style="fill:none;stroke:#000000;stroke-width:0.5" />
	<path
   d="m 44.126,55.355 c -0.988,0.952 -1.582,1.665 -2.324,2.525 l -1.828,-3.57 c 0.418,-0.013 2.057,-0.167 3.406,-0.413 1.443,-0.261 2.713,-0.584 3.494,-0.868 -0.685,0.47 -1.69,1.308 -2.748,2.326 z"
   inkscape:connector-curvature="0"
   id="path21" />
</g>
<g
   id="g23">
	<path
   d="m 56.712,55.684 c 0,0 18.062,7.026 23.763,25.626"
   inkscape:connector-curvature="0"
   id="path25"
   style="fill:none;stroke:#000000;stroke-width:0.5" />
	<path
   d="m 54.502,55.355 c 0.989,0.952 1.582,1.665 2.325,2.525 l 1.828,-3.57 c -0.418,-0.013 -2.057,-0.167 -3.406,-0.413 -1.444,-0.261 -2.713,-0.584 -3.495,-0.868 0.686,0.47 1.692,1.308 2.748,2.326 z"
   inkscape:connector-curvature="0"
   id="path27" />
</g>
</svg>