<?xml version="1.0" encoding="UTF-8" standalone="no"?>
<!-- Created with Inkscape (http://www.inkscape.org/) -->

<svg
   xmlns:dc="http://purl.org/dc/elements/1.1/"
   xmlns:cc="http://creativecommons.org/ns#"
   xmlns:rdf="http://www.w3.org/1999/02/22-rdf-syntax-ns#"
   xmlns:svg="http://www.w3.org/2000/svg"
   xmlns="http://www.w3.org/2000/svg"
   xmlns:inkscape="http://www.inkscape.org/namespaces/inkscape"
   version="1.1"
   width="127.559"
   height="127.56"
   viewBox="0 0 127.559 127.56"
   id="Layer_1"
   xml:space="preserve"
   style="overflow:inherit"><metadata
   id="metadata27"><rdf:RDF><cc:Work
       rdf:about=""><dc:format>image/svg+xml</dc:format><dc:type
         rdf:resource="http://purl.org/dc/dcmitype/StillImage" /></cc:Work></rdf:RDF></metadata><defs
   id="defs25" />
<polygon
   points="39.921,53.275 43.587,56.275 65.053,33.289 "
   id="polygon3"
   style="fill:#ffffff;stroke:#000000;stroke-linejoin:round" />
<polygon
   points="89.719,53.275 86.053,56.275 64.587,33.289 "
   id="polygon5"
   style="fill:#ffffff;stroke:#000000;stroke-linejoin:round" />
<polygon
   points="8.723,92.113 120.389,92.113 65.053,33.289 "
   id="polygon7"
   style="fill:#ffffff;stroke:#000000;stroke-linejoin:round" />
<g
   id="g9">
	<path
   d="m 72.585,53.624 c 0,0 20.749,8.676 28.137,32.848"
   inkscape:connector-curvature="0"
   id="path11"
   style="fill:none;stroke:#000000;stroke-width:0.5" />
	<path
   d="m 70.727,53.494 c 0.883,0.727 1.422,1.281 2.094,1.948 l 1.291,-3.083 c -0.349,0.016 -1.721,-0.008 -2.857,-0.125 -1.217,-0.125 -2.291,-0.312 -2.959,-0.498 0.599,0.347 1.488,0.979 2.431,1.758 z"
   inkscape:connector-curvature="0"
   id="path13" />
</g>
<g
   id="g15">
	<path
   d="m 57.587,53.624 c 0,0 -20.75,8.676 -28.137,32.848"
   inkscape:connector-curvature="0"
   id="path17"
   style="fill:none;stroke:#000000;stroke-width:0.5" />
	<path
   d="m 59.446,53.494 c -0.883,0.727 -1.421,1.281 -2.095,1.948 l -1.289,-3.083 c 0.348,0.016 1.72,-0.008 2.856,-0.125 1.216,-0.125 2.292,-0.312 2.959,-0.498 -0.599,0.347 -1.488,0.979 -2.431,1.758 z"
   inkscape:connector-curvature="0"
   id="path19" />
</g>
<polyline
   fill="none"
   stroke="#000000"
   stroke-dasharray="4,4,4"
   points="36.952,62.609 65.118,92.067 93.054,62.609 "
   id="polyline21"
   style="fill:none;stroke:#000000;stroke-dasharray:4, 4, 4" />
</svg>