<?xml version="1.0" encoding="UTF-8" standalone="no"?>
<!-- Created with Inkscape (http://www.inkscape.org/) -->
<svg id="Layer_1" xmlns:rdf="http://www.w3.org/1999/02/22-rdf-syntax-ns#" xmlns="http://www.w3.org/2000/svg" xml:space="preserve" height="127.56" width="127.56" version="1.1" xmlns:cc="http://creativecommons.org/ns#" xmlns:dc="http://purl.org/dc/elements/1.1/" viewBox="0 0 127.559 127.56"><metadata id="metadata29"><rdf:RDF><cc:Work rdf:about=""><dc:format>image/svg+xml</dc:format><dc:type rdf:resource="http://purl.org/dc/dcmitype/StillImage"/><dc:title/></cc:Work></rdf:RDF></metadata><defs id="defs27">
</defs>
<ellipse id="ellipse5" cx="108.98" cy="40.166" rx="3.239" ry="4.236" stroke="#000" fill="none"/><path id="path7" d="m93.768,42.684c4.113-4.789,8.887-7.473,15.912-6.744" stroke="#000" fill="none"/><path id="path9" d="m122.48,40.939c-3.754-3.68-8.166-5.635-14.287-5" stroke="#000" fill="none"/><path id="path11" d="m123.45,41.385c-0.369-0.873-0.551-1.488-0.791-2.236l-2.133,1.77c0.262,0.121,1.262,0.666,2.053,1.191,0.846,0.561,1.564,1.111,1.984,1.504-0.31-0.485-0.719-1.292-1.113-2.229z"/>
<polygon id="polygon13" stroke-linejoin="round" stroke="#000" points="2.605,93.61,114.27,93.61,58.937,35.781" fill="#FFF"/>
<polygon id="polygon15" stroke-linejoin="round" stroke="#000" points="2.605,92.113,114.27,92.113,58.937,33.289" fill="#FFF"/>
<polygon id="polygon17" stroke-linejoin="round" stroke="#000" points="59.001,92.067,30.835,62.609,58.937,33.289" fill="#FFF"/>
<polygon id="polygon19" stroke-linejoin="round" stroke="#000" points="59.001,92.067,86.938,62.609,58.835,33.289" fill="#FFF"/>
<polygon id="polygon21" stroke-linejoin="round" stroke="#000" points="58.876,62.692,44.96,47.662,44.983,77.276" fill="#FFF"/>
<polygon id="polygon23" stroke-linejoin="round" stroke="#000" points="58.876,62.692,72.661,47.662,72.637,77.276" fill="#FFF"/>
</svg>
