<?xml version="1.0" encoding="UTF-8" standalone="no"?>
<!-- Created with Inkscape (http://www.inkscape.org/) -->

<svg
   xmlns:dc="http://purl.org/dc/elements/1.1/"
   xmlns:cc="http://creativecommons.org/ns#"
   xmlns:rdf="http://www.w3.org/1999/02/22-rdf-syntax-ns#"
   xmlns:svg="http://www.w3.org/2000/svg"
   xmlns="http://www.w3.org/2000/svg"
   xmlns:inkscape="http://www.inkscape.org/namespaces/inkscape"
   version="1.1"
   width="127.559"
   height="127.56"
   viewBox="0 0 127.559 127.56"
   id="Layer_1"
   xml:space="preserve"
   style="overflow:inherit"><metadata
   id="metadata19"><rdf:RDF><cc:Work
       rdf:about=""><dc:format>image/svg+xml</dc:format><dc:type
         rdf:resource="http://purl.org/dc/dcmitype/StillImage" /></cc:Work></rdf:RDF></metadata><defs
   id="defs17" />
<polygon
   points="77.093,112.54 29.494,62.756 76.984,13.205 100.451,37.969 100.713,87.798 "
   id="polygon3"
   style="fill:#ffffff;stroke:#000000;stroke-linejoin:round" />
<polygon
   points="29.494,62.756 77.093,112.54 76.984,13.205 "
   id="polygon5"
   style="fill:#ffffff;stroke:#000000;stroke-linejoin:round" />
<polygon
   points="77.009,63.137 54.88,37.737 54.92,87.784 "
   id="polygon7"
   style="fill:#ffffff;stroke:#000000;stroke-linejoin:round" />
<g
   id="g9">
	<path
   d="m 89.757,57.987 c 0,0 -16.379,-6.573 -30.462,3.566"
   inkscape:connector-curvature="0"
   id="path11"
   style="fill:none;stroke:#000000;stroke-width:0.5" />
	<path
   d="m 92.588,59.369 c -1.906,0.318 -3.166,0.675 -4.71,1.084 l 0.717,-5.604 c 0.496,0.317 2.522,1.441 4.285,2.23 1.887,0.846 3.616,1.479 4.754,1.771 -1.172,0.002 -3.005,0.176 -5.046,0.519 z"
   inkscape:connector-curvature="0"
   id="path13" />
</g>
</svg>