<?xml version="1.0" encoding="UTF-8" standalone="no"?>
<!-- Created with Inkscape (http://www.inkscape.org/) -->

<svg
   xmlns:dc="http://purl.org/dc/elements/1.1/"
   xmlns:cc="http://creativecommons.org/ns#"
   xmlns:rdf="http://www.w3.org/1999/02/22-rdf-syntax-ns#"
   xmlns:svg="http://www.w3.org/2000/svg"
   xmlns="http://www.w3.org/2000/svg"
   xmlns:inkscape="http://www.inkscape.org/namespaces/inkscape"
   version="1.1"
   width="127.559"
   height="127.56"
   viewBox="0 0 127.559 127.56"
   id="Layer_1"
   xml:space="preserve"
   style="overflow:inherit"><metadata
   id="metadata31"><rdf:RDF><cc:Work
       rdf:about=""><dc:format>image/svg+xml</dc:format><dc:type
         rdf:resource="http://purl.org/dc/dcmitype/StillImage" /></cc:Work></rdf:RDF></metadata><defs
   id="defs29" />
<polygon
   points="7.743,93.276 119.409,93.276 64.074,35.448 "
   id="polygon3"
   style="fill:#ffffff;stroke:#000000;stroke-linejoin:round" />
<polygon
   points="7.743,91.78 119.409,91.78 64.074,32.956 "
   id="polygon5"
   style="fill:#ffffff;stroke:#000000;stroke-linejoin:round" />
<polygon
   points="64.013,91.608 35.972,62.276 64.074,32.956 "
   id="polygon7"
   style="fill:#ffffff;stroke:#000000;stroke-linejoin:round" />
<line
   fill="none"
   stroke="#000000"
   stroke-dasharray="4,4,4"
   x1="50.120998"
   y1="76.942001"
   x2="50.120998"
   y2="47.151001"
   id="line9"
   style="fill:none;stroke:#000000;stroke-dasharray:4, 4, 4" />
<g
   id="g11">
	<path
   d="m 57.211,62.401 c 0,0 -9.323,-1.292 -15.073,1.458"
   inkscape:connector-curvature="0"
   id="path13"
   style="fill:none;stroke:#000000;stroke-width:0.5" />
	<path
   d="m 58.961,63.039 c -1.103,0.306 -1.821,0.593 -2.706,0.927 l 0.077,-3.342 c 0.311,0.157 1.573,0.694 2.66,1.051 1.161,0.382 2.219,0.647 2.904,0.75 -0.687,0.072 -1.756,0.288 -2.935,0.614 z"
   inkscape:connector-curvature="0"
   id="path15" />
</g>
<polygon
   points="64.138,91.233 91.763,62.609 63.972,32.956 "
   id="polygon17"
   style="fill:#ffffff;stroke:#000000;stroke-linejoin:round" />
<line
   fill="none"
   stroke="#000000"
   stroke-dasharray="4,4,4"
   x1="77.925003"
   y1="76.942001"
   x2="77.925003"
   y2="47.151001"
   id="line19"
   style="fill:none;stroke:#000000;stroke-dasharray:4, 4, 4" />
<g
   id="g21">
	<path
   d="m 70.834,62.401 c 0,0 9.323,-1.292 15.073,1.458"
   inkscape:connector-curvature="0"
   id="path23"
   style="fill:none;stroke:#000000;stroke-width:0.5" />
	<path
   d="m 69.084,63.039 c 1.104,0.306 1.821,0.593 2.705,0.927 l -0.076,-3.342 c -0.312,0.157 -1.573,0.694 -2.66,1.051 -1.162,0.382 -2.22,0.647 -2.904,0.75 0.687,0.072 1.758,0.288 2.935,0.614 z"
   inkscape:connector-curvature="0"
   id="path25" />
</g>
</svg>