<?xml version="1.0" encoding="UTF-8" standalone="no"?>
<!-- Created with Inkscape (http://www.inkscape.org/) -->

<svg
   xmlns:dc="http://purl.org/dc/elements/1.1/"
   xmlns:cc="http://creativecommons.org/ns#"
   xmlns:rdf="http://www.w3.org/1999/02/22-rdf-syntax-ns#"
   xmlns:svg="http://www.w3.org/2000/svg"
   xmlns="http://www.w3.org/2000/svg"
   xmlns:inkscape="http://www.inkscape.org/namespaces/inkscape"
   version="1.1"
   width="127.559"
   height="127.56"
   viewBox="0 0 127.559 127.56"
   id="Layer_1"
   xml:space="preserve"
   style="overflow:inherit"><metadata
   id="metadata29"><rdf:RDF><cc:Work
       rdf:about=""><dc:format>image/svg+xml</dc:format><dc:type
         rdf:resource="http://purl.org/dc/dcmitype/StillImage" /></cc:Work></rdf:RDF></metadata><defs
   id="defs27" />
<rect
   width="101.618"
   height="101.619"
   x="12.828"
   y="11.612"
   id="rect3"
   style="fill:#ffffff;stroke:#000000" />
<line
   fill="none"
   stroke="#000000"
   stroke-dasharray="4,4,4"
   x1="64.028999"
   y1="111.79"
   x2="64.028999"
   y2="13.014"
   id="line5"
   style="fill:none;stroke:#000000;stroke-dasharray:4, 4, 4" />
<line
   fill="none"
   stroke="#000000"
   stroke-dasharray="4,4,4"
   x1="14.64"
   y1="62.400002"
   x2="113.417"
   y2="62.400002"
   id="line7"
   style="fill:none;stroke:#000000;stroke-dasharray:4, 4, 4" />
<g
   id="g9">
	<path
   d="m 19.93,55.98 c 0,0 41.418,-20.211 88.62,1.103"
   inkscape:connector-curvature="0"
   id="path11"
   style="fill:none;stroke:#000000;stroke-width:0.5" />
	<path
   d="m 18.402,57.77 c 1.558,-0.253 2.623,-0.307 3.928,-0.398 l -2.022,-4.146 c -0.302,0.374 -1.575,1.778 -2.733,2.85 -1.239,1.15 -2.413,2.093 -3.215,2.617 0.906,-0.311 2.372,-0.654 4.042,-0.923 z"
   inkscape:connector-curvature="0"
   id="path13" />
	<path
   d="m 107.857,58.14 c -1.643,-0.333 -2.775,-0.442 -4.155,-0.604 l 2.368,-4.033 c 0.297,0.388 1.58,1.856 2.755,2.988 1.259,1.213 2.455,2.217 3.283,2.782 -0.95,-0.357 -2.488,-0.775 -4.251,-1.133 z"
   inkscape:connector-curvature="0"
   id="path15" />
</g>
<g
   id="g17">
	<path
   d="m 71.927,18.998 c 0,0 20.211,41.417 -1.103,88.62"
   inkscape:connector-curvature="0"
   id="path19"
   style="fill:none;stroke:#000000;stroke-width:0.5" />
	<path
   d="m 70.137,17.47 c 0.254,1.558 0.307,2.623 0.399,3.928 l 4.146,-2.022 c -0.374,-0.302 -1.777,-1.575 -2.85,-2.733 -1.149,-1.239 -2.093,-2.413 -2.617,-3.215 0.31,0.907 0.653,2.372 0.922,4.042 z"
   inkscape:connector-curvature="0"
   id="path21" />
	<path
   d="m 69.766,106.925 c 0.334,-1.643 0.443,-2.775 0.604,-4.155 l 4.034,2.368 c -0.39,0.297 -1.858,1.58 -2.988,2.756 -1.214,1.258 -2.217,2.454 -2.783,3.282 0.359,-0.95 0.777,-2.488 1.133,-4.251 z"
   inkscape:connector-curvature="0"
   id="path23" />
</g>
</svg>