<?xml version="1.0" encoding="UTF-8" standalone="no"?>
<!-- Created with Inkscape (http://www.inkscape.org/) -->

<svg
   xmlns:dc="http://purl.org/dc/elements/1.1/"
   xmlns:cc="http://creativecommons.org/ns#"
   xmlns:rdf="http://www.w3.org/1999/02/22-rdf-syntax-ns#"
   xmlns:svg="http://www.w3.org/2000/svg"
   xmlns="http://www.w3.org/2000/svg"
   xmlns:inkscape="http://www.inkscape.org/namespaces/inkscape"
   version="1.1"
   width="127.559"
   height="127.56"
   viewBox="0 0 127.559 127.56"
   id="Layer_1"
   xml:space="preserve"
   style="overflow:inherit"><metadata
   id="metadata27"><rdf:RDF><cc:Work
       rdf:about=""><dc:format>image/svg+xml</dc:format><dc:type
         rdf:resource="http://purl.org/dc/dcmitype/StillImage" /></cc:Work></rdf:RDF></metadata><defs
   id="defs25" />
<g
   id="g3">
	<path
   d="m 25.832,110.929 c 0,0 16.569,23.883 25.079,-14.131"
   inkscape:connector-curvature="0"
   id="path5"
   style="fill:none;stroke:#000000;stroke-width:0.5" />
	<path
   d="m 26.784,109.011 c 1.358,1.371 2.377,2.193 3.604,3.221 l -4.992,2.648 c -0.024,-0.588 -0.278,-2.895 -0.648,-4.789 -0.401,-2.027 -0.884,-3.805 -1.302,-4.904 0.68,0.957 1.88,2.355 3.338,3.824 z"
   inkscape:connector-curvature="0"
   id="path7" />
</g>
<polygon
   points="65.662,103.337 88.064,79.907 88.144,27.344 65.771,4 42.303,28.767 42.042,78.593 "
   id="polygon9"
   style="fill:#ffffff;stroke:#000000;stroke-linejoin:round" />
<line
   fill="none"
   stroke="#BCBEC0"
   stroke-width="0.5"
   x1="65.771004"
   y1="5.4879999"
   x2="65.771004"
   y2="103.337"
   id="line11"
   style="fill:none;stroke:#bcbec0;stroke-width:0.5" />
<path
   d="M 66.23,102.183 19.831,36.332 c 0,0 -7.886,-8.45 -2.253,-29.295 0,0 15.773,2.255 24.986,20.637 l 23.666,74.509 z"
   inkscape:connector-curvature="0"
   id="path13"
   style="fill:#b9e5fb;stroke:#000000;stroke-linejoin:round" />
<line
   fill="none"
   stroke="#000000"
   stroke-dasharray="4,4,4"
   x1="28.521999"
   y1="78.593002"
   x2="102.076"
   y2="78.593002"
   id="line15"
   style="fill:none;stroke:#000000;stroke-dasharray:4, 4, 4" />
<line
   fill="#B9E5FB"
   stroke="#000000"
   stroke-linejoin="round"
   x1="64.897003"
   y1="100.55"
   x2="30.535"
   y2="30.134001"
   id="line17"
   style="fill:#b9e5fb;stroke:#000000;stroke-linejoin:round" />
<path
   d="m 63.998,102.183 46.399,-65.851 c 0,0 7.886,-8.45 2.254,-29.295 0,0 -15.774,2.255 -24.986,20.637 l -23.667,74.509 z"
   inkscape:connector-curvature="0"
   id="path19"
   style="fill:#b9e5fb;stroke:#000000;stroke-linejoin:round" />
<line
   fill="#B9E5FB"
   stroke="#000000"
   stroke-linejoin="round"
   x1="65.331001"
   y1="100.55"
   x2="99.693001"
   y2="30.134001"
   id="line21"
   style="fill:#b9e5fb;stroke:#000000;stroke-linejoin:round" />
</svg>