<?xml version="1.0" encoding="UTF-8" standalone="no"?>
<!-- Created with Inkscape (http://www.inkscape.org/) -->

<svg
   xmlns:dc="http://purl.org/dc/elements/1.1/"
   xmlns:cc="http://creativecommons.org/ns#"
   xmlns:rdf="http://www.w3.org/1999/02/22-rdf-syntax-ns#"
   xmlns:svg="http://www.w3.org/2000/svg"
   xmlns="http://www.w3.org/2000/svg"
   version="1.1"
   width="113.386"
   height="113.386"
   viewBox="0 0 113.386 113.386"
   id="Layer_1"
   xml:space="preserve"
   style="overflow:inherit"><metadata
   id="metadata37"><rdf:RDF><cc:Work
       rdf:about=""><dc:format>image/svg+xml</dc:format><dc:type
         rdf:resource="http://purl.org/dc/dcmitype/StillImage" /></cc:Work></rdf:RDF></metadata><defs
   id="defs35" />
<g
   id="g3">
	<polyline
   fill="#B9E5FB"
   stroke="#000000"
   points="53.734,65.326 51.902,51.723 13.448,32.627 20.51,71.605 40.392,82.33  "
   id="polyline5"
   style="fill:#b9e5fb;stroke:#000000" />
	<polygon
   points="67.859,7.774 57.395,62.71 52.947,60.094 "
   id="polygon7"
   style="fill:#b9e5fb;stroke:#000000" />
	<polygon
   points="67.859,7.774 64.458,62.188 62.104,68.728 55.826,60.094 "
   id="polygon9"
   style="fill:#b9e5fb;stroke:#000000" />
	<polyline
   fill="#B9E5FB"
   stroke="#000000"
   points="43.268,94.626 38.042,99.451 28.097,78.669 31.236,74.744  "
   id="polyline11"
   style="fill:#b9e5fb;stroke:#000000" />
	<polyline
   fill="#B9E5FB"
   stroke="#000000"
   points="59.75,63.233 51.118,56.694 36.478,77.468 28.62,72.128 26.003,74.221    25.218,90.701 30.45,77.359 46.268,100.938  "
   id="polyline13"
   style="fill:#b9e5fb;stroke:#000000" />
	<polygon
   points="46.356,101.114 53.732,88.086 63.149,91.486 64.719,73.436 47.193,84.685 "
   id="polygon15"
   style="fill:#b9e5fb;stroke:#000000" />
	<polygon
   points="66.813,58.264 59.75,63.233 47.193,84.685 57.134,86.516 99.774,58.787 "
   id="polygon17"
   style="fill:#b9e5fb;stroke:#000000" />
	<polyline
   fill="none"
   stroke="#000000"
   points="51.118,56.694 47.193,84.685 36.478,77.468  "
   id="polyline19"
   style="fill:none;stroke:#000000" />
	<line
   fill="#B9E5FB"
   stroke="#000000"
   x1="28.620001"
   y1="72.127998"
   x2="30.450001"
   y2="77.359001"
   id="line21"
   style="fill:#b9e5fb;stroke:#000000" />
	<line
   fill="#B9E5FB"
   stroke="#000000"
   x1="28.618999"
   y1="72.128998"
   x2="25.48"
   y2="89.917"
   id="line23"
   style="fill:#b9e5fb;stroke:#000000" />
	<polyline
   fill="none"
   stroke="#BCBEC0"
   stroke-dasharray="2,2,2,2"
   points="99.774,58.787 62.626,67.681 55.022,72.742  "
   id="polyline25"
   style="fill:none;stroke:#bcbec0;stroke-dasharray:2, 2, 2, 2" />
	<polyline
   fill="none"
   stroke="#BCBEC0"
   stroke-dasharray="2,2,2,2"
   points="42.927,65.961 39.346,59.571 13.448,32.627  "
   id="polyline27"
   style="fill:none;stroke:#bcbec0;stroke-dasharray:2, 2, 2, 2" />
	<polyline
   fill="none"
   stroke="#BCBEC0"
   stroke-dasharray="2,2,2,2"
   points="51.405,52.172 39.085,58.953 20.773,71.386  "
   id="polyline29"
   style="fill:none;stroke:#bcbec0;stroke-dasharray:2, 2, 2, 2" />
	<polyline
   fill="none"
   stroke="#BCBEC0"
   stroke-dasharray="2,2,2,2"
   points="66.325,59.179 62.626,67.681 56.944,85.854  "
   id="polyline31"
   style="fill:none;stroke:#bcbec0;stroke-dasharray:2, 2, 2, 2" />
</g>
</svg>