<?xml version="1.0" encoding="UTF-8" standalone="no"?>
<!-- Created with Inkscape (http://www.inkscape.org/) -->

<svg
   xmlns:dc="http://purl.org/dc/elements/1.1/"
   xmlns:cc="http://creativecommons.org/ns#"
   xmlns:rdf="http://www.w3.org/1999/02/22-rdf-syntax-ns#"
   xmlns:svg="http://www.w3.org/2000/svg"
   xmlns="http://www.w3.org/2000/svg"
   xmlns:inkscape="http://www.inkscape.org/namespaces/inkscape"
   version="1.1"
   width="113.386"
   height="113.386"
   viewBox="0 0 113.386 113.386"
   id="Layer_1"
   xml:space="preserve"
   style="overflow:inherit"><metadata
   id="metadata33"><rdf:RDF><cc:Work
       rdf:about=""><dc:format>image/svg+xml</dc:format><dc:type
         rdf:resource="http://purl.org/dc/dcmitype/StillImage" /></cc:Work></rdf:RDF></metadata><defs
   id="defs31" />
<g
   id="g3">
	<polygon
   points="55.488,56.164 82.747,26.82 52.151,54.495 "
   id="polygon5"
   style="fill:#b9e5fb;stroke:#000000;stroke-linejoin:bevel" />
	<polygon
   points="28.641,34.312 43.858,2.352 58.799,34.312 55.922,45.738 50.22,56.442 43.406,52.826 43.683,107.066 43.683,107.066 "
   id="polygon7"
   style="fill:#b9e5fb;stroke:#000000" />
	<polyline
   fill="none"
   stroke="#000000"
   stroke-width="0.5"
   points="28.641,34.312 43.14,50.222 31.338,45.143  "
   id="polyline9"
   style="fill:none;stroke:#000000;stroke-width:0.5" />
	<polyline
   fill="#B9E5FB"
   stroke="#000000"
   points="43.365,50.167 43.683,107.066 43.683,2.042  "
   id="polyline11"
   style="fill:#b9e5fb;stroke:#000000" />
	<line
   fill="none"
   stroke="#000000"
   stroke-dasharray="2,2,2,2"
   x1="43.807999"
   y1="52.594002"
   x2="33.367001"
   y2="56.316002"
   id="line13"
   style="fill:none;stroke:#000000;stroke-dasharray:2, 2, 2, 2" />
	<polygon
   points="50.22,56.442 51.537,33.863 43.945,2.76 43.406,52.826 "
   id="polygon15"
   style="fill:none;stroke:#000000;stroke-linejoin:bevel" />
	<polygon
   points="82.747,26.82 50.641,48.653 50.22,56.442 "
   id="polygon17"
   style="fill:#b9e5fb;stroke:#000000;stroke-linejoin:bevel" />
	<g
   id="g19">
		<path
   d="m 65.652,53.494 c 0,0 -0.214,18.383 -18.247,27.619"
   inkscape:connector-curvature="0"
   id="path21"
   style="fill:none;stroke:#000000" />
		<path
   d="m 65.234,51.991 c -0.724,1.589 -1.323,2.612 -2.029,3.878 l 4.771,0.419 c -0.143,-0.489 -0.574,-2.454 -0.794,-4.125 -0.233,-1.794 -0.331,-3.41 -0.298,-4.445 -0.282,1.014 -0.874,2.568 -1.65,4.273 z"
   inkscape:connector-curvature="0"
   id="path23" />
	</g>
	<polyline
   fill="none"
   stroke="#000000"
   stroke-width="0.5"
   points="51.537,33.863 43.365,50.167 50.621,46.43  "
   id="polyline25"
   style="fill:none;stroke:#000000;stroke-width:0.5" />
	<line
   fill="none"
   stroke="#BCBEC0"
   stroke-width="0.5"
   x1="56.202"
   y1="42.449001"
   x2="51.803001"
   y2="37.509998"
   id="line27"
   style="fill:none;stroke:#bcbec0;stroke-width:0.5" />
</g>
</svg>