<?xml version="1.0" encoding="UTF-8" standalone="no"?>
<!-- Created with Inkscape (http://www.inkscape.org/) -->

<svg
   xmlns:dc="http://purl.org/dc/elements/1.1/"
   xmlns:cc="http://creativecommons.org/ns#"
   xmlns:rdf="http://www.w3.org/1999/02/22-rdf-syntax-ns#"
   xmlns:svg="http://www.w3.org/2000/svg"
   xmlns="http://www.w3.org/2000/svg"
   xmlns:inkscape="http://www.inkscape.org/namespaces/inkscape"
   version="1.1"
   width="113.386"
   height="113.386"
   viewBox="0 0 113.386 113.386"
   id="Layer_1"
   xml:space="preserve"
   style="overflow:inherit"><metadata
   id="metadata31"><rdf:RDF><cc:Work
       rdf:about=""><dc:format>image/svg+xml</dc:format><dc:type
         rdf:resource="http://purl.org/dc/dcmitype/StillImage" /></cc:Work></rdf:RDF></metadata><defs
   id="defs29" />
<rect
   width="51.185001"
   height="51.161999"
   x="27.188999"
   y="42.415001"
   transform="matrix(0.7071,0.7071,-0.7071,0.7071,63.5393,-17.4068)"
   id="rect3"
   style="fill:#b9e5fb;stroke:#000000" />
<polyline
   fill="#B9E5FB"
   stroke="#000000"
   stroke-linejoin="bevel"
   points="41.698,22.434 30.689,53.521 52.775,104.529   75.106,53.521 64.344,22.567 41.152,22.433 "
   id="polyline5"
   style="fill:#b9e5fb;stroke:#000000;stroke-linejoin:bevel" />
<path
   d="m 52.97,103.187 c 0,0 7.858,-43.778 9.651,-52.293 1.793,-8.517 3.495,-14.96 2.913,-23.307 C 64.863,17.951 52.986,4.954 52.986,4.954 h -0.075 c 0,0 -11.877,12.998 -12.549,22.633 -0.583,8.347 1.121,14.79 2.913,23.307 1.793,8.515 9.652,52.293 9.652,52.293 h 0.043 z"
   inkscape:connector-curvature="0"
   id="path7"
   style="fill:#ffffff;stroke:#000000;stroke-linejoin:bevel" />
<line
   fill="none"
   stroke="#000000"
   stroke-width="3"
   x1="84.538002"
   y1="94.700996"
   x2="97.060997"
   y2="94.637001"
   id="line9"
   style="fill:none;stroke:#000000;stroke-width:3" />
<path
   d="m 100.075,93.052 c -2.119,-0.757 -3.5,-1.455 -5.202,-2.263 l 0.038,7.737 c 0.606,-0.35 3.067,-1.536 5.18,-2.314 2.264,-0.831 4.314,-1.401 5.646,-1.611 -1.333,-0.194 -3.391,-0.742 -5.662,-1.549 z"
   inkscape:connector-curvature="0"
   id="path11" />
<polyline
   fill="#FFFFFF"
   stroke="#000000"
   points="40.334,34.841 52.775,4.954 65.697,34.159 "
   id="polyline13"
   style="fill:#ffffff;stroke:#000000" />
<line
   fill="#FFFFFF"
   stroke="#000000"
   x1="43.923"
   y1="54.028999"
   x2="62.298"
   y2="54.028999"
   id="line15"
   style="fill:#ffffff;stroke:#000000" />
<path
   d="M 90.698,85.44"
   inkscape:connector-curvature="0"
   id="path17"
   style="fill:none;stroke:#000000" />
<line
   fill="none"
   stroke="#000000"
   x1="52.707001"
   y1="53.792999"
   x2="52.707001"
   y2="101.088"
   id="line19"
   style="fill:none;stroke:#000000" />
<line
   fill="none"
   stroke="#BCBEC0"
   stroke-width="0.5"
   stroke-dasharray="4,4,4"
   x1="52.707001"
   y1="6.7519999"
   x2="52.707001"
   y2="54.046001"
   id="line21"
   style="fill:none;stroke:#bcbec0;stroke-width:0.5;stroke-dasharray:4, 4, 4" />
<line
   fill="#B9E5FB"
   stroke="#BCBEC0"
   stroke-linejoin="bevel"
   stroke-dasharray="2,2,2"
   x1="31.021999"
   y1="53.469002"
   x2="42.676998"
   y2="48.251999"
   id="line23"
   style="fill:#b9e5fb;stroke:#bcbec0;stroke-linejoin:bevel;stroke-dasharray:2, 2, 2" />
<line
   fill="#B9E5FB"
   stroke="#BCBEC0"
   stroke-linejoin="bevel"
   stroke-dasharray="2,2,2"
   x1="74.981003"
   y1="53.469002"
   x2="63.325001"
   y2="48.251999"
   id="line25"
   style="fill:#b9e5fb;stroke:#bcbec0;stroke-linejoin:bevel;stroke-dasharray:2, 2, 2" />
</svg>