<?xml version="1.0" encoding="UTF-8" standalone="no"?>
<!-- Created with Inkscape (http://www.inkscape.org/) -->

<svg
   xmlns:dc="http://purl.org/dc/elements/1.1/"
   xmlns:cc="http://creativecommons.org/ns#"
   xmlns:rdf="http://www.w3.org/1999/02/22-rdf-syntax-ns#"
   xmlns:svg="http://www.w3.org/2000/svg"
   xmlns="http://www.w3.org/2000/svg"
   xmlns:inkscape="http://www.inkscape.org/namespaces/inkscape"
   version="1.1"
   width="113.386"
   height="113.386"
   viewBox="0 0 113.386 113.386"
   id="Layer_1"
   xml:space="preserve"
   style="overflow:inherit"><metadata
   id="metadata23"><rdf:RDF><cc:Work
       rdf:about=""><dc:format>image/svg+xml</dc:format><dc:type
         rdf:resource="http://purl.org/dc/dcmitype/StillImage" /></cc:Work></rdf:RDF></metadata><defs
   id="defs21" />
<line
   fill="none"
   stroke="#000000"
   stroke-width="3"
   x1="70.18"
   y1="95.883003"
   x2="82.704002"
   y2="95.883003"
   id="line3"
   style="fill:none;stroke:#000000;stroke-width:3" />
<path
   d="m 91.379,95.893 c -1.333,-0.201 -3.387,-0.76 -5.654,-1.578 -2.116,-0.768 -3.492,-1.473 -5.191,-2.29 v 7.738 c 0.607,-0.346 3.075,-1.521 5.191,-2.289 2.268,-0.819 4.321,-1.379 5.654,-1.581"
   inkscape:connector-curvature="0"
   id="path5" />
<polyline
   fill="#B9E5FB"
   stroke="#000000"
   points="76.771,31.329 61.553,2.352 46.613,31.329 51.454,56.595 61.725,52.462   61.729,107.066 61.729,107.066 76.771,31.329 "
   id="polyline7"
   style="fill:#b9e5fb;stroke:#000000" />
<polyline
   fill="none"
   stroke="#000000"
   stroke-width="0.5"
   points="76.771,31.329 62.272,50.222 74.075,45.143 "
   id="polyline9"
   style="fill:none;stroke:#000000;stroke-width:0.5" />
<polyline
   fill="none"
   stroke="#000000"
   stroke-width="0.5"
   points="46.983,31.329 61.483,50.222 49.681,45.143 "
   id="polyline11"
   style="fill:none;stroke:#000000;stroke-width:0.5" />
<polyline
   fill="#B9E5FB"
   stroke="#000000"
   points="62.047,50.167 61.729,107.066 61.729,2.042 "
   id="polyline13"
   style="fill:#b9e5fb;stroke:#000000" />
<line
   fill="none"
   stroke="#000000"
   stroke-dasharray="2,2,2,2"
   x1="61.604"
   y1="52.594002"
   x2="72.044998"
   y2="56.316002"
   id="line15"
   style="fill:none;stroke:#000000;stroke-dasharray:2, 2, 2, 2" />
<polygon
   points="51.454,56.595 61.725,52.462 21.701,12.319 "
   id="polygon17"
   style="fill:#b9e5fb;stroke:#000000" />
</svg>