<?xml version="1.0" encoding="UTF-8" standalone="no"?>
<!-- Created with Inkscape (http://www.inkscape.org/) -->

<svg
   xmlns:dc="http://purl.org/dc/elements/1.1/"
   xmlns:cc="http://creativecommons.org/ns#"
   xmlns:rdf="http://www.w3.org/1999/02/22-rdf-syntax-ns#"
   xmlns:svg="http://www.w3.org/2000/svg"
   xmlns="http://www.w3.org/2000/svg"
   xmlns:inkscape="http://www.inkscape.org/namespaces/inkscape"
   version="1.1"
   width="113.386"
   height="113.386"
   viewBox="0 0 113.386 113.386"
   id="Layer_1"
   xml:space="preserve"
   style="overflow:inherit"><metadata
   id="metadata33"><rdf:RDF><cc:Work
       rdf:about=""><dc:format>image/svg+xml</dc:format><dc:type
         rdf:resource="http://purl.org/dc/dcmitype/StillImage" /></cc:Work></rdf:RDF></metadata><defs
   id="defs31" />
<line
   fill="none"
   stroke="#000000"
   stroke-width="3"
   x1="66.046997"
   y1="95.987999"
   x2="78.571999"
   y2="95.987999"
   id="line3"
   style="fill:none;stroke:#000000;stroke-width:3" />
<path
   d="m 87.248,95.996 c -1.334,-0.2 -3.387,-0.758 -5.655,-1.578 -2.115,-0.766 -3.492,-1.472 -5.19,-2.289 v 7.737 c 0.607,-0.346 3.075,-1.521 5.19,-2.287 2.268,-0.82 4.321,-1.38 5.655,-1.583"
   inkscape:connector-curvature="0"
   id="path5" />
<polygon
   points="25.089,55.143 47.348,106.35 48.638,3.595 49.739,106.35 71.7,55.143 48.638,3.595 "
   id="polygon7"
   style="fill:#b9e5fb;stroke:#000000" />
<line
   fill="#B9E5FB"
   stroke="#BCBEC0"
   stroke-dasharray="4,4,4"
   x1="26.292999"
   y1="55.143002"
   x2="70.385002"
   y2="55.143002"
   id="line9"
   style="fill:#b9e5fb;stroke:#bcbec0;stroke-dasharray:4, 4, 4" />
<line
   fill="#B9E5FB"
   stroke="#000000"
   stroke-width="2"
   x1="47.539001"
   y1="54.938"
   x2="49.640999"
   y2="54.938"
   id="line11"
   style="fill:#b9e5fb;stroke:#000000;stroke-width:2" />
<line
   fill="none"
   stroke="#000000"
   stroke-dasharray="4,4,4"
   x1="47.348"
   y1="106.35"
   x2="34.458"
   y2="35.237999"
   id="line13"
   style="fill:none;stroke:#000000;stroke-dasharray:4, 4, 4" />
<line
   fill="none"
   stroke="#000000"
   stroke-dasharray="4,4,4"
   x1="49.695999"
   y1="106.35"
   x2="62.585999"
   y2="35.237999"
   id="line15"
   style="fill:none;stroke:#000000;stroke-dasharray:4, 4, 4" />
<g
   id="g17">
	<path
   d="m 53.536,48.887 c 0,0 8.606,-2.487 15.458,4.627"
   inkscape:connector-curvature="0"
   id="path19"
   style="fill:none;stroke:#000000" />
	<path
   d="m 52.892,49.294 c 0.844,0.113 1.406,0.249 2.096,0.4 L 54.511,47.41 c -0.207,0.134 -1.064,0.612 -1.813,0.95 -0.804,0.361 -1.544,0.635 -2.032,0.765 0.513,-0.011 1.321,0.046 2.226,0.169 z"
   inkscape:connector-curvature="0"
   id="path21" />
</g>
<g
   id="g23">
	<path
   d="m 43.046,48.887 c 0,0 -8.609,-2.487 -15.459,4.627"
   inkscape:connector-curvature="0"
   id="path25"
   style="fill:none;stroke:#000000" />
	<path
   d="m 43.689,49.294 c -0.844,0.113 -1.406,0.249 -2.096,0.4 l 0.476,-2.284 c 0.209,0.134 1.064,0.612 1.813,0.95 0.804,0.361 1.545,0.635 2.033,0.765 -0.514,-0.011 -1.321,0.046 -2.226,0.169 z"
   inkscape:connector-curvature="0"
   id="path27" />
</g>
</svg>