<?xml version="1.0" encoding="UTF-8" standalone="no"?>
<!-- Created with Inkscape (http://www.inkscape.org/) -->
<svg id="Layer_1" xmlns:rdf="http://www.w3.org/1999/02/22-rdf-syntax-ns#" xmlns="http://www.w3.org/2000/svg" xml:space="preserve" height="113.39" width="113.39" version="1.1" xmlns:cc="http://creativecommons.org/ns#" xmlns:dc="http://purl.org/dc/elements/1.1/" viewBox="0 0 113.386 113.386"><metadata id="metadata37"><rdf:RDF><cc:Work rdf:about=""><dc:format>image/svg+xml</dc:format><dc:type rdf:resource="http://purl.org/dc/dcmitype/StillImage"/><dc:title/></cc:Work></rdf:RDF></metadata>
<rect id="rect15" height="70.066" width="70.067" stroke="#000" y="22.593" x="39.126" fill="#FFF"/>
<line id="line17" y2="92.514" x2="74.354" stroke="#000" stroke-dasharray="4, 4, 4" y1="22.705" x1="74.354" fill="none"/>
<line id="line19" y2="57.608" x2="109.11" stroke="#000" stroke-dasharray="4, 4, 4" y1="57.608" x1="39.298" fill="none"/>
<line id="line21" y2="22.832" x2="39.635" stroke="#bcbec0" stroke-dasharray="4, 4, 4" y1="92.477" x1="109.28" fill="none"/>
<line id="line23" y2="92.432" x2="39.68" stroke="#bcbec0" stroke-dasharray="4, 4, 4" y1="22.788" x1="109.32" fill="none"/>
<ellipse id="ellipse25" rx="2.904" ry="3.798" stroke="#000" cy="26.203" cx="19.973" fill="none"/>
<path id="path27" d="M6.333,28.46c3.687-4.292,7.967-6.698,14.264-6.044" stroke="#000" fill="none"/>
<path id="path29" d="M32.073,26.896c-3.365-3.298-7.32-5.051-12.806-4.481" stroke="#000" fill="none"/>
<path id="path31" d="m32.936,27.297c-0.33-0.784-0.494-1.336-0.709-2.006l-1.911,1.586c0.234,0.109,1.13,0.598,1.84,1.068,0.758,0.503,1.401,0.996,1.778,1.349-0.277-0.435-0.643-1.158-0.998-1.997z"/>
<g id="g2997"><path id="path9" d="m44.391,53.006s28.959-14.132,61.965,0.77" stroke="#000" fill="none"/><path id="path11" d="m43.322,54.256c1.089-0.177,1.835-0.214,2.747-0.278l-1.414-2.899c-0.21,0.262-1.102,1.243-1.911,1.993-0.867,0.804-1.687,1.464-2.248,1.83,0.634-0.217,1.659-0.456,2.826-0.646z"/><path id="path13" d="m105.87,54.516c-1.148-0.233-1.939-0.311-2.906-0.422l1.656-2.821c0.209,0.272,1.105,1.299,1.928,2.09,0.879,0.849,1.717,1.55,2.294,1.945-0.664-0.251-1.74-0.542-2.972-0.792z"/></g><g id="g3002"><path id="path3" d="m80.01,27.703s13.61,27.891-0.742,59.678" stroke="#000" fill="none"/><path id="path5" d="m78.805,26.673c0.171,1.05,0.207,1.768,0.27,2.646l2.791-1.363c-0.252-0.202-1.197-1.06-1.919-1.84-0.774-0.835-1.409-1.624-1.763-2.165,0.209,0.612,0.44,1.598,0.621,2.722z"/><path id="path7" d="m78.556,86.915c0.225-1.107,0.298-1.869,0.406-2.8l2.718,1.595c-0.263,0.201-1.252,1.064-2.014,1.855-0.816,0.848-1.492,1.654-1.873,2.21,0.241-0.638,0.523-1.675,0.763-2.86z"/></g></svg>
