<?xml version="1.0" encoding="UTF-8" standalone="no"?>
<!-- Created with Inkscape (http://www.inkscape.org/) -->

<svg
   xmlns:dc="http://purl.org/dc/elements/1.1/"
   xmlns:cc="http://creativecommons.org/ns#"
   xmlns:rdf="http://www.w3.org/1999/02/22-rdf-syntax-ns#"
   xmlns:svg="http://www.w3.org/2000/svg"
   xmlns="http://www.w3.org/2000/svg"
   xmlns:inkscape="http://www.inkscape.org/namespaces/inkscape"
   version="1.1"
   width="113.386"
   height="113.386"
   viewBox="0 0 113.386 113.386"
   id="Layer_1"
   xml:space="preserve"
   style="overflow:inherit"><metadata
   id="metadata45"><rdf:RDF><cc:Work
       rdf:about=""><dc:format>image/svg+xml</dc:format><dc:type
         rdf:resource="http://purl.org/dc/dcmitype/StillImage" /></cc:Work></rdf:RDF></metadata><defs
   id="defs43" />
<line
   fill="none"
   stroke="#000000"
   stroke-width="3"
   x1="90.467003"
   y1="72.732002"
   x2="102.366"
   y2="72.671997"
   id="line3"
   style="fill:none;stroke:#000000;stroke-width:3" />
<path
   d="m 110.606,72.639 c -1.268,-0.185 -3.221,-0.703 -5.379,-1.471 -2.014,-0.719 -3.324,-1.382 -4.941,-2.152 l 0.037,7.352 c 0.574,-0.33 2.912,-1.459 4.92,-2.199 2.148,-0.787 4.099,-1.331 5.363,-1.53"
   inkscape:connector-curvature="0"
   id="path5" />
<g
   id="g7">
	<polyline
   fill="#B9E5FB"
   stroke="#000000"
   points="46.607,70.01 57.349,73.765 62.624,53.587 46.781,22.111 31.174,53.873    36.47,73.818 47.211,70.063  "
   id="polyline9"
   style="fill:#b9e5fb;stroke:#000000" />
	<polygon
   points="57.343,75.794 91.184,38.649 56.241,64.88 "
   id="polygon11"
   style="fill:#b9e5fb;stroke:#000000;stroke-linejoin:bevel" />
	<polygon
   points="36.502,75.794 2.66,38.649 37.603,64.88 "
   id="polygon13"
   style="fill:#b9e5fb;stroke:#000000;stroke-linejoin:bevel" />
	<polyline
   fill="#B9E5FB"
   stroke="#000000"
   points="46.607,72.139 57.349,75.894 61.231,54.55 46.781,24.241 32.588,54.604    36.47,75.946 47.211,72.192  "
   id="polyline15"
   style="fill:#b9e5fb;stroke:#000000" />
	<g
   id="g17">
		<path
   d="m 94.028,52.732 c 0,0 1.707,-7.033 -4.934,-9.4"
   inkscape:connector-curvature="0"
   id="path19"
   style="fill:none;stroke:#000000" />
		<path
   d="m 93.649,53.728 c -0.176,-0.824 -0.353,-1.369 -0.556,-2.037 l 2.294,0.294 c -0.118,0.216 -0.523,1.097 -0.801,1.864 -0.295,0.821 -0.508,1.573 -0.601,2.065 -0.026,-0.509 -0.144,-1.303 -0.336,-2.186 z"
   inkscape:connector-curvature="0"
   id="path21" />
	</g>
	<g
   id="g23">
		<path
   d="m 46.153,83.455 c 0,0 -13.893,-23.528 0.576,-54.006"
   inkscape:connector-curvature="0"
   id="path25"
   style="fill:none;stroke:#000000" />
		<path
   d="m 47.523,83.858 c -0.45,-1.216 -0.668,-2.069 -0.958,-3.106 l -2.736,2.274 c 0.33,0.184 1.586,0.995 2.577,1.761 1.061,0.824 1.959,1.624 2.484,2.188 -0.386,-0.683 -0.886,-1.812 -1.367,-3.117 z"
   inkscape:connector-curvature="0"
   id="path27" />
	</g>
	<path
   d="M 46.781,24.241"
   inkscape:connector-curvature="0"
   id="path29"
   style="fill:#b9e5fb;stroke:#000000;stroke-linejoin:bevel" />
	
		<line
   fill="#B9E5FB"
   stroke="#BCBEC0"
   stroke-width="0.5"
   stroke-linejoin="bevel"
   x1="46.796001"
   y1="25.063"
   x2="46.796001"
   y2="71.473999"
   id="line31"
   style="fill:#b9e5fb;stroke:#bcbec0;stroke-width:0.5;stroke-linejoin:bevel" />
	<polyline
   fill="none"
   stroke="#000000"
   stroke-width="0.5"
   points="61.254,54.769 46.568,69.612 59.552,64.279  "
   id="polyline33"
   style="fill:none;stroke:#000000;stroke-width:0.5" />
	<polyline
   fill="none"
   stroke="#000000"
   stroke-width="0.5"
   points="32.352,54.769 47.038,69.612 34.055,64.279  "
   id="polyline35"
   style="fill:none;stroke:#000000;stroke-width:0.5" />
	<line
   fill="none"
   stroke="#000000"
   stroke-dasharray="2,2,2,2"
   x1="73.952003"
   y1="47.061001"
   x2="88.169998"
   y2="49.091999"
   id="line37"
   style="fill:none;stroke:#000000;stroke-dasharray:2, 2, 2, 2" />
	<line
   fill="none"
   stroke="#000000"
   stroke-dasharray="2,2,2,2"
   x1="32.122002"
   y1="54.479"
   x2="61.075001"
   y2="54.479"
   id="line39"
   style="fill:none;stroke:#000000;stroke-dasharray:2, 2, 2, 2" />
</g>
</svg>