<?xml version="1.0" encoding="UTF-8" standalone="no"?>
<!-- Created with Inkscape (http://www.inkscape.org/) -->

<svg
   xmlns:dc="http://purl.org/dc/elements/1.1/"
   xmlns:cc="http://creativecommons.org/ns#"
   xmlns:rdf="http://www.w3.org/1999/02/22-rdf-syntax-ns#"
   xmlns:svg="http://www.w3.org/2000/svg"
   xmlns="http://www.w3.org/2000/svg"
   xmlns:inkscape="http://www.inkscape.org/namespaces/inkscape"
   version="1.1"
   width="113.386"
   height="113.386"
   viewBox="0 0 113.386 113.386"
   id="Layer_1"
   xml:space="preserve"
   style="overflow:inherit"><metadata
   id="metadata23"><rdf:RDF><cc:Work
       rdf:about=""><dc:format>image/svg+xml</dc:format><dc:type
         rdf:resource="http://purl.org/dc/dcmitype/StillImage" /></cc:Work></rdf:RDF></metadata><defs
   id="defs21" />
<polygon
   points="20.71,53.559 56.195,20.517 91.678,53.559 56.195,91.482 "
   id="polygon3"
   style="fill:#b9e5fb;stroke:#000000" />
<rect
   width="50.181999"
   height="50.182999"
   x="31.188999"
   y="28.466999"
   transform="matrix(0.7071,0.7071,-0.7071,0.7071,54.3533,-24.1093)"
   id="rect5"
   style="fill:#b9e5fb;stroke:#000000" />
<line
   fill="none"
   stroke="#BCBEC0"
   stroke-width="0.5"
   stroke-dasharray="2,2,2"
   x1="56.132999"
   y1="87.725998"
   x2="56.132999"
   y2="19.740999"
   id="line7"
   style="fill:none;stroke:#bcbec0;stroke-width:0.5;stroke-dasharray:2, 2, 2" />
<line
   fill="none"
   stroke="#BCBEC0"
   stroke-dasharray="4,4,4,4"
   x1="35.678001"
   y1="40.400002"
   x2="56.425999"
   y2="87.822998"
   id="line9"
   style="fill:none;stroke:#bcbec0;stroke-dasharray:4, 4, 4, 4" />
<line
   fill="none"
   stroke="#BCBEC0"
   stroke-dasharray="4,4,4,4"
   x1="77.607002"
   y1="40.456001"
   x2="56.785"
   y2="86.925003"
   id="line11"
   style="fill:none;stroke:#bcbec0;stroke-dasharray:4, 4, 4, 4" />
<path
   d="m 55.922,29.517 c 5.779,8.99 1.806,22.139 1.806,22.139 6.208,-9.223 6.569,-16.05 3.409,-25.945"
   inkscape:connector-curvature="0"
   id="path13"
   style="fill:none;stroke:#000000" />
<path
   d="m 55.668,27.959 c 0.807,0.686 1.4,1.09 2.116,1.597 l -2.605,1.676 c -0.04,-0.32 -0.283,-1.57 -0.577,-2.589 -0.311,-1.094 -0.654,-2.041 -0.934,-2.622 0.415,0.493 1.135,1.2 2,1.938 z"
   inkscape:connector-curvature="0"
   id="path15" />
<line
   fill="none"
   stroke="#000000"
   stroke-dasharray="4,4,4"
   x1="77.676003"
   y1="39.612"
   x2="35.653999"
   y2="39.612"
   id="line17"
   style="fill:none;stroke:#000000;stroke-dasharray:4, 4, 4" />
</svg>