<?xml version="1.0" encoding="UTF-8" standalone="no"?>
<!-- Created with Inkscape (http://www.inkscape.org/) -->

<svg
   xmlns:dc="http://purl.org/dc/elements/1.1/"
   xmlns:cc="http://creativecommons.org/ns#"
   xmlns:rdf="http://www.w3.org/1999/02/22-rdf-syntax-ns#"
   xmlns:svg="http://www.w3.org/2000/svg"
   xmlns="http://www.w3.org/2000/svg"
   xmlns:inkscape="http://www.inkscape.org/namespaces/inkscape"
   version="1.1"
   width="113.386"
   height="113.386"
   viewBox="0 0 113.386 113.386"
   id="Layer_1"
   xml:space="preserve"
   style="overflow:inherit"><metadata
   id="metadata25"><rdf:RDF><cc:Work
       rdf:about=""><dc:format>image/svg+xml</dc:format><dc:type
         rdf:resource="http://purl.org/dc/dcmitype/StillImage" /></cc:Work></rdf:RDF></metadata><defs
   id="defs23" />
<polygon
   points="20.228,53.421 55.712,20.378 91.196,53.421 55.712,91.346 "
   id="polygon3"
   style="fill:#b9e5fb;stroke:#000000" />
<rect
   width="50.181999"
   height="50.181999"
   x="30.622"
   y="28.33"
   transform="matrix(0.7071,0.7071,-0.7071,0.7071,54.0908,-23.748)"
   id="rect5"
   style="fill:#b9e5fb;stroke:#000000" />
<line
   fill="none"
   stroke="#BCBEC0"
   stroke-width="0.5"
   stroke-dasharray="2,2,2"
   x1="55.566002"
   y1="87.587997"
   x2="55.566002"
   y2="19.604"
   id="line7"
   style="fill:none;stroke:#bcbec0;stroke-width:0.5;stroke-dasharray:2, 2, 2" />
<line
   fill="none"
   stroke="#000000"
   stroke-dasharray="4,4,4,4"
   x1="34.721001"
   y1="39.061001"
   x2="55.712002"
   y2="88.903999"
   id="line9"
   style="fill:none;stroke:#000000;stroke-dasharray:4, 4, 4, 4" />
<line
   fill="none"
   stroke="#000000"
   stroke-dasharray="4,4,4,4"
   x1="77.308998"
   y1="39.061001"
   x2="56.317001"
   y2="88.903999"
   id="line11"
   style="fill:none;stroke:#000000;stroke-dasharray:4, 4, 4, 4" />
<path
   d="M 79.706,55.09 C 71.644,48.074 58.06,50.111 58.06,50.111 68.081,45.299 74.891,45.925 84.225,50.48"
   inkscape:connector-curvature="0"
   id="path13"
   style="fill:none;stroke:#000000" />
<path
   d="m 81.21,55.567 c -0.562,-0.898 -0.876,-1.543 -1.274,-2.324 l -2.035,2.336 c 0.312,0.086 1.515,0.508 2.479,0.944 1.036,0.465 1.926,0.941 2.461,1.302 -0.428,-0.481 -1.026,-1.297 -1.631,-2.258 z"
   inkscape:connector-curvature="0"
   id="path15" />
<path
   d="M 32.184,55.09 C 40.246,48.074 53.83,50.111 53.83,50.111 43.809,45.298 37,45.925 27.665,50.479"
   inkscape:connector-curvature="0"
   id="path17"
   style="fill:none;stroke:#000000" />
<path
   d="m 30.68,55.567 c 0.562,-0.898 0.876,-1.543 1.273,-2.324 l 2.035,2.336 c -0.312,0.086 -1.514,0.508 -2.479,0.944 -1.038,0.465 -1.926,0.941 -2.46,1.302 0.429,-0.481 1.026,-1.297 1.631,-2.258 z"
   inkscape:connector-curvature="0"
   id="path19" />
</svg>