<?xml version="1.0" encoding="UTF-8" standalone="no"?>
<!-- Created with Inkscape (http://www.inkscape.org/) -->

<svg
   xmlns:dc="http://purl.org/dc/elements/1.1/"
   xmlns:cc="http://creativecommons.org/ns#"
   xmlns:rdf="http://www.w3.org/1999/02/22-rdf-syntax-ns#"
   xmlns:svg="http://www.w3.org/2000/svg"
   xmlns="http://www.w3.org/2000/svg"
   xmlns:inkscape="http://www.inkscape.org/namespaces/inkscape"
   version="1.1"
   width="113.386"
   height="113.386"
   viewBox="0 0 113.386 113.386"
   id="Layer_1"
   xml:space="preserve"
   style="overflow:inherit"><metadata
   id="metadata35"><rdf:RDF><cc:Work
       rdf:about=""><dc:format>image/svg+xml</dc:format><dc:type
         rdf:resource="http://purl.org/dc/dcmitype/StillImage" /></cc:Work></rdf:RDF></metadata><defs
   id="defs33" />
<polyline
   fill="#B9E5FB"
   stroke="#000000"
   points="49.829,105.321 14.343,67.395 49.829,34.353 85.311,67.395 49.829,105.321 "
   id="polyline3"
   style="fill:#b9e5fb;stroke:#000000" />
<rect
   width="50.183998"
   height="50.182999"
   x="24.618999"
   y="42.228001"
   transform="matrix(0.7071,0.7071,-0.7071,0.7071,62.1604,-15.4333)"
   id="rect5"
   style="fill:#b9e5fb;stroke:#000000" />
<line
   fill="none"
   stroke="#000000"
   stroke-dasharray="4,4,4"
   x1="71.402"
   y1="54.120998"
   x2="29.379"
   y2="54.120998"
   id="line7"
   style="fill:none;stroke:#000000;stroke-dasharray:4, 4, 4" />
<line
   fill="none"
   stroke="#000000"
   stroke-width="3"
   x1="84.134003"
   y1="94.700996"
   x2="96.657997"
   y2="94.637001"
   id="line9"
   style="fill:none;stroke:#000000;stroke-width:3" />
<path
   d="m 99.67,93.052 c -2.119,-0.757 -3.498,-1.455 -5.201,-2.263 l 0.039,7.737 c 0.605,-0.35 3.066,-1.536 5.18,-2.314 2.264,-0.831 4.312,-1.401 5.646,-1.611 C 104,94.407 101.943,93.859 99.67,93.052 z"
   inkscape:connector-curvature="0"
   id="path11" />
<polyline
   points="93.508,69.188 86.778,68.318 92.204,72.371 "
   id="polyline13" />
<polyline
   points="7.112,72.371 7.894,70.223 5.807,69.188 "
   id="polyline15" />
<polyline
   points="5.807,69.188 12.537,68.318 7.112,72.371 "
   id="polyline17" />
<line
   fill="none"
   stroke="#BCBEC0"
   stroke-width="0.5"
   stroke-dasharray="2,2,2"
   x1="49.563"
   y1="101.487"
   x2="49.563"
   y2="33.502998"
   id="line19"
   style="fill:none;stroke:#bcbec0;stroke-width:0.5;stroke-dasharray:2, 2, 2" />
<line
   fill="none"
   stroke="#BCBEC0"
   stroke-dasharray="4,4,4,4"
   x1="29.108"
   y1="54.161999"
   x2="49.855"
   y2="101.586"
   id="line21"
   style="fill:none;stroke:#bcbec0;stroke-dasharray:4, 4, 4, 4" />
<line
   fill="none"
   stroke="#BCBEC0"
   stroke-dasharray="4,4,4,4"
   x1="71.038002"
   y1="54.219002"
   x2="50.214001"
   y2="100.688"
   id="line23"
   style="fill:none;stroke:#bcbec0;stroke-dasharray:4, 4, 4, 4" />
<path
   d="m 52.332,16.564 c 0,0 17.803,36.484 -0.971,78.066"
   inkscape:connector-curvature="0"
   id="path25"
   style="fill:none;stroke:#000000" />
<path
   d="m 50.757,15.216 c 0.222,1.373 0.269,2.312 0.351,3.461 l 3.652,-1.782 c -0.331,-0.264 -1.566,-1.387 -2.511,-2.408 -1.013,-1.091 -1.844,-2.123 -2.306,-2.831 0.273,0.801 0.575,2.091 0.814,3.56 z"
   inkscape:connector-curvature="0"
   id="path27" />
<polyline
   fill="none"
   stroke="#BCBEC0"
   points="28.262,52.174 49.8,4.349 72.07,52.72 "
   id="polyline29"
   style="fill:none;stroke:#bcbec0" />
</svg>