<?xml version="1.0" encoding="UTF-8" standalone="no"?>
<!-- Created with Inkscape (http://www.inkscape.org/) -->

<svg
   xmlns:dc="http://purl.org/dc/elements/1.1/"
   xmlns:cc="http://creativecommons.org/ns#"
   xmlns:rdf="http://www.w3.org/1999/02/22-rdf-syntax-ns#"
   xmlns:svg="http://www.w3.org/2000/svg"
   xmlns="http://www.w3.org/2000/svg"
   xmlns:inkscape="http://www.inkscape.org/namespaces/inkscape"
   version="1.1"
   width="113.386"
   height="113.386"
   viewBox="0 0 113.386 113.386"
   id="Layer_1"
   xml:space="preserve"
   style="overflow:inherit"><metadata
   id="metadata47"><rdf:RDF><cc:Work
       rdf:about=""><dc:format>image/svg+xml</dc:format><dc:type
         rdf:resource="http://purl.org/dc/dcmitype/StillImage" /></cc:Work></rdf:RDF></metadata><defs
   id="defs45" />
<rect
   width="70.285004"
   height="70.287003"
   x="20.596001"
   y="21.056999"
   transform="matrix(0.7071,0.7071,-0.7071,0.7071,56.0666,-22.9526)"
   id="rect3"
   style="fill:#b9e5fb;stroke:#000000;stroke-linejoin:round" />
<polygon
   points="54.793,55.919 55.398,5.95 6.041,56.201 "
   id="polygon5"
   style="fill:#b9e5fb;stroke:#000000;stroke-linejoin:round" />
<polygon
   points="56.611,55.919 56.006,5.95 105.363,56.201 "
   id="polygon7"
   style="fill:#b9e5fb;stroke:#000000;stroke-linejoin:round" />
<polygon
   points="41.605,20.189 19.494,18.837 54.793,55.919 "
   id="polygon9"
   style="fill:#b9e5fb;stroke:#000000" />
<polygon
   points="70.359,20.189 92.471,18.837 57.17,55.919 "
   id="polygon11"
   style="fill:#b9e5fb;stroke:#000000" />
<polygon
   points="41.524,91.362 55.739,105.901 69.666,91.747 55.401,54.355 "
   id="polygon13"
   style="fill:#ffffff;stroke:#000000;stroke-width:0.5" />
<polygon
   points="70.189,92.683 92.301,94.035 57.002,56.953 "
   id="polygon15"
   style="fill:#ffffff;stroke:#000000" />
<polygon
   points="41.436,92.683 19.325,94.035 54.625,56.953 "
   id="polygon17"
   style="fill:#ffffff;stroke:#000000" />
<line
   fill="none"
   stroke="#000000"
   stroke-dasharray="2"
   x1="69.453003"
   y1="19.732"
   x2="43.030998"
   y2="19.732"
   id="line19"
   style="fill:none;stroke:#000000;stroke-dasharray:2" />
<line
   fill="none"
   stroke="#000000"
   stroke-dasharray="4,4,4"
   x1="30.832001"
   y1="31.181999"
   x2="30.832001"
   y2="81.977997"
   id="line21"
   style="fill:none;stroke:#000000;stroke-dasharray:4, 4, 4" />
<line
   fill="none"
   stroke="#000000"
   stroke-dasharray="4,4,4"
   x1="80.905998"
   y1="31.181999"
   x2="80.905998"
   y2="81.977997"
   id="line23"
   style="fill:none;stroke:#000000;stroke-dasharray:4, 4, 4" />
<g
   id="g25">
	<path
   d="m 68.537,50.683 c 0,0 15.492,-7.149 31.602,2.939"
   inkscape:connector-curvature="0"
   id="path27"
   style="fill:none;stroke:#000000;stroke-width:0.5" />
	<path
   d="m 67.129,52.082 c 1.326,-0.105 2.229,-0.076 3.33,-0.065 l -1.414,-3.626 c -0.279,0.293 -1.449,1.385 -2.496,2.209 -1.123,0.882 -2.172,1.594 -2.881,1.979 0.783,-0.199 2.039,-0.389 3.461,-0.497 z"
   inkscape:connector-curvature="0"
   id="path29" />
</g>
<g
   id="g31">
	<path
   d="m 42.366,50.683 c 0,0 -15.492,-7.149 -31.603,2.939"
   inkscape:connector-curvature="0"
   id="path33"
   style="fill:none;stroke:#000000;stroke-width:0.5" />
	<path
   d="m 43.773,52.082 c -1.327,-0.105 -2.229,-0.076 -3.331,-0.065 l 1.415,-3.626 c 0.28,0.293 1.449,1.385 2.496,2.209 1.124,0.882 2.173,1.594 2.882,1.979 -0.784,-0.199 -2.039,-0.389 -3.462,-0.497 z"
   inkscape:connector-curvature="0"
   id="path35" />
</g>
<g
   id="g37">
	<path
   d="m 60.324,30.987 c 0,0 4.607,-9.983 -1.895,-20.364"
   inkscape:connector-curvature="0"
   id="path39"
   style="fill:none;stroke:#000000;stroke-width:0.5" />
	<path
   d="m 59.424,31.893 c 0.068,-0.853 0.049,-1.436 0.041,-2.146 l 2.338,0.913 c -0.191,0.181 -0.895,0.933 -1.424,1.607 -0.568,0.725 -1.027,1.399 -1.277,1.856 0.128,-0.504 0.25,-1.312 0.322,-2.23 z"
   inkscape:connector-curvature="0"
   id="path41" />
</g>
</svg>