<?xml version="1.0" encoding="UTF-8" standalone="no"?>
<!-- Created with Inkscape (http://www.inkscape.org/) -->

<svg
   xmlns:dc="http://purl.org/dc/elements/1.1/"
   xmlns:cc="http://creativecommons.org/ns#"
   xmlns:rdf="http://www.w3.org/1999/02/22-rdf-syntax-ns#"
   xmlns:svg="http://www.w3.org/2000/svg"
   xmlns="http://www.w3.org/2000/svg"
   xmlns:inkscape="http://www.inkscape.org/namespaces/inkscape"
   version="1.1"
   width="113.386"
   height="113.386"
   viewBox="0 0 113.386 113.386"
   id="Layer_1"
   xml:space="preserve"
   style="overflow:inherit"><metadata
   id="metadata19"><rdf:RDF><cc:Work
       rdf:about=""><dc:format>image/svg+xml</dc:format><dc:type
         rdf:resource="http://purl.org/dc/dcmitype/StillImage" /></cc:Work></rdf:RDF></metadata><defs
   id="defs17" />
<rect
   width="73.028"
   height="73.028"
   x="19.135"
   y="19.643999"
   transform="matrix(0.7071,-0.7071,0.7071,0.7071,-23.4101,55.7988)"
   id="rect3"
   style="fill:#ffffff;stroke:#000000" />
<g
   id="g5">
	<path
   d="m 14.002,51.42 c 0,0 40.395,-19.712 86.431,1.075"
   inkscape:connector-curvature="0"
   id="path7"
   style="fill:none;stroke:#000000;stroke-width:0.5" />
	<path
   d="m 12.512,53.165 c 1.519,-0.247 2.559,-0.298 3.831,-0.389 L 14.37,48.733 c -0.294,0.365 -1.537,1.734 -2.666,2.78 -1.209,1.122 -2.353,2.041 -3.135,2.553 0.885,-0.303 2.314,-0.638 3.943,-0.901 z"
   inkscape:connector-curvature="0"
   id="path9" />
	<path
   d="m 99.758,53.526 c -1.603,-0.325 -2.707,-0.432 -4.053,-0.589 l 2.309,-3.935 c 0.291,0.38 1.542,1.812 2.689,2.915 1.227,1.184 2.393,2.162 3.199,2.714 -0.925,-0.348 -2.427,-0.756 -4.144,-1.105 z"
   inkscape:connector-curvature="0"
   id="path11" />
</g>
<line
   fill="none"
   stroke="#000000"
   stroke-dasharray="4,4,4"
   x1="55.384998"
   y1="107.936"
   x2="55.384998"
   y2="5.2810001"
   id="line13"
   style="fill:none;stroke:#000000;stroke-dasharray:4, 4, 4" />
</svg>