<?xml version="1.0" encoding="UTF-8" standalone="no"?>
<!-- Created with Inkscape (http://www.inkscape.org/) -->

<svg
   xmlns:dc="http://purl.org/dc/elements/1.1/"
   xmlns:cc="http://creativecommons.org/ns#"
   xmlns:rdf="http://www.w3.org/1999/02/22-rdf-syntax-ns#"
   xmlns:svg="http://www.w3.org/2000/svg"
   xmlns="http://www.w3.org/2000/svg"
   xmlns:inkscape="http://www.inkscape.org/namespaces/inkscape"
   version="1.1"
   width="113.386"
   height="113.386"
   viewBox="0 0 113.386 113.386"
   id="Layer_1"
   xml:space="preserve"
   style="overflow:inherit"><metadata
   id="metadata39"><rdf:RDF><cc:Work
       rdf:about=""><dc:format>image/svg+xml</dc:format><dc:type
         rdf:resource="http://purl.org/dc/dcmitype/StillImage" /></cc:Work></rdf:RDF></metadata><defs
   id="defs37" />
<polygon
   points="43.077,106.651 17.615,81.19 17.589,32.74 30.223,20.104 56.007,20.18 68.637,32.811 69.047,80.683 "
   id="polygon3"
   style="fill:#b9e5fb;stroke:#000000;stroke-linejoin:round" />
<polygon
   points="28.86,92.112 43.077,106.651 57.002,92.497 43.296,56.39 "
   id="polygon5"
   style="fill:#ffffff;stroke:#000000;stroke-width:0.5" />
<g
   id="g7">
	<line
   fill="none"
   stroke="#000000"
   stroke-width="3"
   x1="79.931999"
   y1="46.153"
   x2="95.596001"
   y2="46.153"
   id="line9"
   style="fill:none;stroke:#000000;stroke-width:3" />
	<path
   d="M 99.373,44.191 C 96.728,43.233 95.008,42.35 92.881,41.327 v 9.679 c 0.76,-0.434 3.848,-1.903 6.492,-2.861 2.838,-1.025 5.406,-1.727 7.072,-1.979 -1.666,-0.253 -4.234,-0.949 -7.072,-1.975 z"
   inkscape:connector-curvature="0"
   id="path11" />
</g>
<polygon
   points="28.941,20.939 6.83,19.587 42.129,56.669 "
   id="polygon13"
   style="fill:#b9e5fb;stroke:#000000" />
<polygon
   points="57.697,20.939 79.809,19.587 44.508,56.669 "
   id="polygon15"
   style="fill:#b9e5fb;stroke:#000000" />
<polygon
   points="57.528,93.433 79.639,94.786 44.34,57.704 "
   id="polygon17"
   style="fill:#ffffff;stroke:#000000" />
<polygon
   points="28.773,93.433 6.662,94.786 41.961,57.704 "
   id="polygon19"
   style="fill:#ffffff;stroke:#000000" />
<polygon
   points="42.708,31.709 56.007,20.18 30.956,20.248 "
   id="polygon21"
   style="fill:#b9e5fb;stroke:#000000;stroke-linejoin:round" />
<polygon
   points="40.064,57.563 17.615,81.19 17.734,33.472 "
   id="polygon23"
   style="fill:#b9e5fb;stroke:#000000" />
<polygon
   points="46.117,57.563 68.566,81.19 68.447,33.472 "
   id="polygon25"
   style="fill:#b9e5fb;stroke:#000000" />
<line
   fill="none"
   stroke="#000000"
   stroke-dasharray="2"
   x1="57.672001"
   y1="23.714001"
   x2="31.249001"
   y2="23.714001"
   id="line27"
   style="fill:none;stroke:#000000;stroke-dasharray:2" />
<g
   id="g29">
	<path
   d="m 45.468,8.341 c 0,0 4.896,9.984 -2.013,20.365"
   inkscape:connector-curvature="0"
   id="path31"
   style="fill:none;stroke:#000000;stroke-width:0.5" />
	<path
   d="m 44.51,7.435 c 0.072,0.855 0.051,1.436 0.044,2.146 L 47.037,8.67 C 46.836,8.488 46.087,7.735 45.524,7.061 44.92,6.338 44.433,5.662 44.169,5.205 c 0.136,0.503 0.266,1.312 0.341,2.23 z"
   inkscape:connector-curvature="0"
   id="path33" />
</g>
</svg>