<?xml version="1.0" encoding="UTF-8" standalone="no"?>
<!-- Created with Inkscape (http://www.inkscape.org/) -->

<svg
   xmlns:dc="http://purl.org/dc/elements/1.1/"
   xmlns:cc="http://creativecommons.org/ns#"
   xmlns:rdf="http://www.w3.org/1999/02/22-rdf-syntax-ns#"
   xmlns:svg="http://www.w3.org/2000/svg"
   xmlns="http://www.w3.org/2000/svg"
   version="1.1"
   width="113.386"
   height="113.386"
   viewBox="0 0 113.386 113.386"
   id="Layer_1"
   xml:space="preserve"
   style="overflow:inherit"><metadata
   id="metadata27"><rdf:RDF><cc:Work
       rdf:about=""><dc:format>image/svg+xml</dc:format><dc:type
         rdf:resource="http://purl.org/dc/dcmitype/StillImage" /></cc:Work></rdf:RDF></metadata><defs
   id="defs25" />
<polygon
   points="56.408,103.052 30.946,77.59 30.92,29.14 43.554,16.504 69.338,16.58 81.969,29.21 82.377,77.083 "
   id="polygon3"
   style="fill:#b9e5fb;stroke:#000000;stroke-linejoin:round" />
<polygon
   points="42.191,88.512 56.408,103.052 70.334,88.897 56.627,52.79 "
   id="polygon5"
   style="fill:#ffffff;stroke:#000000;stroke-width:0.5" />
<polygon
   points="42.272,17.339 20.162,15.987 55.46,53.068 "
   id="polygon7"
   style="fill:#b9e5fb;stroke:#000000" />
<polygon
   points="71.027,17.339 93.139,15.987 57.839,53.068 "
   id="polygon9"
   style="fill:#b9e5fb;stroke:#000000" />
<polygon
   points="70.859,89.833 92.971,91.187 57.671,54.104 "
   id="polygon11"
   style="fill:#ffffff;stroke:#000000" />
<polygon
   points="42.104,89.833 19.993,91.187 55.292,54.104 "
   id="polygon13"
   style="fill:#ffffff;stroke:#000000" />
<polygon
   points="49.098,20.969 64.234,21.005 69.338,16.58 44.287,16.647 "
   id="polygon15"
   style="fill:#b9e5fb;stroke:#000000;stroke-linejoin:round" />
<polygon
   points="53.395,53.964 30.946,77.59 31.064,29.871 "
   id="polygon17"
   style="fill:#b9e5fb;stroke:#000000" />
<polygon
   points="59.447,53.964 81.896,77.59 81.777,29.871 "
   id="polygon19"
   style="fill:#b9e5fb;stroke:#000000" />
<polygon
   points="56.385,8.907 64.234,21.005 49.098,20.969 "
   id="polygon21"
   style="fill:#b9e5fb;stroke:#000000;stroke-linejoin:round" />
</svg>