<?xml version="1.0" encoding="UTF-8" standalone="no"?>
<!-- Created with Inkscape (http://www.inkscape.org/) -->

<svg
   xmlns:dc="http://purl.org/dc/elements/1.1/"
   xmlns:cc="http://creativecommons.org/ns#"
   xmlns:rdf="http://www.w3.org/1999/02/22-rdf-syntax-ns#"
   xmlns:svg="http://www.w3.org/2000/svg"
   xmlns="http://www.w3.org/2000/svg"
   xmlns:inkscape="http://www.inkscape.org/namespaces/inkscape"
   version="1.1"
   width="113.386"
   height="113.386"
   viewBox="0 0 113.386 113.386"
   id="Layer_1"
   xml:space="preserve"
   style="overflow:inherit"><metadata
   id="metadata37"><rdf:RDF><cc:Work
       rdf:about=""><dc:format>image/svg+xml</dc:format><dc:type
         rdf:resource="http://purl.org/dc/dcmitype/StillImage" /></cc:Work></rdf:RDF></metadata><defs
   id="defs35" />
<path
   d="m 45.998,29.443 c 0,0 -1.332,-5.331 -1.332,-7.997 0,0 6.071,5.035 8.293,10.069 l -6.961,-2.072 z"
   inkscape:connector-curvature="0"
   id="path3"
   style="fill:#b9e5fb;stroke:#000000" />
<path
   d="m 66.141,29.443 c 0,0 1.332,-5.331 1.332,-7.997 0,0 -6.072,5.035 -8.293,10.069 l 6.961,-2.072 z"
   inkscape:connector-curvature="0"
   id="path5"
   style="fill:#b9e5fb;stroke:#000000" />
<polygon
   points="81.143,39.328 108.633,57.653 68.578,64.984 74.922,51.02 71.98,43.777 "
   id="polygon7"
   style="fill:#b9e5fb;stroke:#000000;stroke-linejoin:round" />
<polygon
   points="32.187,39.328 4.7,57.653 43.812,64.959 37.715,50.589 40.501,43.362 "
   id="polygon9"
   style="fill:#b9e5fb;stroke:#000000;stroke-linejoin:round" />
<polygon
   points="74.965,50.526 56.097,92.123 37.509,50.415 46.25,29.34 66.018,29.34 "
   id="polygon11"
   style="fill:#b9e5fb;stroke:#000000;stroke-linejoin:round" />
<line
   fill="none"
   stroke="#000000"
   stroke-linejoin="round"
   x1="38.105"
   y1="50.789001"
   x2="4.6999998"
   y2="57.653"
   id="line13"
   style="fill:none;stroke:#000000;stroke-linejoin:round" />
<g
   id="g15">
	<polyline
   fill="#B9E5FB"
   stroke="#000000"
   stroke-linejoin="round"
   points="49.879,29.45 47.783,33.931 64.189,33.931    62.213,29.468 49.879,29.45  "
   id="polyline17"
   style="fill:#b9e5fb;stroke:#000000;stroke-linejoin:round" />
	<polygon
   points="56.16,43.904 62.213,29.468 49.648,29.602 "
   id="polygon19"
   style="fill:#b9e5fb;stroke:#000000;stroke-linejoin:round" />
</g>
<polygon
   points="64.266,34.117 47.858,34.123 46.25,29.34 66.018,29.34 "
   id="polygon21"
   style="fill:#b9e5fb;stroke:#000000;stroke-linejoin:round" />
<line
   fill="none"
   stroke="#000000"
   stroke-linejoin="round"
   x1="75.226997"
   y1="50.789001"
   x2="108.633"
   y2="57.653"
   id="line23"
   style="fill:none;stroke:#000000;stroke-linejoin:round" />
<polygon
   points="75.045,50.526 56.179,92.123 37.588,50.415 55.951,44.432 "
   id="polygon25"
   style="fill:#b9e5fb;stroke:#000000;stroke-linejoin:round" />
<line
   fill="#BCBEC0"
   stroke="#BCBEC0"
   stroke-width="0.5"
   x1="56.341999"
   y1="44.431999"
   x2="56.341999"
   y2="77.549004"
   id="line27"
   style="fill:#bcbec0;stroke:#bcbec0;stroke-width:0.5" />
<polygon
   points="42.663,83.212 56.082,77.157 52.539,83.238 "
   id="polygon29"
   style="fill:#b9e5fb;stroke:#000000;stroke-linejoin:round" />
<polygon
   points="69.947,83.212 56.605,77.025 59.842,83.238 "
   id="polygon31"
   style="fill:#b9e5fb;stroke:#000000;stroke-linejoin:round" />
</svg>