<?xml version="1.0" encoding="utf-8"?>
<!-- Generator: Adobe Illustrator 15.0.0, SVG Export Plug-In . SVG Version: 6.00 Build 0)  -->
<!DOCTYPE svg PUBLIC "-//W3C//DTD SVG 1.1 Tiny//EN" "http://www.w3.org/Graphics/SVG/1.1/DTD/svg11-tiny.dtd">
<svg version="1.1" baseProfile="tiny" id="Layer_1" xmlns="http://www.w3.org/2000/svg" xmlns:xlink="http://www.w3.org/1999/xlink"
	 x="0px" y="0px" width="113.386px" height="113.386px" viewBox="0 0 113.386 113.386" overflow="inherit" xml:space="preserve">
<polygon fill="#B9E5FB" stroke="#000000" stroke-linejoin="round" points="72.687,40.541 81.849,36.09 109.337,54.417 
	69.283,61.748 75.627,47.784 "/>
<polygon fill="#B9E5FB" stroke="#000000" stroke-linejoin="round" points="41.207,40.125 32.894,36.09 5.406,54.417 44.518,61.723 
	38.421,47.352 "/>
<polygon fill="#B9E5FB" stroke="#000000" stroke-linejoin="round" points="66.723,26.105 75.67,47.289 56.803,88.887 38.215,47.179 
	46.955,26.105 "/>
<line fill="none" stroke="#000000" stroke-linejoin="round" x1="38.811" y1="47.552" x2="5.406" y2="54.417"/>
<g>
	<polyline fill="#B9E5FB" stroke="#000000" stroke-linejoin="round" points="50.584,26.212 48.488,30.694 64.895,30.694 
		62.918,26.232 50.584,26.212 	"/>
	<polygon fill="#B9E5FB" stroke="#000000" stroke-linejoin="round" points="50.354,26.365 56.864,40.667 62.918,26.232 	"/>
</g>
<polygon fill="#B9E5FB" stroke="#000000" stroke-linejoin="round" points="66.723,26.105 64.97,30.88 48.563,30.887 46.955,26.105 
	"/>
<line fill="none" stroke="#000000" stroke-linejoin="round" x1="75.931" y1="47.552" x2="109.337" y2="54.417"/>
<polygon fill="#B9E5FB" stroke="#000000" stroke-linejoin="round" points="56.655,41.195 75.749,47.289 56.884,88.887 
	38.293,47.179 "/>
<line fill="#BCBEC0" stroke="#BCBEC0" stroke-width="0.5" x1="57.048" y1="41.195" x2="57.048" y2="74.312"/>
<polygon fill="#B9E5FB" stroke="#000000" stroke-linejoin="round" points="53.244,80 43.369,79.977 56.787,73.92 "/>
<polygon fill="#B9E5FB" stroke="#000000" stroke-linejoin="round" points="60.547,80 70.652,79.977 57.311,73.789 "/>
</svg>
