<?xml version="1.0" encoding="UTF-8" standalone="no"?>
<!-- Created with Inkscape (http://www.inkscape.org/) -->

<svg
   xmlns:dc="http://purl.org/dc/elements/1.1/"
   xmlns:cc="http://creativecommons.org/ns#"
   xmlns:rdf="http://www.w3.org/1999/02/22-rdf-syntax-ns#"
   xmlns:svg="http://www.w3.org/2000/svg"
   xmlns="http://www.w3.org/2000/svg"
   xmlns:inkscape="http://www.inkscape.org/namespaces/inkscape"
   version="1.1"
   width="113.386"
   height="113.386"
   viewBox="0 0 113.386 113.386"
   id="Layer_1"
   xml:space="preserve"
   style="overflow:inherit"><metadata
   id="metadata33"><rdf:RDF><cc:Work
       rdf:about=""><dc:format>image/svg+xml</dc:format><dc:type
         rdf:resource="http://purl.org/dc/dcmitype/StillImage" /></cc:Work></rdf:RDF></metadata><defs
   id="defs31" />
<polygon
   points="15.47,69.682 50.017,37.515 84.561,69.682 50.017,106.604 "
   id="polygon3"
   style="fill:#b9e5fb;stroke:#000000" />
<rect
   width="48.855"
   height="48.855999"
   x="25.474001"
   y="45.181"
   transform="matrix(0.7071,0.7071,-0.7071,0.7071,63.8349,-14.8979)"
   id="rect5"
   style="fill:#b9e5fb;stroke:#000000" />
<line
   fill="none"
   stroke="#000000"
   stroke-dasharray="4,4,4"
   x1="71.018997"
   y1="56.761002"
   x2="30.108"
   y2="56.761002"
   id="line7"
   style="fill:none;stroke:#000000;stroke-dasharray:4, 4, 4" />
<polygon
   points="85.988,70.582 91.271,74.525 90.508,72.436 92.54,71.428 "
   id="polygon9" />
<polygon
   points="13.711,70.582 8.43,74.525 9.192,72.436 7.159,71.428 "
   id="polygon11" />
<line
   fill="none"
   stroke="#BCBEC0"
   stroke-width="0.5"
   stroke-dasharray="2,2,2"
   x1="49.757999"
   y1="102.873"
   x2="49.757999"
   y2="36.687"
   id="line13"
   style="fill:none;stroke:#bcbec0;stroke-width:0.5;stroke-dasharray:2, 2, 2" />
<line
   fill="none"
   stroke="#BCBEC0"
   stroke-dasharray="4,4,4,4"
   x1="29.844"
   y1="56.799"
   x2="50.042999"
   y2="102.967"
   id="line15"
   style="fill:none;stroke:#bcbec0;stroke-dasharray:4, 4, 4, 4" />
<line
   fill="none"
   stroke="#BCBEC0"
   stroke-dasharray="4,4,4,4"
   x1="70.663002"
   y1="56.854"
   x2="50.391998"
   y2="102.093"
   id="line17"
   style="fill:none;stroke:#bcbec0;stroke-dasharray:4, 4, 4, 4" />
<path
   d="m 52.453,20.196 c 0,0 17.333,35.519 -0.945,76"
   inkscape:connector-curvature="0"
   id="path19"
   style="fill:none;stroke:#000000" />
<path
   d="m 50.92,18.884 c 0.216,1.336 0.262,2.251 0.342,3.371 l 3.555,-1.735 c -0.322,-0.258 -1.524,-1.351 -2.444,-2.344 -0.986,-1.063 -1.794,-2.068 -2.245,-2.757 0.266,0.778 0.56,2.035 0.792,3.465 z"
   inkscape:connector-curvature="0"
   id="path21" />
<polyline
   fill="none"
   stroke="#BCBEC0"
   points="28.996,55.772 49.989,8.304 71.537,55.991 "
   id="polyline23"
   style="fill:none;stroke:#bcbec0" />
<line
   fill="none"
   stroke="#000000"
   stroke-width="3"
   x1="83.221001"
   y1="99.134003"
   x2="95.413002"
   y2="99.071999"
   id="line25"
   style="fill:none;stroke:#000000;stroke-width:3" />
<path
   d="m 98.346,97.527 c -2.062,-0.734 -3.405,-1.416 -5.062,-2.201 l 0.037,7.533 c 0.59,-0.34 2.986,-1.497 5.043,-2.255 2.203,-0.808 4.199,-1.362 5.496,-1.566 -1.299,-0.189 -3.301,-0.724 -5.514,-1.511 z"
   inkscape:connector-curvature="0"
   id="path27" />
</svg>