<?xml version="1.0" encoding="UTF-8" standalone="no"?>
<!-- Generator: Adobe Illustrator 15.0.0, SVG Export Plug-In . SVG Version: 6.00 Build 0)  -->
<svg id="Layer_1" xmlns:rdf="http://www.w3.org/1999/02/22-rdf-syntax-ns#" xmlns="http://www.w3.org/2000/svg" xml:space="preserve" overflow="inherit" height="113.39px" viewBox="0 0 113.386 113.386" width="113.39px" version="1.1" y="0px" x="0px" xmlns:cc="http://creativecommons.org/ns#" xmlns:dc="http://purl.org/dc/elements/1.1/"><metadata id="metadata41"><rdf:RDF><cc:Work rdf:about=""><dc:format>image/svg+xml</dc:format><dc:type rdf:resource="http://purl.org/dc/dcmitype/StillImage"/><dc:title/></cc:Work></rdf:RDF></metadata>
<polygon id="polygon3" stroke-linejoin="round" stroke="#000" points="72.766,32.226,81.928,27.776,109.42,46.102,69.363,53.433,75.707,39.469" fill="#B9E5FB"/>
<polygon id="polygon5" stroke-linejoin="round" stroke="#000" points="41.287,31.811,32.972,27.776,5.485,46.102,44.596,53.408,38.5,39.038" fill="#B9E5FB"/>
<polygon id="polygon7" stroke-linejoin="round" stroke="#000" points="66.803,17.79,75.75,38.975,56.882,80.571,38.294,38.864,47.035,17.79" fill="#B9E5FB"/>
<line id="line9" stroke-linejoin="round" y2="46.102" x2="5.485" stroke="#000" y1="39.238" x1="38.892" fill="none"/>
<g id="g11" stroke-linejoin="round" stroke="#000" fill="#B9E5FB">
	<polyline id="polyline13" points="50.664,17.898,48.568,22.38,64.975,22.38,62.998,17.917,50.664,17.898"/>
	<polygon id="polygon15" points="50.432,18.051,56.944,32.353,62.998,17.917"/>
</g>
<polygon id="polygon17" stroke-linejoin="round" stroke="#000" points="66.803,17.79,65.049,22.565,48.643,22.573,47.035,17.79" fill="#B9E5FB"/>
<line id="line19" stroke-linejoin="round" y2="46.102" x2="109.42" stroke="#000" y1="39.238" x1="76.012" fill="none"/>
<polyline id="polyline21" stroke-linejoin="round" stroke="#000" points="38.181,39.297,56.524,32.488,76.012,39.238" fill="none"/>
<line id="line23" y2="80.483" x2="56.858" stroke="#000" stroke-dasharray="2,2,2" y1="67.568" x1="57.032" fill="none"/>
<path id="path27" fill="none" d="M55.657,97.267c-1.706-1.778-0.159-4.666,0.791-6.086,0.021,3.142-0.265,5.885-0.673,6.184-0.019-0.009-0.053-0.029-0.118-0.098z"/>
<path id="path29" d="M56.944,90.927s-2.332-8.005-2.679-9.896c-0.346-1.891,2.807,6.421,2.807,6.421l-0.128,3.475z"/>
<path id="path31" d="M57.719,89.802l-0.646-0.687,0.024,0.942c0,0.017,0.051,1.821,0.236,3.65,0.35,3.436,0.861,4.062,1.312,4.223,0.174,0.062,0.516,0.102,0.881-0.325,2.601-3.029-1.628-7.61-1.807-7.803zm1.152,7.44c-0.422-0.276-0.86-3.001-1.012-6.138,1.028,1.365,2.731,4.162,1.125,6.033-0.062,0.074-0.093,0.094-0.113,0.105z"/>
<path id="path33" d="M57.29,90.861s2.71-7.888,3.148-9.758c0.436-1.873-3.111,6.28-3.111,6.28l-0.037,3.478z"/>
<rect id="rect35" y="87.401" x="56.922" height="3.996" width="0.46"/>
<path id="path31-2" fill="#000" d="m56.398,89.802,0.646-0.687-0.024,0.942c0,0.017-0.051,1.821-0.236,3.65-0.35,3.436-0.861,4.062-1.312,4.223-0.174,0.062-0.516,0.102-0.881-0.325-2.601-3.029,1.628-7.61,1.807-7.803zm-1.152,7.44c0.422-0.276,0.86-3.001,1.012-6.138-1.028,1.365-2.731,4.162-1.125,6.033,0.062,0.074,0.093,0.094,0.113,0.105z"/></svg>
