<?xml version="1.0" encoding="utf-8"?>
<!-- Generator: Adobe Illustrator 15.0.0, SVG Export Plug-In . SVG Version: 6.00 Build 0)  -->
<!DOCTYPE svg PUBLIC "-//W3C//DTD SVG 1.1 Tiny//EN" "http://www.w3.org/Graphics/SVG/1.1/DTD/svg11-tiny.dtd">
<svg version="1.1" baseProfile="tiny" id="Layer_1" xmlns="http://www.w3.org/2000/svg" xmlns:xlink="http://www.w3.org/1999/xlink"
	 x="0px" y="0px" width="113.386px" height="113.386px" viewBox="0 0 113.386 113.386" overflow="inherit" xml:space="preserve">
<polygon fill="#B9E5FB" stroke="#000000" stroke-linejoin="round" points="42.125,51.426 32.963,46.976 5.474,65.302 45.529,72.633 
	38.984,57.71 "/>
<line fill="none" stroke="#000000" stroke-linejoin="round" x1="38.881" y1="58.438" x2="5.474" y2="65.302"/>
<polygon fill="#B9E5FB" stroke="#000000" stroke-linejoin="round" points="72.756,51.426 81.918,46.976 109.406,65.302 
	69.352,72.633 75.896,57.71 "/>
<polygon fill="#B9E5FB" stroke="#000000" points="38.546,58.324 57.135,100.035 76,58.438 57.321,13.468 "/>
<line fill="none" stroke="#BCBEC0" stroke-dasharray="3,3,3" x1="57.321" y1="51.616" x2="57.321" y2="98.812"/>
<polygon fill="#B9E5FB" stroke="#000000" stroke-linejoin="round" points="57.321,13.468 57.5,51.616 38.809,57.798 "/>
<polygon fill="#B9E5FB" stroke="#000000" stroke-linejoin="round" points="57.314,13.468 57.135,51.616 76,58.438 "/>
<line fill="none" stroke="#000000" stroke-linejoin="round" x1="76" y1="58.438" x2="109.406" y2="65.302"/>
<path fill="none" stroke="#000000" stroke-width="0.5" d="M61.051,36.362c0,0,2.252-6.664-1.938-13.299"/>
<path d="M60.072,36.862c0.08-0.98,0.062-1.644,0.055-2.457l2.672,1.056c-0.217,0.202-1.025,1.062-1.635,1.833
	c-0.652,0.821-1.184,1.598-1.471,2.12C59.842,38.836,59.986,37.91,60.072,36.862z"/>
<line fill="none" stroke="#000000" stroke-dasharray="2,2,2" x1="45.874" y1="32.837" x2="69.26" y2="32.837"/>
</svg>
