<?xml version="1.0" encoding="UTF-8" standalone="no"?>
<!-- Generator: Adobe Illustrator 15.0.0, SVG Export Plug-In . SVG Version: 6.00 Build 0)  -->
<svg id="Layer_1" xmlns:rdf="http://www.w3.org/1999/02/22-rdf-syntax-ns#" xmlns="http://www.w3.org/2000/svg" xml:space="preserve" overflow="inherit" height="113.39px" viewBox="0 0 113.386 113.386" width="113.39px" version="1.1" y="0px" x="0px" xmlns:cc="http://creativecommons.org/ns#" xmlns:dc="http://purl.org/dc/elements/1.1/"><metadata id="metadata53"><rdf:RDF><cc:Work rdf:about=""><dc:format>image/svg+xml</dc:format><dc:type rdf:resource="http://purl.org/dc/dcmitype/StillImage"/><dc:title/></cc:Work></rdf:RDF></metadata>
<path id="path3" stroke="#000" d="M50.29,35.766s-1.333-5.331-1.333-7.997c0,0,6.072,5.035,8.294,10.07l-6.961-2.073z" fill="#B9E5FB"/>
<path id="path5" stroke="#000" d="M70.432,35.766s1.333-5.331,1.333-7.997c0,0-6.071,5.035-8.292,10.07l6.959-2.073z" fill="#B9E5FB"/>
<path id="path7" stroke="#000" stroke-width="0.5" d="M76.979,28.336s3.858,8.294-1.388,12.275" fill="none"/>
<path id="path9" d="M75.603,27.653c0.13,1.369,0.117,2.29,0.12,3.428l3.707-1.515c-0.306-0.28-1.445-1.468-2.312-2.534-0.921-1.133-1.677-2.206-2.083-2.93,0.212,0.801,0.433,2.093,0.568,3.551z"/>
<path id="path11" stroke="#000" stroke-width="0.5" d="M43.166,28.336s-4.18,8.294,1.502,12.275" fill="none"/>
<path id="path13" d="M44.658,27.653c-0.143,1.369-0.128,2.29-0.132,3.428l-4.015-1.515c0.332-0.28,1.564-1.468,2.504-2.534,0.998-1.133,1.816-2.206,2.258-2.93-0.231,0.801-0.47,2.093-0.615,3.551z"/>
<polygon id="polygon15" stroke-linejoin="round" stroke="#000" points="76.272,50.1,85.435,45.651,112.92,63.977,72.871,71.309,79.214,57.343" fill="#B9E5FB"/>
<polygon id="polygon17" stroke-linejoin="round" stroke="#000" points="44.794,49.685,36.479,45.651,8.992,63.977,48.104,71.283,42.007,56.913" fill="#B9E5FB"/>
<polygon id="polygon19" stroke-linejoin="round" stroke="#000" points="70.311,35.664,79.256,56.849,60.389,98.445,41.801,56.738,50.542,35.664" fill="#B9E5FB"/>
<line id="line21" stroke-linejoin="round" y2="63.977" x2="8.992" stroke="#000" y1="57.112" x1="42.397" fill="none"/>
<g id="g23" stroke-linejoin="round" stroke="#000" fill="#B9E5FB">
	<polyline id="polyline25" points="54.171,35.773,52.074,40.254,68.482,40.254,66.504,35.792,54.171,35.773"/>
	<polygon id="polygon27" points="53.94,35.925,60.451,50.227,66.504,35.792"/>
</g>
<polygon id="polygon29" stroke-linejoin="round" stroke="#000" points="70.311,35.664,68.557,40.441,52.149,40.447,50.542,35.664" fill="#B9E5FB"/>
<line id="line31" stroke-linejoin="round" y2="63.977" x2="112.92" stroke="#000" y1="57.112" x1="79.518" fill="none"/>
<polygon id="polygon33" stroke-linejoin="round" stroke="#000" points="60.242,50.755,79.336,56.849,60.471,98.445,41.881,56.738" fill="#B9E5FB"/>
<line id="line35" y2="83.873" x1="60.634" x2="60.634" stroke="#BCBEC0" y1="50.755" stroke-width="0.5" fill="#BCBEC0"/>
<polygon id="polygon37" stroke-linejoin="round" stroke="#000" points="56.83,89.561,46.955,89.537,60.374,83.48" fill="#B9E5FB"/>
<polygon id="polygon39" stroke-linejoin="round" stroke="#000" points="64.135,89.561,74.238,89.537,60.896,83.35" fill="#B9E5FB"/>
<ellipse id="ellipse41" cy="20.343" rx="3.758" ry="4.913" stroke="#000" cx="19.221" fill="none"/>
<path id="path43" stroke="#000" d="M1.57,23.263c4.771-5.554,10.309-8.667,18.457-7.822" fill="none"/>
<path id="path45" stroke="#000" d="M34.877,21.241c-4.354-4.27-9.472-6.537-16.57-5.8" fill="none"/>
<path id="path47" d="M35.994,21.757c-0.427-1.014-0.639-1.728-0.918-2.595l-2.474,2.052c0.304,0.141,1.464,0.775,2.382,1.383,0.981,0.649,1.814,1.289,2.301,1.745-0.358-0.562-0.832-1.499-1.291-2.585z"/>
</svg>
