<?xml version="1.0" encoding="utf-8"?>
<!-- Generator: Adobe Illustrator 15.0.0, SVG Export Plug-In . SVG Version: 6.00 Build 0)  -->
<!DOCTYPE svg PUBLIC "-//W3C//DTD SVG 1.1 Tiny//EN" "http://www.w3.org/Graphics/SVG/1.1/DTD/svg11-tiny.dtd">
<svg version="1.1" baseProfile="tiny" id="Layer_1" xmlns="http://www.w3.org/2000/svg" xmlns:xlink="http://www.w3.org/1999/xlink"
	 x="0px" y="0px" width="113.386px" height="113.386px" viewBox="0 0 113.386 113.386" overflow="inherit" xml:space="preserve">
<path fill="none" stroke="#000000" stroke-width="0.5" d="M73,38.354c0,0,1.145-10.964-5.68-12.304"/>
<path d="M72.076,38.947c-0.014-0.985-0.1-1.646-0.184-2.451l2.76,0.788c-0.197,0.222-0.92,1.158-1.449,1.982
	c-0.568,0.883-1.021,1.706-1.258,2.254C72.035,40.934,72.092,39.999,72.076,38.947z"/>
<polygon fill="#B9E5FB" stroke="#000000" stroke-linejoin="round" points="41.16,47.565 32.635,43.376 5.146,61.702 45.202,69.033 
	38.657,54.11 "/>
<line fill="none" stroke="#000000" stroke-linejoin="round" x1="38.552" y1="54.838" x2="5.146" y2="61.702"/>
<polygon fill="#B9E5FB" stroke="#000000" stroke-linejoin="round" points="72.428,47.825 81.59,43.376 109.08,61.702 69.023,69.033 
	75.369,55.069 "/>
<polygon fill="#B9E5FB" stroke="#000000" stroke-linejoin="round" points="64.896,29.151 75.41,54.574 56.544,96.171 37.957,54.464 
	48.491,29.16 "/>
<line fill="none" stroke="#BCBEC0" stroke-dasharray="3,3,3" x1="56.987" y1="48.017" x2="56.529" y2="95.304"/>
<line fill="none" stroke="#000000" stroke-linejoin="round" x1="75.674" y1="54.838" x2="109.08" y2="61.702"/>
<polyline fill="none" stroke="#000000" stroke-linejoin="round" points="37.843,54.896 56.808,48.017 75.674,54.838 "/>
<polyline fill="#B9E5FB" stroke="#000000" stroke-linejoin="round" points="62.801,33.632 64.896,29.151 48.491,29.151 
	50.467,33.616 62.801,33.632 "/>
<polygon fill="#B9E5FB" stroke="#000000" stroke-linejoin="round" points="63.041,33.657 56.52,19.181 50.467,33.616 "/>
<line fill="none" stroke="#000000" stroke-linejoin="round" x1="56.987" y1="33.429" x2="56.987" y2="48.017"/>
<line fill="none" stroke="#000000" stroke-dasharray="2,2,2" x1="43.255" y1="33.689" x2="71.006" y2="33.689"/>
</svg>
