<?xml version="1.0" encoding="UTF-8" standalone="no"?>
<!-- Created with Inkscape (http://www.inkscape.org/) -->

<svg
   xmlns:dc="http://purl.org/dc/elements/1.1/"
   xmlns:cc="http://creativecommons.org/ns#"
   xmlns:rdf="http://www.w3.org/1999/02/22-rdf-syntax-ns#"
   xmlns:svg="http://www.w3.org/2000/svg"
   xmlns="http://www.w3.org/2000/svg"
   xmlns:inkscape="http://www.inkscape.org/namespaces/inkscape"
   version="1.1"
   width="113.386"
   height="113.386"
   viewBox="0 0 113.386 113.386"
   id="Layer_1"
   xml:space="preserve"
   style="overflow:inherit"><metadata
   id="metadata19"><rdf:RDF><cc:Work
       rdf:about=""><dc:format>image/svg+xml</dc:format><dc:type
         rdf:resource="http://purl.org/dc/dcmitype/StillImage" /></cc:Work></rdf:RDF></metadata><defs
   id="defs17" />
<polygon
   points="27.024,57.703 49.962,107.408 71.828,57.703 49.558,7.267 "
   id="polygon3"
   style="fill:#b9e5fb;stroke:#000000" />
<path
   d="m 68.82,94.748 c 0,0 17.335,-35.518 -0.943,-76"
   inkscape:connector-curvature="0"
   id="path5"
   style="fill:none;stroke:#000000" />
<path
   d="m 67.287,96.06 c 0.216,-1.336 0.264,-2.25 0.342,-3.368 l 3.556,1.733 c -0.321,0.259 -1.524,1.352 -2.444,2.345 -0.986,1.063 -1.795,2.067 -2.246,2.757 0.266,-0.779 0.561,-2.034 0.792,-3.467 z"
   inkscape:connector-curvature="0"
   id="path7" />
<line
   fill="none"
   stroke="#BCBEC0"
   stroke-dasharray="3,3,3"
   x1="28.125"
   y1="57.702999"
   x2="71.073997"
   y2="57.722"
   id="line9"
   style="fill:none;stroke:#bcbec0;stroke-dasharray:3, 3, 3" />
<line
   fill="none"
   stroke="#BCBEC0"
   stroke-dasharray="3,3,3"
   x1="49.477001"
   y1="9.29"
   x2="49.477001"
   y2="106.591"
   id="line11"
   style="fill:none;stroke:#bcbec0;stroke-dasharray:3, 3, 3" />
<path
   d="m 49.113,7.981 c 0,0 -23.354,48.869 -22.089,49.722 1.263,0.854 22.089,-49.722 22.089,-49.722 z"
   inkscape:connector-curvature="0"
   id="path13"
   style="fill:#b9e5fb;stroke:#000000" />
</svg>