<?xml version="1.0" encoding="UTF-8" standalone="no"?>
<!-- Generator: Adobe Illustrator 15.0.0, SVG Export Plug-In . SVG Version: 6.00 Build 0)  -->

<svg
   xmlns:dc="http://purl.org/dc/elements/1.1/"
   xmlns:cc="http://creativecommons.org/ns#"
   xmlns:rdf="http://www.w3.org/1999/02/22-rdf-syntax-ns#"
   xmlns:svg="http://www.w3.org/2000/svg"
   xmlns="http://www.w3.org/2000/svg"
   xmlns:sodipodi="http://sodipodi.sourceforge.net/DTD/sodipodi-0.dtd"
   xmlns:inkscape="http://www.inkscape.org/namespaces/inkscape"
   id="Layer_1"
   xml:space="preserve"
   overflow="inherit"
   height="103.06851"
   viewBox="0 0 103.19287 103.06488"
   width="103.19651"
   version="1.1"
   y="0px"
   x="0px"
   inkscape:version="0.48.3.1 r"
   sodipodi:docname="step2.svg"
   style="overflow:inherit"><defs
   id="defs23" /><sodipodi:namedview
   pagecolor="#ffffff"
   bordercolor="#666666"
   borderopacity="1"
   objecttolerance="10"
   gridtolerance="10"
   guidetolerance="10"
   inkscape:pageopacity="0"
   inkscape:pageshadow="2"
   inkscape:window-width="1024"
   inkscape:window-height="691"
   id="namedview21"
   showgrid="false"
   fit-margin-top="16"
   fit-margin-left="16"
   fit-margin-right="16"
   fit-margin-bottom="16"
   inkscape:zoom="2.0813123"
   inkscape:cx="10.81619"
   inkscape:cy="31.275889"
   inkscape:window-x="0"
   inkscape:window-y="24"
   inkscape:window-maximized="1"
   inkscape:current-layer="Layer_1" /><metadata
   id="metadata3078"><rdf:RDF><cc:Work
       rdf:about=""><dc:format>image/svg+xml</dc:format><dc:type
         rdf:resource="http://purl.org/dc/dcmitype/StillImage" /><dc:title /></cc:Work></rdf:RDF></metadata>









<g
   id="g3000"
   transform="translate(-22.626565,-6.0935614)"><rect
     x="39.125999"
     y="22.593"
     width="70.067001"
     height="70.066002"
     id="rect3056"
     style="fill:#ffffff;stroke:#000000" /><line
     x1="74.353996"
     y1="22.705"
     x2="74.353996"
     y2="92.514"
     id="line3058"
     style="fill:none;stroke:#000000;stroke-dasharray:4, 4, 4" /><line
     x1="39.298"
     y1="57.608002"
     x2="109.11"
     y2="57.608002"
     id="line3060"
     style="fill:none;stroke:#000000;stroke-dasharray:4, 4, 4" /><line
     x1="109.28"
     y1="92.476997"
     x2="39.634998"
     y2="22.832001"
     id="line3062"
     style="fill:none;stroke:#bcbec0;stroke-dasharray:4, 4, 4" /><line
     x1="109.32"
     y1="22.788"
     x2="39.68"
     y2="92.431999"
     id="line3064"
     style="fill:none;stroke:#bcbec0;stroke-dasharray:4, 4, 4" /><g
     id="g3095"><path
       d="m 44.391,53.006 c 0,0 28.959,-14.132 61.965,0.77"
       id="path3050"
       inkscape:connector-curvature="0"
       style="fill:none;stroke:#000000" /><path
       d="m 43.322,54.256 c 1.089,-0.177 1.835,-0.214 2.747,-0.278 l -1.414,-2.899 c -0.21,0.262 -1.102,1.243 -1.911,1.993 -0.867,0.804 -1.687,1.464 -2.248,1.83 0.634,-0.217 1.659,-0.456 2.826,-0.646 z"
       id="path3052"
       inkscape:connector-curvature="0" /><path
       d="m 105.87,54.516 c -1.148,-0.233 -1.939,-0.311 -2.906,-0.422 l 1.656,-2.821 c 0.209,0.272 1.105,1.299 1.928,2.09 0.879,0.849 1.717,1.55 2.294,1.945 -0.66,-0.251 -1.74,-0.542 -2.97,-0.792 z"
       id="path3054"
       inkscape:connector-curvature="0" /></g><g
     id="g3090"><path
       d="m 80.01,27.703 c 0,0 13.61,27.891 -0.742,59.678"
       id="path3044"
       inkscape:connector-curvature="0"
       style="fill:none;stroke:#000000" /><path
       d="m 78.805,26.673 c 0.171,1.05 0.207,1.768 0.27,2.646 l 2.791,-1.363 c -0.252,-0.202 -1.197,-1.06 -1.919,-1.84 -0.774,-0.835 -1.409,-1.624 -1.763,-2.165 0.209,0.612 0.44,1.598 0.621,2.722 z"
       id="path3046"
       inkscape:connector-curvature="0" /><path
       d="m 78.556,86.915 c 0.225,-1.107 0.298,-1.869 0.406,-2.8 l 2.718,1.595 c -0.263,0.201 -1.252,1.064 -2.014,1.855 -0.816,0.848 -1.492,1.654 -1.873,2.21 0.241,-0.638 0.523,-1.675 0.763,-2.86 z"
       id="path3048"
       inkscape:connector-curvature="0" /></g></g></svg>