<?xml version="1.0" encoding="UTF-8" standalone="no"?>
<!-- Created with Inkscape (http://www.inkscape.org/) -->

<svg
   xmlns:dc="http://purl.org/dc/elements/1.1/"
   xmlns:cc="http://creativecommons.org/ns#"
   xmlns:rdf="http://www.w3.org/1999/02/22-rdf-syntax-ns#"
   xmlns:svg="http://www.w3.org/2000/svg"
   xmlns="http://www.w3.org/2000/svg"
   xmlns:sodipodi="http://sodipodi.sourceforge.net/DTD/sodipodi-0.dtd"
   xmlns:inkscape="http://www.inkscape.org/namespaces/inkscape"
   version="1.1"
   width="113.386"
   height="113.386"
   viewBox="0 0 113.386 113.386"
   id="Layer_1"
   xml:space="preserve"
   style="overflow:inherit"
   inkscape:version="0.48.3.1 r"
   sodipodi:docname="step7.svg"><sodipodi:namedview
   pagecolor="#ffffff"
   bordercolor="#666666"
   borderopacity="1"
   objecttolerance="10"
   gridtolerance="10"
   guidetolerance="10"
   inkscape:pageopacity="0"
   inkscape:pageshadow="2"
   inkscape:window-width="1005"
   inkscape:window-height="686"
   id="namedview14"
   showgrid="false"
   inkscape:zoom="2.0813857"
   inkscape:cx="56.693001"
   inkscape:cy="52.295101"
   inkscape:window-x="0"
   inkscape:window-y="24"
   inkscape:window-maximized="0"
   inkscape:current-layer="Layer_1" /><metadata
   id="metadata25"><rdf:RDF><cc:Work
       rdf:about=""><dc:format>image/svg+xml</dc:format><dc:type
         rdf:resource="http://purl.org/dc/dcmitype/StillImage" /></cc:Work></rdf:RDF></metadata><defs
   id="defs23" />






<g
   id="g2991"
   transform="matrix(1.4280124,0,0,1.4339127,-23.950413,-25.661801)"><polygon
     style="fill:#b9e5fb;stroke:#000000"
     id="polygon3"
     points="56.433,24.079 90.977,56.246 56.433,93.167 21.887,56.246 " /><rect
     style="fill:#b9e5fb;stroke:#000000"
     id="rect5"
     transform="matrix(0.7071,0.7071,-0.7071,0.7071,56.3224,-23.4884)"
     y="31.819"
     x="32.088001"
     height="48.855"
     width="48.855" /><line
     style="fill:none;stroke:#bcbec0;stroke-width:0.5;stroke-dasharray:2, 2, 2"
     id="line7"
     y2="23.325001"
     x2="56.372002"
     y1="89.510002"
     x1="56.372002" /><line
     style="fill:none;stroke:#bcbec0;stroke-dasharray:4, 4, 4, 4"
     id="line9"
     y2="89.603996"
     x2="56.657001"
     y1="43.437"
     x1="36.459" /><line
     style="fill:none;stroke:#bcbec0;stroke-dasharray:4, 4, 4, 4"
     id="line11"
     y2="88.730003"
     x2="57.007"
     y1="43.490002"
     x1="77.277" /><g
     id="g13">
	<path
   style="fill:none;stroke:#000000"
   id="path15"
   inkscape:connector-curvature="0"
   d="m 56.166,32.841 c 5.628,8.751 1.759,21.553 1.759,21.553 6.044,-8.979 6.396,-15.625 3.318,-25.259" />
	<path
   id="path17"
   inkscape:connector-curvature="0"
   d="m 55.919,31.325 c 0.785,0.668 1.363,1.06 2.06,1.553 l -2.536,1.633 c -0.039,-0.312 -0.276,-1.528 -0.562,-2.52 -0.302,-1.067 -0.637,-1.988 -0.909,-2.553 0.404,0.48 1.106,1.169 1.947,1.887 z" />
</g><line
     style="fill:none;stroke:#000000;stroke-dasharray:4, 4, 4"
     id="line19"
     y2="42.668999"
     x2="36.436001"
     y1="42.668999"
     x1="77.345001" /></g>
</svg>