<?xml version="1.0" encoding="utf-8"?>
<!-- Generator: Adobe Illustrator 15.0.0, SVG Export Plug-In . SVG Version: 6.00 Build 0)  -->
<!DOCTYPE svg PUBLIC "-//W3C//DTD SVG 1.1 Tiny//EN" "http://www.w3.org/Graphics/SVG/1.1/DTD/svg11-tiny.dtd">
<svg version="1.1" baseProfile="tiny" id="Layer_1" xmlns="http://www.w3.org/2000/svg" xmlns:xlink="http://www.w3.org/1999/xlink"
	 x="0px" y="0px" width="113.386px" height="113.386px" viewBox="0 0 113.386 113.386" overflow="inherit" xml:space="preserve">
<polyline fill="#B9E5FB" stroke="#000000" stroke-linejoin="round" points="84.572,66.688 39.512,74.937 46.875,58.147 
	43.339,51.078 53.648,46.072 84.572,66.688 "/>
<line fill="none" stroke="#000000" stroke-width="3" x1="81.072" y1="91.121" x2="97.531" y2="91.036"/>
<path d="M101.49,88.95c-2.785-0.993-4.598-1.91-6.834-2.971l0.051,10.169c0.795-0.458,4.029-2.021,6.807-3.042
	c2.975-1.092,5.668-1.841,7.42-2.116C107.182,90.733,104.479,90.015,101.49,88.95z"/>
<path fill="none" stroke="#000000" stroke-width="0.5" d="M56.685,81.514c0,0-7.455,16.394-21.297,16.099"/>
<path d="M56.303,80.337c-0.715,0.844-1.257,1.358-1.909,2.001l2.962,1.284c-0.012-0.334,0.032-1.661,0.16-2.761
	c0.134-1.172,0.328-2.212,0.517-2.854C57.69,78.583,57.07,79.438,56.303,80.337z"/>
<polygon fill="#B9E5FB" stroke="#000000" points="4.855,58.838 25.767,105.763 46.99,58.966 25.975,8.375 "/>
<line fill="none" stroke="#BCBEC0" stroke-dasharray="3,3,3" x1="25.975" y1="51.292" x2="25.975" y2="104.386"/>
<polygon fill="#B9E5FB" stroke="#000000" stroke-linejoin="round" points="25.975,8.375 26.177,51.292 5.151,58.247 "/>
<polygon fill="#B9E5FB" stroke="#000000" stroke-linejoin="round" points="25.969,8.375 25.767,51.292 46.99,58.966 "/>
<line fill="none" stroke="#000000" stroke-linejoin="round" x1="46.99" y1="58.966" x2="84.572" y2="66.688"/>
</svg>
