<?xml version="1.0" encoding="utf-8"?>
<!-- Generator: Adobe Illustrator 15.0.0, SVG Export Plug-In . SVG Version: 6.00 Build 0)  -->
<!DOCTYPE svg PUBLIC "-//W3C//DTD SVG 1.1 Tiny//EN" "http://www.w3.org/Graphics/SVG/1.1/DTD/svg11-tiny.dtd">
<svg version="1.1" baseProfile="tiny" id="Layer_1" xmlns="http://www.w3.org/2000/svg" xmlns:xlink="http://www.w3.org/1999/xlink"
	 x="0px" y="0px" width="113.386px" height="113.386px" viewBox="0 0 113.386 113.386" overflow="inherit" xml:space="preserve">
<line fill="none" stroke="#000000" stroke-width="3" x1="69.425" y1="92.028" x2="86.982" y2="91.938"/>
<path d="M91.203,89.717c-2.969-1.059-4.903-2.041-7.291-3.172l0.055,10.847c0.848-0.489,4.3-2.156,7.262-3.246
	c3.173-1.162,6.045-1.963,7.913-2.256C97.273,91.618,94.39,90.848,91.203,89.717z"/>
<polygon fill="#B9E5FB" stroke="#000000" points="50.891,3.766 18.441,36.096 51.47,107.672 82.957,36.096 "/>
<line fill="none" stroke="#BCBEC0" stroke-dasharray="3,3,3" x1="18.441" y1="36.096" x2="82.957" y2="36.096"/>
<line fill="none" stroke="#BCBEC0" stroke-dasharray="3,3,3" x1="50.891" y1="3.766" x2="50.891" y2="106.18"/>
<line fill="none" stroke="#000000" stroke-dasharray="4,4,4" x1="28.573" y1="57.486" x2="50.878" y2="4.381"/>
<line fill="none" stroke="#000000" stroke-dasharray="4,4,4" x1="74.477" y1="57.486" x2="50.878" y2="4.381"/>
<path fill="none" stroke="#000000" stroke-width="0.5" d="M43.822,54.277c0,0-12.503-5.084-21.624-15.954"/>
<path d="M46.203,54.483c-0.942-0.708-1.521-1.254-2.248-1.909l-1.185,3.236c0.358-0.034,1.772-0.07,2.948-0.005
	c1.259,0.073,2.381,0.213,3.073,0.375C48.158,55.852,47.213,55.242,46.203,54.483z"/>
<path fill="none" stroke="#000000" stroke-width="0.5" d="M58.43,54.277c0,0,12.505-5.084,21.623-15.954"/>
<path d="M56.048,54.483c0.943-0.708,1.524-1.254,2.248-1.909l1.185,3.236c-0.355-0.034-1.771-0.07-2.948-0.005
	c-1.259,0.073-2.377,0.213-3.073,0.375C54.094,55.852,55.039,55.242,56.048,54.483z"/>
<path fill="none" stroke="#000000" stroke-width="0.5" d="M27.631,16.018c0,0-22.935,3.455-3.455,13.508"/>
<path d="M30.061,16.478c-1.104,0.424-1.809,0.793-2.683,1.226l-0.263-3.435c0.336,0.129,1.69,0.55,2.838,0.805
	c1.23,0.273,2.345,0.439,3.06,0.476C32.312,15.692,31.234,16.021,30.061,16.478z"/>
<path fill="none" stroke="#000000" stroke-width="0.5" d="M73.236,16.018c0,0,22.93,3.455,3.454,13.508"/>
<path d="M70.805,16.478c1.098,0.424,1.808,0.793,2.682,1.226l0.26-3.435c-0.334,0.129-1.687,0.55-2.835,0.805
	c-1.229,0.273-2.348,0.439-3.059,0.476C68.551,15.692,69.627,16.021,70.805,16.478z"/>
</svg>
