<?xml version="1.0" encoding="utf-8"?>
<!-- Generator: Adobe Illustrator 15.0.0, SVG Export Plug-In . SVG Version: 6.00 Build 0)  -->
<!DOCTYPE svg PUBLIC "-//W3C//DTD SVG 1.1 Tiny//EN" "http://www.w3.org/Graphics/SVG/1.1/DTD/svg11-tiny.dtd">
<svg version="1.1" baseProfile="tiny" id="Layer_1" xmlns="http://www.w3.org/2000/svg" xmlns:xlink="http://www.w3.org/1999/xlink"
	 x="0px" y="0px" width="113.386px" height="113.386px" viewBox="0 0 113.386 113.386" overflow="inherit" xml:space="preserve">
<polygon fill="#B9E5FB" stroke="#000000" stroke-linejoin="round" points="41.432,45.165 32.907,40.976 5.418,59.302 45.473,66.633 
	38.928,51.71 "/>
<line fill="none" stroke="#000000" stroke-linejoin="round" x1="38.826" y1="52.438" x2="5.418" y2="59.302"/>
<polygon fill="#B9E5FB" stroke="#000000" stroke-linejoin="round" points="72.699,45.426 81.863,40.976 109.352,59.302 
	69.297,66.633 75.641,52.669 "/>
<polyline fill="#B9E5FB" stroke="#000000" points="48.851,26.579 38.229,52.064 56.817,93.771 75.684,52.175 65.082,26.402 "/>
<line fill="none" stroke="#BCBEC0" stroke-dasharray="3,3,3" x1="57.265" y1="45.616" x2="56.738" y2="92.666"/>
<line fill="none" stroke="#000000" stroke-linejoin="round" x1="75.943" y1="52.438" x2="109.352" y2="59.302"/>
<polyline fill="none" stroke="#000000" stroke-linejoin="round" points="38.115,52.497 57.08,45.616 75.943,52.438 "/>
<polygon fill="#B9E5FB" stroke="#000000" stroke-linejoin="round" points="65.168,26.752 48.763,26.752 57.259,45.616 "/>
<line fill="none" stroke="#000000" stroke-linejoin="round" x1="57.259" y1="26.579" x2="57.259" y2="45.616"/>
<line fill="none" stroke="#000000" stroke-dasharray="2,2,2" x1="43.527" y1="31.289" x2="71.277" y2="31.289"/>
<path fill="none" stroke="#000000" stroke-width="0.5" d="M62.043,21.164c0,0,2.25,6.663-1.939,13.296"/>
<path d="M61.062,20.661c0.082,0.981,0.062,1.646,0.055,2.461l2.672-1.056c-0.217-0.204-1.025-1.065-1.635-1.835
	c-0.654-0.822-1.184-1.598-1.469-2.121C60.83,18.688,60.977,19.615,61.062,20.661z"/>
</svg>
