<?xml version="1.0" encoding="UTF-8" standalone="no"?>
<!-- Generator: Adobe Illustrator 15.0.0, SVG Export Plug-In . SVG Version: 6.00 Build 0)  -->
<svg id="Layer_1" xmlns:rdf="http://www.w3.org/1999/02/22-rdf-syntax-ns#" xmlns="http://www.w3.org/2000/svg" xml:space="preserve" overflow="inherit" height="113.39px" viewBox="0 0 113.386 113.386" width="113.39px" version="1.1" y="0px" x="0px" xmlns:cc="http://creativecommons.org/ns#" xmlns:dc="http://purl.org/dc/elements/1.1/"><metadata id="metadata51"><rdf:RDF><cc:Work rdf:about=""><dc:format>image/svg+xml</dc:format><dc:type rdf:resource="http://purl.org/dc/dcmitype/StillImage"/><dc:title/></cc:Work></rdf:RDF></metadata>
<polygon id="polygon3" stroke-linejoin="round" stroke="#000" points="56.718,84.801,46.842,84.775,60.26,78.721" fill="#B9E5FB"/>
<polygon id="polygon5" stroke-linejoin="round" stroke="#000" points="64.021,84.801,74.126,84.775,60.784,78.588" fill="#B9E5FB"/>
<path id="path7" d="M87.799,37.822c0.551-0.108,0.688-0.426,0.719-0.605,0.086-0.473-0.209-1.226-3.02-3.229-1.498-1.066-3.041-2.001-3.056-2.011l-0.809-0.488,0.28,0.9c0.081,0.253,1.968,6.192,5.886,5.433zm-0.137-0.703c-2.42,0.47-4.009-2.396-4.688-3.964,2.654,1.685,4.804,3.413,4.834,3.917-0.018,0.01-0.052,0.027-0.146,0.047z"/>
<path id="path9" d="M83.029,32.602s-7.99-2.378-9.769-3.112c-1.777-0.732,6.917,1.119,6.917,1.119l2.852,1.993z"/>
<path id="path11" d="M82.506,31.339l-0.927,0.172,0.804,0.487c0.016,0.009,1.559,0.945,3.197,1.781,3.076,1.567,3.881,1.478,4.26,1.184,0.145-0.111,0.365-0.379,0.203-0.917-1.137-3.824-7.277-2.754-7.537-2.707zm6.877,3.064c-0.461,0.205-2.988-0.903-5.709-2.476,1.705-0.125,4.979-0.039,5.682,2.324,0.028,0.091,0.028,0.131,0.027,0.152z"/>
<path id="path13" d="M83.162,32.274s-5.161-6.551-6.497-7.932c-1.337-1.38,3.595,6.017,3.595,6.017l2.902,1.915z"/>
<rect id="rect15" transform="matrix(-0.8406 -0.5417 0.5417 -0.8406 133.5499 102.5023)" height="0.46" width="3.997" y="31.367" x="79.861"/>
<polygon id="polygon17" stroke-linejoin="round" stroke="#000" points="76.16,45.34,85.322,40.89,112.81,59.217,72.757,66.547,79.101,52.583" fill="#B9E5FB"/>
<polygon id="polygon19" stroke-linejoin="round" stroke="#000" points="44.68,44.925,36.367,40.89,8.879,59.217,47.99,66.523,41.895,52.152" fill="#B9E5FB"/>
<polygon id="polygon21" stroke-linejoin="round" stroke="#000" points="70.196,30.905,79.144,52.089,60.276,93.686,41.688,51.979,50.428,30.905" fill="#B9E5FB"/>
<line id="line23" stroke-linejoin="round" y2="59.217" x2="8.879" stroke="#000" y1="52.353" x1="42.283" fill="none"/>
<line id="line25" stroke-linejoin="round" y2="59.217" x2="112.81" stroke="#000" y1="52.353" x1="79.404" fill="none"/>
<polygon id="polygon27" stroke-linejoin="round" stroke="#000" points="60.129,45.996,79.223,52.089,60.357,93.686,41.767,51.979" fill="#B9E5FB"/>
<line id="line29" y2="92.023" x1="60.521" x2="60.521" stroke="#BCBEC0" y1="45.996" stroke-width="0.5" fill="#BCBEC0"/>
<line id="line31" stroke-linejoin="round" y2="40.89" x2="36.367" stroke="#000" y1="51.367" x1="41.229" fill="#B9E5FB"/>
<line id="line33" stroke-linejoin="round" y2="40.89" x2="85.322" stroke="#000" y1="52.089" x1="79.223" fill="#B9E5FB"/>
<ellipse id="ellipse35" cy="24.884" rx="3.757" ry="4.913" stroke="#000" cx="18.885" fill="none"/>
<path id="path37" stroke="#000" d="M1.235,27.804c4.771-5.554,10.309-8.667,18.457-7.822" fill="none"/>
<path id="path39" stroke="#000" d="M34.542,25.782c-4.354-4.27-9.472-6.537-16.57-5.8" fill="none"/>
<path id="path41" d="M35.659,26.298c-0.427-1.014-0.639-1.728-0.918-2.595l-2.474,2.052c0.304,0.141,1.464,0.775,2.381,1.383,0.982,0.649,1.815,1.289,2.302,1.745-0.358-0.562-0.832-1.499-1.291-2.585z"/>
<line id="line43" y2="31.146" x2="56.469" stroke="#000" stroke-dasharray="2,2,2" y1="39.253" x1="43.26" fill="none"/>
<line id="line45" y2="39.853" x2="78.684" stroke="#000" stroke-dasharray="2,2,2" y1="30.846" x1="62.173" fill="none"/>
</svg>
