<?xml version="1.0" encoding="utf-8"?>
<!-- Generator: Adobe Illustrator 15.0.0, SVG Export Plug-In . SVG Version: 6.00 Build 0)  -->
<!DOCTYPE svg PUBLIC "-//W3C//DTD SVG 1.1 Tiny//EN" "http://www.w3.org/Graphics/SVG/1.1/DTD/svg11-tiny.dtd">
<svg version="1.1" baseProfile="tiny" id="Layer_1" xmlns="http://www.w3.org/2000/svg" xmlns:xlink="http://www.w3.org/1999/xlink"
	 x="0px" y="0px" width="113.386px" height="113.386px" viewBox="0 0 113.386 113.386" overflow="inherit" xml:space="preserve">
<polygon fill="#B9E5FB" stroke="#000000" points="102.926,82.406 9.446,66.638 105.959,64.666 "/>
<polygon fill="#B9E5FB" stroke="#000000" points="37.721,51.754 105.959,64.666 102.583,83.482 6.577,83.479 "/>
<g>
	<path fill="none" stroke="#000000" stroke-width="0.5" d="M60.001,31.141c0,0-28.053,3.185-45.434,29.729"/>
	<path d="M62.286,31.636c-1.32,0.567-2.16,1.047-3.206,1.614l-0.474-4.169c0.413,0.142,2.076,0.593,3.488,0.851
		c1.508,0.275,2.871,0.432,3.74,0.438C64.991,30.575,63.697,31.029,62.286,31.636z"/>
</g>
<polygon fill="#FFFFFF" stroke="#000000" stroke-linejoin="round" points="5.853,83.752 52.553,83.448 37.902,51.397 "/>
</svg>
