<?xml version="1.0" encoding="utf-8"?>
<!-- Generator: Adobe Illustrator 15.0.0, SVG Export Plug-In . SVG Version: 6.00 Build 0)  -->
<!DOCTYPE svg PUBLIC "-//W3C//DTD SVG 1.1 Tiny//EN" "http://www.w3.org/Graphics/SVG/1.1/DTD/svg11-tiny.dtd">
<svg version="1.1" baseProfile="tiny" id="Layer_1" xmlns="http://www.w3.org/2000/svg" xmlns:xlink="http://www.w3.org/1999/xlink"
	 x="0px" y="0px" width="113.386px" height="113.386px" viewBox="0 0 113.386 113.386" overflow="inherit" xml:space="preserve">
<polygon fill="#B9E5FB" stroke="#000000" points="80.48,40.703 71.057,89.559 41.53,90.025 31.981,40.703 56.276,16.941 "/>
<polygon fill="#B9E5FB" stroke="#000000" points="41.25,91.002 56.276,16.941 70.498,91.002 "/>
<line fill="none" stroke="#000000" stroke-dasharray="4" x1="56.373" y1="5.478" x2="56.373" y2="106.791"/>
<g>
	<path fill="none" stroke="#000000" stroke-width="0.5" d="M73.045,53.209c0,0-17.974-10.337-36.3,3.783"/>
	<path d="M73.275,54.237c-1.219-0.125-2.039-0.108-3.049-0.108l1.219-3.713c0.26,0.307,1.352,1.444,2.326,2.304
		c1.041,0.922,2.02,1.67,2.676,2.074C75.727,54.583,74.574,54.373,73.275,54.237z"/>
</g>
</svg>
