<?xml version="1.0" encoding="UTF-8" standalone="no"?>
<!-- Created with Inkscape (http://www.inkscape.org/) -->
<svg id="Layer_1" xmlns:rdf="http://www.w3.org/1999/02/22-rdf-syntax-ns#" xmlns="http://www.w3.org/2000/svg" xml:space="preserve" height="113.39" viewBox="0 0 113.386 113.386" width="113.39" version="1.1" xmlns:cc="http://creativecommons.org/ns#" xmlns:dc="http://purl.org/dc/elements/1.1/"><metadata id="metadata23"><rdf:RDF><cc:Work rdf:about=""><dc:format>image/svg+xml</dc:format><dc:type rdf:resource="http://purl.org/dc/dcmitype/StillImage"/><dc:title/></cc:Work></rdf:RDF></metadata>
<polygon id="polygon3" stroke="#000" points="55.696,110.54,37.7,17.602,55.696,0,73.625,17.602" fill="#FFF"/>
<line id="line5" stroke-width="0.5" y2="0.815" y1="110.69" stroke="#bcbec0" stroke-dasharray="2" x2="55.754" x1="55.754" fill="none"/>
<polygon id="polygon7" stroke-linejoin="round" points="54.562,28.893,37.664,17.602,55.382,109.3" stroke="#000" stroke-linecap="round" fill="#b9e5fb"/>
<polygon id="polygon9" stroke-linejoin="round" points="56.654,28.893,73.552,17.602,55.833,109.3" stroke="#000" stroke-linecap="round" fill="#b9e5fb"/>
<ellipse id="ellipse11" rx="3.687" cy="95.498" ry="4.82" stroke="#000" cx="90.866" fill="none"/>
<path id="path13" stroke="#000" fill="none" d="M73.551,98.362c4.68-5.447,10.113-8.502,18.105-7.672"/>
<path id="path15" stroke="#000" fill="none" d="M106.22,96.377c-4.27-4.186-9.289-6.411-16.251-5.688"/>
<path id="path17" d="M107.32,96.886c-0.42-0.995-0.63-1.695-0.9-2.546l-2.428,2.013c0.299,0.139,1.436,0.759,2.336,1.356,0.964,0.639,1.779,1.264,2.257,1.712-0.351-0.552-0.816-1.47-1.267-2.535z"/>
</svg>
