<?xml version="1.0" encoding="utf-8"?>
<!-- Generator: Adobe Illustrator 15.0.0, SVG Export Plug-In . SVG Version: 6.00 Build 0)  -->
<!DOCTYPE svg PUBLIC "-//W3C//DTD SVG 1.1 Tiny//EN" "http://www.w3.org/Graphics/SVG/1.1/DTD/svg11-tiny.dtd">
<svg version="1.1" baseProfile="tiny" id="Layer_1" xmlns="http://www.w3.org/2000/svg" xmlns:xlink="http://www.w3.org/1999/xlink"
	 x="0px" y="0px" width="113.386px" height="113.386px" viewBox="0 0 113.386 113.386" overflow="inherit" xml:space="preserve">
<polygon fill="#B9E5FB" stroke="#000000" stroke-linejoin="round" points="93.845,83.242 39.863,15.146 106.795,73.026 "/>
<polygon fill="#B9E5FB" stroke="#000000" stroke-linejoin="round" points="34.229,54.424 106.795,73.026 93.686,83.509 5.68,83.506 
	"/>
<g>
	<path fill="none" stroke="#000000" stroke-width="0.5" d="M77.865,30.444c0,0-1.85-14.847-22.437-12.035"/>
	<path d="M78.049,32.688c-0.897-1.006-1.587-1.611-2.411-2.368l3.751-1.845c-0.016,0.423,0.035,2.088,0.194,3.461
		c0.166,1.467,0.41,2.757,0.647,3.551C79.799,34.788,79.014,33.765,78.049,32.688z"/>
</g>
<polygon fill="#FFFFFF" stroke="#000000" stroke-linejoin="round" points="4.946,83.756 47.755,83.478 34.326,54.096 "/>
<line fill="none" stroke="#000000" stroke-dasharray="2" x1="50.299" y1="42.293" x2="66.635" y2="24.425"/>
</svg>
