<?xml version="1.0" encoding="utf-8"?>
<!-- Generator: Adobe Illustrator 15.0.0, SVG Export Plug-In . SVG Version: 6.00 Build 0)  -->
<!DOCTYPE svg PUBLIC "-//W3C//DTD SVG 1.1 Tiny//EN" "http://www.w3.org/Graphics/SVG/1.1/DTD/svg11-tiny.dtd">
<svg version="1.1" baseProfile="tiny" id="Layer_1" xmlns="http://www.w3.org/2000/svg" xmlns:xlink="http://www.w3.org/1999/xlink"
	 x="0px" y="0px" width="113.386px" height="113.386px" viewBox="0 0 113.386 113.386" overflow="inherit" xml:space="preserve">
<polygon fill="#B9E5FB" stroke="#000000" stroke-linejoin="round" points="65.584,28.83 94.612,33.174 63.977,35.047 "/>
<polygon fill="#B9E5FB" stroke="#000000" stroke-linejoin="round" points="94.911,75.966 61.273,34.002 65.584,28.83 
	108.078,65.579 "/>
<polygon fill="#B9E5FB" stroke="#000000" stroke-linejoin="round" points="33.807,46.664 107.59,65.579 94.259,76.236 4.781,76.233 
	"/>
<g>
	<path fill="none" stroke="#000000" stroke-width="0.5" d="M73.141,63.612c0,0-12.665-8.427-24.152,9.302"/>
	<path d="M74.994,64.957c-1.372,0.025-2.295,0.154-3.424,0.285l1.064-4.112c0.316,0.29,1.633,1.357,2.796,2.144
		c1.242,0.847,2.397,1.513,3.167,1.858C77.773,65.001,76.465,64.928,74.994,64.957z"/>
</g>
<polygon fill="#FFFFFF" stroke="#000000" stroke-linejoin="round" points="4.035,76.486 47.56,76.204 33.906,46.331 "/>
<line fill="none" stroke="#000000" stroke-dasharray="4" x1="33.909" y1="46.018" x2="67.63" y2="76.596"/>
</svg>
