<?xml version="1.0" encoding="UTF-8" standalone="no"?>
<!-- Created with Inkscape (http://www.inkscape.org/) -->
<svg id="Layer_1" xmlns:rdf="http://www.w3.org/1999/02/22-rdf-syntax-ns#" xmlns="http://www.w3.org/2000/svg" xml:space="preserve" height="113.39" width="113.39" version="1.1" xmlns:cc="http://creativecommons.org/ns#" xmlns:dc="http://purl.org/dc/elements/1.1/" viewBox="0 0 113.386 113.386"><metadata id="metadata35"><rdf:RDF><cc:Work rdf:about=""><dc:format>image/svg+xml</dc:format><dc:type rdf:resource="http://purl.org/dc/dcmitype/StillImage"/><dc:title/></cc:Work></rdf:RDF></metadata>
<line id="line3" y2="55.412" x1="72.96" x2="86.933" stroke="#000" y1="55.412" stroke-width="3" fill="none"/>
<path id="path5" d="m90.302,53.662c-2.359-0.855-3.895-1.643-5.791-2.555v8.633c0.678-0.387,3.432-1.697,5.791-2.553,2.531-0.914,4.822-1.539,6.309-1.766-1.486-0.224-3.778-0.845-6.309-1.759z"/>
<polygon id="polygon7" points="45.697,110.54,15.515,30.181,45.697,0,74.42,28.724" stroke="#000" fill="#FFF"/>
<line id="line9" y2="0.815" x1="45.414" x2="45.414" stroke="#bcbec0" stroke-dasharray="2" y1="110.69" stroke-width="0.5" fill="none"/>
<polygon id="polygon11" stroke-linejoin="round" stroke-linecap="round" stroke="#000" points="15.089,29.177,44.121,29.177,45.267,111.61" fill="#b9e5fb"/>
<polygon id="polygon13" stroke-linejoin="round" stroke-linecap="round" stroke="#000" points="75.444,29.177,46.414,29.177,45.267,111.61" fill="#b9e5fb"/>
<line id="line15" y2="15.296" x2="27.498" stroke="#000" stroke-dasharray="4, 4, 4" y1="108.77" x1="44.771" fill="#FFF"/>
<line id="line17" y2="15.296" x2="63.171" stroke="#000" stroke-dasharray="4, 4, 4" y1="108.77" x1="45.898" fill="#FFF"/>
<g id="g19">
	<path id="path21" d="m52.531,37.09s8.498-5.952,17.162,5.229" stroke="#000" stroke-width="0.5" fill="none"/>
	<path id="path23" d="m51.291,38.037c0.958-0.032,1.604,0.019,2.395,0.065l-0.896-2.651c-0.209,0.203-1.084,0.947-1.864,1.502-0.833,0.596-1.612,1.074-2.134,1.326,0.567-0.114,1.475-0.209,2.499-0.242z"/>
</g>
<g id="g25">
	<path id="path27" d="m38.887,37.09s-8.498-5.952-17.162,5.229" stroke="#000" stroke-width="0.5" fill="none"/>
	<path id="path29" d="m40.127,38.037c-0.958-0.032-1.604,0.019-2.395,0.065l0.896-2.651c0.209,0.203,1.084,0.947,1.864,1.502,0.832,0.596,1.611,1.074,2.134,1.326-0.567-0.114-1.475-0.209-2.499-0.242z"/>
</g>
</svg>
