<?xml version="1.0" encoding="UTF-8" standalone="no"?>
<!-- Created with Inkscape (http://www.inkscape.org/) -->
<svg id="Layer_1" xmlns:rdf="http://www.w3.org/1999/02/22-rdf-syntax-ns#" xmlns="http://www.w3.org/2000/svg" xml:space="preserve" height="113.39" width="113.39" version="1.1" xmlns:cc="http://creativecommons.org/ns#" xmlns:dc="http://purl.org/dc/elements/1.1/" viewBox="0 0 113.386 113.386"><metadata id="metadata33"><rdf:RDF><cc:Work rdf:about=""><dc:format>image/svg+xml</dc:format><dc:type rdf:resource="http://purl.org/dc/dcmitype/StillImage"/><dc:title/></cc:Work></rdf:RDF></metadata>
<rect id="rect3" transform="matrix(0.7071,-0.7071,0.7071,0.7071,-23.8109,56.2551)" height="68.213" width="68.213" stroke="#000" y="22.763" x="21.894" fill="#b9e5fb"/>
<path id="path5" d="m61.77,18.829s17.332,35.52-0.945,76" stroke="#000" fill="none"/>
<path id="path7" d="m60.235,17.517c0.217,1.336,0.263,2.252,0.342,3.37l3.556-1.735c-0.322-0.257-1.525-1.35-2.444-2.343-0.985-1.063-1.795-2.068-2.245-2.756,0.265,0.777,0.56,2.033,0.791,3.464z"/>
<path id="path9" d="m59.918,94.233c0.285-1.409,0.379-2.38,0.518-3.565l3.459,2.031c-0.334,0.256-1.593,1.356-2.562,2.364-1.041,1.079-1.9,2.106-2.387,2.814,0.306-0.813,0.665-2.133,0.972-3.644z"/>
<path id="path11" d="m18.211,51.287s35.519-17.333,76,0.945" stroke="#000" fill="none"/>
<path id="path13" d="m16.899,52.821c1.336-0.217,2.251-0.263,3.369-0.342l-1.735-3.556c-0.257,0.322-1.351,1.525-2.344,2.444-1.063,0.986-2.068,1.794-2.756,2.245,0.779-0.265,2.035-0.56,3.466-0.791z"/>
<path id="path15" d="m93.615,53.138c-1.409-0.285-2.38-0.379-3.564-0.517l2.03-3.46c0.257,0.334,1.356,1.594,2.364,2.563,1.079,1.041,2.105,1.901,2.814,2.386-0.813-0.306-2.134-0.665-3.644-0.972z"/>
<line id="line17" y2="57.291" x2="7.81" stroke="#000" stroke-dasharray="4, 4, 4" y1="57.291" x1="103.7" fill="none"/>
<line id="line19" y2="9.348" x2="55.753" stroke="#000" stroke-dasharray="4, 4, 4" y1="105.23" x1="55.753" fill="none"/>
<ellipse id="ellipse21" rx="2.827" ry="3.697" stroke="#000" cy="14.099" cx="89.894" fill="none"/>
<path id="path23" d="m76.615,16.295c3.59-4.178,7.756-6.521,13.887-5.884" stroke="#000" fill="none"/>
<path id="path25" d="M101.67,14.773c-3.273-3.21-7.123-4.917-12.463-4.362" stroke="#000" fill="none"/>
<path id="path27" d="m102.51,15.164c-0.322-0.763-0.48-1.3-0.689-1.952l-1.861,1.544c0.229,0.106,1.1,0.582,1.791,1.04,0.738,0.489,1.363,0.969,1.73,1.313-0.27-0.425-0.626-1.129-0.971-1.945z"/>
</svg>
