<?xml version="1.0" encoding="UTF-8" standalone="no"?>
<!-- Generator: Adobe Illustrator 15.0.0, SVG Export Plug-In . SVG Version: 6.00 Build 0)  -->
<svg id="Layer_1" xmlns:rdf="http://www.w3.org/1999/02/22-rdf-syntax-ns#" xmlns="http://www.w3.org/2000/svg" xml:space="preserve" overflow="inherit" height="103.07" viewBox="0 0 103.19287 103.06488" width="103.2" version="1.1" y="0px" x="0px" xmlns:cc="http://creativecommons.org/ns#" xmlns:dc="http://purl.org/dc/elements/1.1/"><metadata id="metadata3078"><rdf:RDF><cc:Work rdf:about=""><dc:format>image/svg+xml</dc:format><dc:type rdf:resource="http://purl.org/dc/dcmitype/StillImage"/><dc:title/></cc:Work></rdf:RDF></metadata>
<g id="g3000" transform="translate(-22.626565,-6.0935614)"><rect id="rect3056" height="70.066" width="70.067" stroke="#000" y="22.593" x="39.126" fill="#FFF"/><line id="line3058" y2="92.514" x2="74.354" stroke="#000" stroke-dasharray="4, 4, 4" y1="22.705" x1="74.354" fill="none"/><line id="line3060" y2="57.608" x2="109.11" stroke="#000" stroke-dasharray="4, 4, 4" y1="57.608" x1="39.298" fill="none"/><line id="line3062" y2="22.832" x2="39.635" stroke="#bcbec0" stroke-dasharray="4, 4, 4" y1="92.477" x1="109.28" fill="none"/><line id="line3064" y2="92.432" x2="39.68" stroke="#bcbec0" stroke-dasharray="4, 4, 4" y1="22.788" x1="109.32" fill="none"/><g id="g3095"><path id="path3050" fill="none" d="m44.391,53.006s28.959-14.132,61.965,0.77" stroke="#000"/><path id="path3052" d="m43.322,54.256c1.089-0.177,1.835-0.214,2.747-0.278l-1.414-2.899c-0.21,0.262-1.102,1.243-1.911,1.993-0.867,0.804-1.687,1.464-2.248,1.83,0.634-0.217,1.659-0.456,2.826-0.646z"/><path id="path3054" d="m105.87,54.516c-1.148-0.233-1.939-0.311-2.906-0.422l1.656-2.821c0.209,0.272,1.105,1.299,1.928,2.09,0.879,0.849,1.717,1.55,2.294,1.945-0.66-0.251-1.74-0.542-2.97-0.792z"/></g><g id="g3090"><path id="path3044" fill="none" d="m80.01,27.703s13.61,27.891-0.742,59.678" stroke="#000"/><path id="path3046" d="m78.805,26.673c0.171,1.05,0.207,1.768,0.27,2.646l2.791-1.363c-0.252-0.202-1.197-1.06-1.919-1.84-0.774-0.835-1.409-1.624-1.763-2.165,0.209,0.612,0.44,1.598,0.621,2.722z"/><path id="path3048" d="m78.556,86.915c0.225-1.107,0.298-1.869,0.406-2.8l2.718,1.595c-0.263,0.201-1.252,1.064-2.014,1.855-0.816,0.848-1.492,1.654-1.873,2.21,0.241-0.638,0.523-1.675,0.763-2.86z"/></g></g></svg>
