<?xml version="1.0" encoding="UTF-8" standalone="no"?>
<!-- Created with Inkscape (http://www.inkscape.org/) -->
<svg id="Layer_1" xmlns:rdf="http://www.w3.org/1999/02/22-rdf-syntax-ns#" xmlns="http://www.w3.org/2000/svg" xml:space="preserve" height="113.39" width="113.39" version="1.1" xmlns:cc="http://creativecommons.org/ns#" xmlns:dc="http://purl.org/dc/elements/1.1/" viewBox="0 0 113.386 113.386"><metadata id="metadata25"><rdf:RDF><cc:Work rdf:about=""><dc:format>image/svg+xml</dc:format><dc:type rdf:resource="http://purl.org/dc/dcmitype/StillImage"/><dc:title/></cc:Work></rdf:RDF></metadata>
<g id="g2991" transform="matrix(1.4280124,0,0,1.4339127,-23.950413,-25.661801)"><polygon id="polygon3" points="56.433,24.079,90.977,56.246,56.433,93.167,21.887,56.246" stroke="#000" fill="#b9e5fb"/><rect id="rect5" transform="matrix(0.7071,0.7071,-0.7071,0.7071,56.3224,-23.4884)" height="48.855" width="48.855" stroke="#000" y="31.819" x="32.088" fill="#b9e5fb"/><line id="line7" stroke-width="0.5" x1="56.372" y1="89.51" stroke="#bcbec0" stroke-dasharray="2, 2, 2" x2="56.372" y2="23.325" fill="none"/><line id="line9" x1="36.459" y1="43.437" stroke="#bcbec0" stroke-dasharray="4, 4, 4, 4" x2="56.657" y2="89.604" fill="none"/><line id="line11" x1="77.277" y1="43.49" stroke="#bcbec0" stroke-dasharray="4, 4, 4, 4" x2="57.007" y2="88.73" fill="none"/><g id="g13">
	<path id="path15" d="m56.166,32.841c5.628,8.751,1.759,21.553,1.759,21.553,6.044-8.979,6.396-15.625,3.318-25.259" stroke="#000" fill="none"/>
	<path id="path17" d="m55.919,31.325c0.785,0.668,1.363,1.06,2.06,1.553l-2.536,1.633c-0.039-0.312-0.276-1.528-0.562-2.52-0.302-1.067-0.637-1.988-0.909-2.553,0.404,0.48,1.106,1.169,1.947,1.887z"/>
</g><line id="line19" x1="77.345" y1="42.669" stroke="#000" stroke-dasharray="4, 4, 4" x2="36.436" y2="42.669" fill="none"/></g>
</svg>
