<?xml version="1.0" encoding="UTF-8" standalone="no"?>
<!-- Generator: Adobe Illustrator 15.0.0, SVG Export Plug-In  -->
<svg id="svg2" xmlns:rdf="http://www.w3.org/1999/02/22-rdf-syntax-ns#" xmlns="http://www.w3.org/2000/svg" xml:space="preserve" overflow="visible" height="8px" width="29px" version="1.1" y="0px" x="0px" xmlns:cc="http://creativecommons.org/ns#" xmlns:dc="http://purl.org/dc/elements/1.1/" viewBox="-1.757 -1.387 29 8"><metadata id="metadata20"><rdf:RDF><cc:Work rdf:about=""><dc:format>image/svg+xml</dc:format><dc:type rdf:resource="http://purl.org/dc/dcmitype/StillImage"/><dc:title/></cc:Work></rdf:RDF></metadata>
<defs id="defs4">
</defs>
<line id="line6" stroke-width="0.3" y2="2.244" stroke-dashoffset="0" x2="14.672" stroke="#000" stroke-dasharray="2.4000001,1.20000005" y1="2.389" stroke-miterlimit="4" x1="25.435" fill="none"/>
<path id="path8" d="M0.272,0.812c-0.338,0.324-0.289,0.608-0.23,0.748,0.153,0.369,0.699,0.764,3.572,0.898,1.531,0.071,3.034,0.029,3.048,0.029l0.788-0.022-0.603-0.505c-0.17-0.142-4.173-3.449-6.575-1.148zm0.414,0.431c1.482-1.422,3.889-0.133,5.072,0.659-2.618,0.018-4.904-0.221-5.153-0.561,0.007-0.015,0.023-0.044,0.081-0.098z"/>
<path id="path10" d="M5.969,2.315s6.671-1.943,8.247-2.232-5.35,2.339-5.35,2.339l-2.897-0.107z"/>
<path id="path12" d="M6.907,2.961l0.572-0.538-0.785,0.021c-0.014,0-1.518,0.042-3.042,0.196-2.863,0.293-3.386,0.718-3.519,1.094-0.052,0.144-0.085,0.43,0.271,0.734,2.524,2.166,6.342-1.357,6.503-1.507zm-6.2,0.96c0.23-0.352,2.501-0.716,5.115-0.843-1.138,0.856-3.469,2.275-5.029,0.937-0.06-0.051-0.078-0.078-0.086-0.094z"/>
<path id="path14" d="M6.024,2.604s6.573,2.258,8.132,2.623c1.561,0.363-5.233-2.591-5.233-2.591l-2.899-0.032z"/>
<rect id="rect16" y="2.297" x="5.578" height="0.384" width="3.33"/>
</svg>
