<?xml version="1.0" encoding="UTF-8" standalone="no"?>
<!-- Created with Inkscape (http://www.inkscape.org/) -->

<svg
   xmlns:dc="http://purl.org/dc/elements/1.1/"
   xmlns:cc="http://creativecommons.org/ns#"
   xmlns:rdf="http://www.w3.org/1999/02/22-rdf-syntax-ns#"
   xmlns:svg="http://www.w3.org/2000/svg"
   xmlns="http://www.w3.org/2000/svg"
   xmlns:inkscape="http://www.inkscape.org/namespaces/inkscape"
   version="1.1"
   width="127.559"
   height="127.56"
   viewBox="0 0 127.559 127.56"
   id="Layer_1"
   xml:space="preserve"
   style="overflow:inherit"><metadata
   id="metadata43"><rdf:RDF><cc:Work
       rdf:about=""><dc:format>image/svg+xml</dc:format><dc:type
         rdf:resource="http://purl.org/dc/dcmitype/StillImage" /></cc:Work></rdf:RDF></metadata><defs
   id="defs41" />
<polygon
   points="47.553,69.588 89.415,57.203 48.108,50.138 5.776,56.548 "
   id="polygon3"
   style="fill:#bcbec0" />
<path
   d="m 46.496,57.853 c -0.425,1.333 -0.606,2.259 -0.853,3.391 l -3.37,-2.305 c 0.363,-0.211 1.756,-1.148 2.843,-2.027 1.162,-0.935 2.14,-1.84 2.702,-2.479 -0.386,0.754 -0.874,1.994 -1.322,3.42"
   inkscape:connector-curvature="0"
   id="path5" />
<path
   d="m 47.305,93.198 c -0.748,-1.183 -1.34,-1.916 -2.049,-2.832 l 3.932,-1.101 c -0.072,0.417 -0.248,2.085 -0.275,3.481 -0.026,1.212 -0.01,2.53 0.162,3.664 -0.33,-0.779 -0.965,-1.95 -1.77,-3.212"
   inkscape:connector-curvature="0"
   id="path7" />
<polygon
   points="61.873,73.979 32.652,73.979 47.264,61.229 "
   id="polygon9"
   style="fill:#ffffff;stroke:#000000;stroke-linecap:round" />
<polygon
   points="48.108,50.138 5.776,56.548 10.514,61.284 48.412,55.315 78.78,60.35 89.415,57.203 "
   id="polygon11"
   style="fill:#b9e5fb;stroke:#000000;stroke-linecap:round;stroke-linejoin:round" />
<polygon
   points="5.776,56.548 47.553,69.588 89.415,57.203 67.952,77.771 27.77,77.771 "
   id="polygon13"
   style="fill:#b9e5fb;stroke:#000000;stroke-linecap:round;stroke-linejoin:round" />
<path
   d="m 47.006,66.768 c 0,0 -7.369,-4.633 -0.786,-8.967"
   inkscape:connector-curvature="0"
   id="path15"
   style="fill:none;stroke:#000000;stroke-width:0.64899999" />
<path
   d="m 47.321,70.001 c 0,0 -3.592,7.781 0.428,22.21"
   inkscape:connector-curvature="0"
   id="path17"
   style="fill:none;stroke:#000000;stroke-width:0.5;stroke-linecap:round" />
<path
   d="m 51.334,32.806 c -0.849,1.111 -1.502,1.791 -2.288,2.639 l 3.818,1.444 c -0.037,-0.419 -0.066,-2.097 0.032,-3.491 0.101,-1.489 0.283,-2.808 0.485,-3.636 -0.397,0.748 -1.132,1.858 -2.047,3.044"
   inkscape:connector-curvature="0"
   id="path19" />
<path
   d="M 26.045,37.809 C 24.659,37.632 23.743,37.407 22.614,37.15 l 0.663,4.029 c 0.347,-0.24 1.785,-1.106 3.04,-1.721 1.337,-0.659 2.571,-1.162 3.389,-1.402 -0.848,0.03 -2.178,-0.05 -3.661,-0.247"
   inkscape:connector-curvature="0"
   id="path21" />
<path
   d="m 5.989,54.722 c 0,0 -1.141,-9.983 18.827,-16.26"
   inkscape:connector-curvature="0"
   id="path23"
   style="fill:none;stroke:#000000;stroke-width:0.5" />
<g
   id="g25">
	<path
   d="m 68.796,38.433 c 1.386,-0.176 2.3,-0.402 3.43,-0.657 l -0.663,4.028 c -0.346,-0.24 -1.783,-1.107 -3.038,-1.722 -1.339,-0.659 -2.573,-1.162 -3.389,-1.402 0.846,0.03 2.175,-0.05 3.66,-0.247"
   inkscape:connector-curvature="0"
   id="path27" />
	<path
   d="m 88.85,55.347 c 0,0 1.142,-9.984 -18.826,-16.261"
   inkscape:connector-curvature="0"
   id="path29"
   style="fill:none;stroke:#000000;stroke-width:0.5" />
</g>
<path
   d="m 48.12,50.124 c 0,0 -0.121,-2.586 0.635,-7.491 0.75,-4.873 2.184,-6.945 2.888,-7.65"
   inkscape:connector-curvature="0"
   id="path31"
   style="fill:none;stroke:#000000;stroke-width:0.5" />
<g
   id="g33">
	<line
   fill="none"
   stroke="#000000"
   stroke-width="3.8939"
   x1="90.558998"
   y1="66.502998"
   x2="109.631"
   y2="66.502998"
   id="line35"
   style="fill:none;stroke:#000000;stroke-width:3.89389992" />
	<path
   d="m 114.23,64.114 c -3.221,-1.167 -5.315,-2.243 -7.905,-3.487 V 72.41 c 0.926,-0.528 4.685,-2.317 7.905,-3.485 3.454,-1.247 6.582,-2.102 8.609,-2.409 -2.027,-0.307 -5.155,-1.155 -8.609,-2.402"
   inkscape:connector-curvature="0"
   id="path37" />
</g>
</svg>