<?xml version="1.0" encoding="UTF-8" standalone="no"?>
<!-- Created with Inkscape (http://www.inkscape.org/) -->

<svg
   xmlns:dc="http://purl.org/dc/elements/1.1/"
   xmlns:cc="http://creativecommons.org/ns#"
   xmlns:rdf="http://www.w3.org/1999/02/22-rdf-syntax-ns#"
   xmlns:svg="http://www.w3.org/2000/svg"
   xmlns="http://www.w3.org/2000/svg"
   xmlns:inkscape="http://www.inkscape.org/namespaces/inkscape"
   version="1.1"
   width="127.559"
   height="127.56"
   viewBox="0 0 127.559 127.56"
   id="Layer_1"
   xml:space="preserve"
   style="overflow:inherit"><metadata
   id="metadata25"><rdf:RDF><cc:Work
       rdf:about=""><dc:format>image/svg+xml</dc:format><dc:type
         rdf:resource="http://purl.org/dc/dcmitype/StillImage" /></cc:Work></rdf:RDF></metadata><defs
   id="defs23" />
<rect
   width="57.860001"
   height="57.861"
   x="35.169998"
   y="35.041"
   transform="matrix(0.7071,0.7071,-0.7071,0.7071,64.0091,-26.5884)"
   id="rect3"
   style="fill:#ffffff;stroke:#000000;stroke-linejoin:bevel" />
<line
   fill="none"
   stroke="#BCBEC0"
   stroke-width="0.5"
   stroke-linejoin="bevel"
   x1="64.167999"
   y1="25.004999"
   x2="64.098"
   y2="104.887"
   id="line5"
   style="fill:none;stroke:#bcbec0;stroke-width:0.5;stroke-linejoin:bevel" />
<rect
   width="57.858002"
   height="17.688999"
   x="49.369999"
   y="69.331001"
   transform="matrix(0.7071,-0.7071,0.7071,0.7071,-32.3453,78.2684)"
   id="rect7"
   style="fill:#b9e5fb;stroke:#000000" />
<rect
   width="57.861"
   height="17.684999"
   x="20.964001"
   y="69.333"
   transform="matrix(0.7071,0.7071,-0.7071,0.7071,69.8922,-12.3841)"
   id="rect9"
   style="fill:#b9e5fb;stroke:#000000" />
<line
   fill="none"
   stroke="#000000"
   stroke-dasharray="4"
   x1="4.6659999"
   y1="63.972"
   x2="123.523"
   y2="63.972"
   id="line11"
   style="fill:none;stroke:#000000;stroke-dasharray:4" />
<path
   d="m 66.68,33.48 c 0.334,1.984 0.404,3.344 0.528,5.004 l 5.271,-2.605 c -0.48,-0.377 -2.271,-1.991 -3.645,-3.463 -1.472,-1.567 -2.681,-3.057 -3.355,-4.078 0.399,1.15 0.846,3.019 1.201,5.142"
   inkscape:connector-curvature="0"
   id="path13" />
<path
   d="m 72.125,25.288 c 1.821,0.859 2.979,1.574 4.409,2.423 l 0.87,-5.817 c -0.579,0.181 -2.931,0.729 -4.922,1.017 -2.126,0.315 -4.041,0.456 -5.265,0.427 1.171,0.328 2.961,1.028 4.908,1.95"
   inkscape:connector-curvature="0"
   id="path15" />
<path
   d="m 65.389,99.392 c 0,0 21.457,-23.431 1.979,-68.032"
   inkscape:connector-curvature="0"
   id="path17"
   style="fill:none;stroke:#000000;stroke-width:0.5" />
<path
   d="m 101.809,54.79 c 0,0 5.682,-21.691 -28.945,-31.02"
   inkscape:connector-curvature="0"
   id="path19"
   style="fill:none;stroke:#000000;stroke-width:0.5" />
</svg>