<?xml version="1.0" encoding="UTF-8" standalone="no"?>
<!-- Generator: Adobe Illustrator 15.0.0, SVG Export Plug-In . SVG Version: 6.00 Build 0)  -->

<svg
   xmlns:dc="http://purl.org/dc/elements/1.1/"
   xmlns:cc="http://creativecommons.org/ns#"
   xmlns:rdf="http://www.w3.org/1999/02/22-rdf-syntax-ns#"
   xmlns:svg="http://www.w3.org/2000/svg"
   xmlns="http://www.w3.org/2000/svg"
   xmlns:sodipodi="http://sodipodi.sourceforge.net/DTD/sodipodi-0.dtd"
   xmlns:inkscape="http://www.inkscape.org/namespaces/inkscape"
   version="1.1"
   id="Layer_1"
   x="0px"
   y="0px"
   width="127.559px"
   height="127.56px"
   viewBox="0 0 127.559 127.56"
   overflow="inherit"
   xml:space="preserve"
   inkscape:version="0.48.2 r9819"
   sodipodi:docname="step11.svg"><metadata
   id="metadata31"><rdf:RDF><cc:Work
       rdf:about=""><dc:format>image/svg+xml</dc:format><dc:type
         rdf:resource="http://purl.org/dc/dcmitype/StillImage" /><dc:title></dc:title></cc:Work></rdf:RDF></metadata><defs
   id="defs29" /><sodipodi:namedview
   pagecolor="#ffffff"
   bordercolor="#666666"
   borderopacity="1"
   objecttolerance="10"
   gridtolerance="10"
   guidetolerance="10"
   inkscape:pageopacity="0"
   inkscape:pageshadow="2"
   inkscape:window-width="1274"
   inkscape:window-height="760"
   id="namedview27"
   showgrid="false"
   inkscape:zoom="6"
   inkscape:cx="60.862832"
   inkscape:cy="63.779999"
   inkscape:window-x="0"
   inkscape:window-y="0"
   inkscape:window-maximized="0"
   inkscape:current-layer="Layer_1" />
<polygon
   fill="#B9E5FB"
   stroke="#000000"
   stroke-linecap="round"
   stroke-linejoin="bevel"
   points="50.887,96.779 76.047,96.779   63.469,116.176 "
   id="polygon3" />
<polygon
   fill="#B9E5FB"
   stroke="#000000"
   stroke-linecap="round"
   stroke-linejoin="bevel"
   points="8.535,84.951 13.84,39.661   63.469,116.176 "
   id="polygon5" />
<polygon
   fill="#B9E5FB"
   stroke="#000000"
   stroke-linecap="round"
   stroke-linejoin="bevel"
   points="118.398,84.951 113.094,39.655   63.469,116.176 "
   id="polygon7" />
<g
   id="g9">
	<path
   d="M81.947,11.613c1.907-0.249,3.169-0.558,4.722-0.909l-0.914,5.546c-0.474-0.332-2.454-1.525-4.183-2.367   c-1.846-0.911-3.544-1.602-4.667-1.934C78.071,11.991,79.905,11.882,81.947,11.613"
   id="path11" />
	<path
   fill="none"
   stroke="#000000"
   stroke-width="0.5"
   d="M109.565,34.903c0,0,1.572-13.752-25.927-22.394"
   id="path13" />
</g>
<g
   id="g15">
	<path
   d="M45.015,11.613c-1.915-0.249-3.17-0.558-4.725-0.909l0.91,5.546c0.479-0.332,2.459-1.525,4.185-2.367   c1.843-0.911,3.548-1.602,4.668-1.934C48.891,11.991,47.058,11.882,45.015,11.613"
   id="path17" />
	<path
   fill="none"
   stroke="#000000"
   stroke-width="0.5"
   d="M17.394,34.903c0,0-1.572-13.752,25.927-22.394"
   id="path19" />
</g>
<polygon
   fill="#B9E5FB"
   stroke="#000000"
   stroke-linecap="round"
   stroke-linejoin="round"
   points="13.84,39.661 62.266,65.596   42.36,83.635 "
   id="polygon21" />
<polygon
   fill="#B9E5FB"
   stroke="#000000"
   stroke-linecap="round"
   stroke-linejoin="round"
   points="113.094,39.661 62.266,65.596   85.761,81.8 "
   id="polygon23" />
<polygon
   fill="#B9E5FB"
   stroke="#000000"
   stroke-linecap="round"
   stroke-linejoin="bevel"
   points="41.339,82.058 85.761,81.8   62.266,65.596 "
   id="polygon25" />
<path
   style="fill:#ffffff;stroke:none;stroke-width:1px;stroke-linecap:butt;stroke-linejoin:miter;stroke-opacity:1;fill-opacity:1"
   d="m 44.666667,82.393331 -1.333334,1.166667 8,12.5 24.333334,0 9.166666,-13.833334 z"
   id="path3008"
   inkscape:connector-curvature="0" /></svg>