<?xml version="1.0" encoding="UTF-8" standalone="no"?>
<!-- Created with Inkscape (http://www.inkscape.org/) -->

<svg
   xmlns:dc="http://purl.org/dc/elements/1.1/"
   xmlns:cc="http://creativecommons.org/ns#"
   xmlns:rdf="http://www.w3.org/1999/02/22-rdf-syntax-ns#"
   xmlns:svg="http://www.w3.org/2000/svg"
   xmlns="http://www.w3.org/2000/svg"
   xmlns:inkscape="http://www.inkscape.org/namespaces/inkscape"
   version="1.1"
   width="127.559"
   height="127.56"
   viewBox="0 0 127.559 127.56"
   id="Layer_1"
   xml:space="preserve"
   style="overflow:inherit"><metadata
   id="metadata17"><rdf:RDF><cc:Work
       rdf:about=""><dc:format>image/svg+xml</dc:format><dc:type
         rdf:resource="http://purl.org/dc/dcmitype/StillImage" /></cc:Work></rdf:RDF></metadata><defs
   id="defs15" />
<rect
   width="83.533997"
   height="108.102"
   x="22.055"
   y="8.0150003"
   id="rect3"
   style="fill:#b9e5fb;stroke:#000000" />
<line
   fill="none"
   stroke="#000000"
   stroke-dasharray="4"
   x1="63.820999"
   y1="10.744"
   x2="63.820999"
   y2="118.846"
   id="line5"
   style="fill:none;stroke:#000000;stroke-dasharray:4" />
<path
   d="m 34.689,67.831 c 0,0 28.062,-13.695 60.046,0.745"
   inkscape:connector-curvature="0"
   id="path7"
   style="fill:none;stroke:#000000;stroke-width:0.5" />
<path
   d="m 34.971,68.747 c 1.547,-0.2 2.603,-0.219 3.895,-0.268 l -1.868,-4.163 c -0.308,0.364 -1.612,1.708 -2.791,2.729 -1.257,1.098 -2.448,1.994 -3.256,2.484 0.904,-0.273 2.363,-0.569 4.02,-0.782"
   inkscape:connector-curvature="0"
   id="path9" />
<path
   d="m 91.737,68.751 c -1.547,-0.207 -2.602,-0.23 -3.895,-0.283 l 1.885,-4.157 c 0.307,0.365 1.605,1.714 2.78,2.741 1.253,1.102 2.44,2.003 3.247,2.497 -0.904,-0.278 -2.361,-0.58 -4.017,-0.798"
   inkscape:connector-curvature="0"
   id="path11" />
</svg>