<?xml version="1.0" encoding="UTF-8" standalone="no"?>
<!-- Created with Inkscape (http://www.inkscape.org/) -->
<svg id="Layer_1" xmlns:rdf="http://www.w3.org/1999/02/22-rdf-syntax-ns#" xmlns="http://www.w3.org/2000/svg" xml:space="preserve" height="127.56" width="127.56" version="1.1" xmlns:cc="http://creativecommons.org/ns#" xmlns:dc="http://purl.org/dc/elements/1.1/" viewBox="0 0 127.559 127.56"><metadata id="metadata23"><rdf:RDF><cc:Work rdf:about=""><dc:format>image/svg+xml</dc:format><dc:type rdf:resource="http://purl.org/dc/dcmitype/StillImage"/><dc:title/></cc:Work></rdf:RDF></metadata>
<ellipse id="ellipse3" rx="2.565" ry="3.356" stroke="#000" cy="33.253" cx="15.693" fill="none"/>
<path id="path5" d="m3.643,35.248c3.258-3.792,7.039-5.918,12.603-5.34" stroke="#000" fill="none"/>
<path id="path7" d="M26.383,33.867c-2.974-2.914-6.467-4.463-11.313-3.959" stroke="#000" fill="none"/>
<path id="path9" d="M27.146,34.22c-0.291-0.692-0.436-1.179-0.625-1.772l-1.689,1.401c0.208,0.097,0.999,0.529,1.626,0.943,0.669,0.445,1.237,0.88,1.57,1.193-0.245-0.385-0.569-1.023-0.882-1.765z"/>
<polygon id="polygon11" stroke-linejoin="round" stroke="#000" points="73.413,23.282,91.181,44.235,54.973,44.235" fill="#b9e5fb"/>
<polygon id="polygon13" stroke-linejoin="round" stroke="#000" points="100.05,36.539,122.55,51.984,73.825,100.93,24.878,51.984,47.135,36.673" fill="#b9e5fb"/>
<polygon id="polygon15" stroke-linejoin="round" stroke="#000" points="76.802,36.657,84.643,100.4,122.55,51.984,100.4,36.657" fill="#b9e5fb"/>
<polygon id="polygon17" stroke-linejoin="round" stroke="#000" points="70.686,36.781,62.837,100.4,24.927,51.984,47.135,36.673" fill="#b9e5fb"/>
</svg>
